<mxfile host="Electron" agent="Mozilla/5.0 (Windows NT 10.0; Win64; x64) AppleWebKit/537.36 (KHTML, like Gecko) draw.io/24.7.17 Chrome/128.0.6613.36 Electron/32.0.1 Safari/537.36" version="24.7.17">
  <diagram name="Страница — 1" id="yIphqvzQS5NhM2Z4it5l">
    <mxGraphModel dx="2206" dy="1286" grid="1" gridSize="10" guides="1" tooltips="1" connect="1" arrows="1" fold="1" page="1" pageScale="1" pageWidth="827" pageHeight="1169" math="0" shadow="0">
      <root>
        <mxCell id="0" />
        <mxCell id="1" parent="0" />
        <mxCell id="DhdpTAGQwJF97SSmaI3E-1" value="" style="shape=image;aspect=fixed;image=data:image/png,iVBORw0KGgoAAAANSUhEUgAABIQAAAL6CAYAAABHKo29AAAAAXNSR0IArs4c6QAAAARnQU1BAACxjwv8YQUAAAAJcEhZcwAADsMAAA7DAcdvqGQAAP+lSURBVHhe7N0JYFTVvT/wb1gVRRAQC26ASZAl5YmCECpaJWKCtaAlttYKz9ZEQLLYF55QsP9XLFp4NYEqNrG1INbWIEJ9kohBW6gksiqGRUlkEQFlTSA7SeZ/f2funbkzmZnMTCaTSfL92NOZe+7cdRZmvjnn3LAVK1ZYJk+eDIvFgvr6elRVVeHcuXOoqKhAeXk5amtrYai6cAEH/70Fx3d/hvqai7jsiu647PLL0VWW0+ad1B5/aZcu6B01HAPHfw+Xdu+uL0mhTJ53omCTzxwiIiIiAsLCwvR7RMETrNcdX99N4+r8HTtbod9z7YpLO6nbzl26oGvXS3Bpt8vQ/Yor1P2wDh3UOlWRQOj+++9XP85OnTqFb775Bn2/0w+XXnYZLtNKly5d1YqcWbT/fKFtSr/nHVfrb3wN3m7D231viy/cxo69LR4zNSbw0Yz1deTrq8m6H572pmmvz0C8ugN/rsg3/IwKVb6+N0L5meT7vHnxXRxsfEULvu5aA+fXaqCetWD9C+V6O86/g5t7bxpbf2t/LwT6/Pm6vtamuroaFy5cUOXo11+jd5+r0Kv3VdaQSSsdJAiScuTIEZSVV+Cm4VHod+116HllL7dhUEto7S9cotAi7yjruypwH4LGOpvr3dpc66XWoTlfW9RU/nyOyDKh+CWsrX8xbGl8FxNR8PGTh9qvrl27ok+fPhg4cCBG3Xor6msv4uiRQ9ZeQhaLNRCSlkF12u2Ng29C10su1Rd1r7m/LPm3fr7R/WP8yDIKtW2Oz7MlYM+56/UYP/ia/pkRmP00749zoVDHZylUtaVnhq8yapsC9W89UWvWsu8D4/sm/52hlnTppZciKioKl3TtgrNnTqmGQR1kjCDpJnbdDQP0h3lmfRH79lL2pbuYP+v3Dd+GRC0h1N95/GRoDeRZ4jMVSpr6bITSz1S+spofYwkialkt8ynEf18o1IRHhOPsmdOoqqpEh4sXL+Kqq7/jZcsgX7+MSxTkSxjk6/qFrN+bbfizbt/I/luPgYiImg8/Z5uD8a+kL8Vbxr/UzqW5uNrXxgoFjqvnWoq3XD0/oV5CX1OeEaK2hK99om6XdsN1116L86Wl1hZC3S6/XJ/lnu9Bh2/DSPsXpITOG9q8/wyFiIioNWnOf7WC/S91yP4LLCfCXNqoph5aa/0G1Tr3uw2/EIk84mufqHv37qiWFkISCMnVxJw19W0SWm8zBjR28syYC1HwyDvRKKHIvH/uClFb05Ze1yF9LOYPkrZ00gOIp6Ul8LsgtVdt67XPf17IVxIIqS5jMpBQ54BeTSzwQUPT1hact4V5H9vWxwtRY/x7xfMfLGoafu0JhOY+g8H895CvhtDg7zuTz19L4jdXChX8ReUPfn6SP+TqYxdrLqKDPm0jbz1/3n4vL1uKf7y1Flf1vEKvaTp/98UgXbeC+QZp6v4StT58xROFKuOHuacSKMa/f87FW672zddCgeLPM9iQq+fIU2mNzGeqaWcrFDgfTes/Imqt+PojChZ1lTH5P4M/bz0Jgv794QcYPny4mv7Tn1aoUKip/7g39WPAcUyf5uZqC82/VaKWxX+sKRTws9aVYJ6Vpv973UrIgfpSWiXnHW+1B9KsrJdMaQ/nhs8/EbVOc375FHpdcRl6Xn4pergoV2rz0rTHhJr/+O5w/Pvfm/WphmTezSOi9KnAaNBCyFsSBO3esd0WBJkZoVBjlqa/gJu1gzb7ZWoKfjT5h+r+0vR07UmUJ9JaZNrwoPaYnpd3U+Xjgny91k7qrtSW8Zd1m9b1S5F9bU/keI1jNt/3hjyn5nN3+NAhfY6cV3u9K7IdeW4p1AXmS6L8EDQKEbU/req9b/7A8qa0GPl89re44q6+vWpv54PPP7U3gX7N8z3UEv70Sibyt27HkWMn8JWLsvPTz9RjQs0fXlqOX/znNJehkNTJvGUvvqTXBEbYkiVLLL+YMcs6of7fNaPFjQRBEgJdcYVj4HP+/HmcPXtenwKqq8sxa9YsnC6x17kiP/4ffuQRPPCjH6ng4Oao4ThXVq72xQiAklNT1a1hzVur8cbrr2PNundU8HNvzASUlFXoc60enHw/Pti40bYuX0kg5LxO99x982vdHwAS7Bw6eBADBw3CJ5/t0WsbJ8ut/cf/YcDAgXqN1S9Tk3H99Tdoz+dTKvjZvGmT9hz+Q59rJUHR3RNiGtRToDi+Jq2vXH9+uTTna9vV/rTu9xIFA18jZv68q5vK12cg+PvY2B62xFkLtOZ6H7SFcxMIzu2C2tN5af3Hyn8lyDXzazsQr5JAr6/xtfj67mzt7wVvjldaBkkY1KNHT7fHKy2FSssqQ+7TzQh+/vSXlbj99vFu6wJh48YPvG8hJEHQ2W+/wZQpU9C/f3+91lGvXleoYrUTjz32mH7fvd+nZ+Dn06ep+/+VmoI/r1ih7ouvvjqCa6+7Vp+y+/ro1xh/x53q/pix0SqwMLdCkcDImN/aX/AtSUIgCcV8CYOEhEjOYZA4fOgwbhszRt3/4eQpOHjwS3XfIIHR/yx8Vp8iIt+15088+ec81P5JbznySmiO4onxDHhbms7VHnoqjfHmMaGste9/sJlfG94V+f/2q+H5CK1C5K9Av44CvT5qbyTwkeDHaCnUXGGQwatAaPmyDDz00EP6lNXll19uu5XWQYYTJ97F/v2FmDXrVbz66qt6rXsSHPz88cdt3cQe+NFUdWv4+fTpqrXOzd+195W7bcxt2LzpX+q+0V3MHEA8+5v/adCqKJCkdYvR7cno3iQhlNG1TYpMCwk5jPsG1RJK7yon92U95m5vRp2xnMwztmeud163eVr2y7xO87Rs2xygCVlOljfum7uISb1zNy55jHEMQuablzH21Vw3/o47sPXjj9X9f6xbi7vuvlvdF8a+GYEREfnK+OJh/iLia2kLAhM1UGgzRnBprPjOv6WodfH29eNcKJTxGSKitsMcCjVnGCRsgVBjH6NHjx7Fm2++iRUrVuCyyy5TRcKgsrIy1X1MgqAtW7aoIOj3v/+9vpR3fp++VHXv+q///m+9xkpaD5WUlasyaNAgyPhCQloFSQsgCRyku5h0TzJIMPFyZmD6AxqhhhQjaJFbabkkLWekSMghdQ/+aKptX9/Ly0O+di68JS2clvzud/qUNSyROoPMey9vo9qehGfBJMf24Qcf6FN2crzT//MxFfjIYwYMHKC6ggnj3HxauBe/XjDfFvbIfOkmJudzxV+014n2vBvkeTRPE1FL4Bdqag3a++tUjt9VIe/wXLVdfC9Q+xHYFreeSdcqbwq1Tl61EJqZZA1iRI8ePdClSxd9CvjiizeQm5vrVxBkkBYoEnTMTExU064+yiUcMoIJIxgygocpP/yBavEi4YQENBIYeSIBhtGSx9zyyJk52DC6teVv+Qh/fuUVW1AkgYcR/hjrlQBH9tcgyzoHS2aDBt2obo1WOxKamFvPeGJet+yXmYQsxrwPNubptVb/ETXMNs+5tZCZrP/lzCx9ypEEPBLsSIssV2GOtNqSLmBGqyBpUZT23/+tzqmEeEYLIwnxJPCi1qK5v2w5r59f7oKL55tca/m2V/LatL4+zV+EPZW2h+9P7xmvF+fi+rXiT6FQZX2enfE5o7Yi2K9lGWfHm0KBY+4mZu4+1hxUIOT6Y9PRiFtH4ZlnntGngM2b0/H++++7DYJkMOnGBpQW0npEgh4JUKQV0NsuAhNHYerxMgaNQVqqSKsaCWekGGGPkFvnwMPcmueTzwr1Wvck2DCPU/TnFSttYZEUI/wx1iuhhzloMh4vwZKEJ67IwNpyDBIYSahlJus3wh3n0Me8L86th4xWRVJkoGYz2Repl+X/sMweXplJUCPzA8E4d0ZYJ+dUgrA/vZKlwirj+ORWps3d0SiUePNpEQjGF/dgbY8c8by3N+Yfue5K8Jk/B4Lxmmy5I/UO35feCdbrRV4tfE5CF58bImqdnMcMch5TKNC8HlRanCopRWlpqeo+JkGQOSAyeBsEGWYkJti6eEnwIWMGuSKtgiT4ERIkSHhikFYq1153nS38MMIeIbfm8YX8IWGGMVBy9LjvuQ11mkLCJDkOuXqaOewS33xzQgU6cmzB6jIm+yLdwGS/zKQ1lzEukNzKc2J0HXMm500COjkeOXdyDo3uYzJPgp8J+nEZRUIsOVZfB7KmYOCXq/bF+FHlXKitCcUIxBjjJXhCOQgKBa3lvc/PKDIz/t3i64KovenQoQPOnDmjTzV0/Phx9ZhQ424A6eYMhTpYLI1/CTI/4ukFDUMg4WsQJKQFinSNMrcakcBD6oW0sjFa+8g8Y4wauSS5tSWQtcuTBBLOwUUgGOuX7lVGlybZjuyzMU+KhBxyiXxjX++NiXEYx8jo1iXrmf/Mr/XahmS9EsKYAywJTqzj67huxeMvo8uY7NtsU5dAg4Q3nsb0kQBIQiN5ToyuY1In58I4L8Z5M45H7hstgZznUajjlymitig0Y5Bgf96Ewlkw/3B1V8jK1bkxSvAxSmwtrK8RPl9E7cMvHk/Erf/xXe13p+vxjobdFKEeE0okl0l6claDMMhghEKzZ83Ua5pOthm2ePFiS8LMJ/WqhqwfnA0/Pq/q2UPdSquhpv8dz9uPZ2+2E8iP+qZur2W+nFDoc37VBOeV0nAr1v3w5j3D13LoC+ZzFMjP2UDja9VbLf8shspz1ZJnQjsH5tMQym+tkNi5UHx/W88LP3laD+tzFdJvNiIHzp8vTX31tvbPK1+Pv7HjDaVPAxXQhAXvGcrL2+i5y5hFnR7Xp0iCoFMl57UTHCovKff72lzk/ITSCyiUGM9G8J8V10Jpf1xtv6X3icg3ofhVQvYpFPerZZg/79yVlsPnysb5NPC0eBDaJye03mPkifW54ecQEYWeYIZBovulnd0HQo1HHaETBbUE8/nhP/qhjc8Pv/RQczBeV84lOOR9bX1vB3e7rUFof+bxubJrTeeC/5L6g2ctdBn/hsjA4MZ9IqL2yO+RlELra0xzfIzzS6u/XD0bofYPbSj+w988+8TXMQVbMF9zfH07C8XPNit5rkLt+ZKz5e8ZM46nKaU1cbX/wS6tU+i+J4mIgsf4F9e5UMt6OXe//4FQ4PClQC0jFF955g9IcyFqXCi9Wpr7x5v1GlSt9ydi82j5Z9/84925tBXasUhzbvOheSqNcX7SWvpJdHUMwSxtVKh8MpNnfJ6Imoen9xbfdy2vRQOh0ByDJzS+lch5MRdqHq3l/DbXPlpf6W34Wzi1IOOztLHijqvHGiXwjM+C1lxaTvM9L83HzzPm62F68/iWehKNp81cWloo7IPXfHvSzE+zu0Itj88DEbUn1/Xp1nKBUGiOwdOqvolQAAXzNWh/lYXG6826F/L/fP23Da3t66z1tSd7bd3z4L8WW9sZCy2t8XPD32e8FR2r8TbyVKgJmudTg59FoUGeB1eFiKitOXq6wnUgFJofeqHz7cW78+P//rpaP/8han7BOcfWb+L27i7ev0582T95rHmgxMaKXei8z6i9sb43gs3x9U92xvPRWGmNXB2HN6WVaEW72jo176cGP5OIyBXjO3uwPiPM2zMXalsGX9OjYSBkfaL5dLvD8+O/1nDWZB9DeT+N/WusNI3zrwn+umhdWufzJXvNV1pTGWcxEIVc8vUDtukfyE1j/ofBuYSiUN2vIONpCE18XqilBPu152l7fB+0LV8cK3UMhKzduELtaQ6dL6fenR9+mfYkFF9hrgRrH62vlFB8vRivY76WKXQYnx+BLJ6Z3wetoVBQuHohuSvB5OvLwNX+tnQJecHbSedT46pQ8PG8E1FbYwuEQnF451D6gtv4+eEXcvKP9VUT6NcPX4vBYTxvoVTapmD/C2V06wz1Qq2UqyezqYWaWeh9T2Y40TLkvPtaiIhC0ajwPghbvHixJS0tTa8iIiIiIiIiIqK2bPqvlrfcVcaIiIiIiIiIiCj4IvpdwUCIiIiIiIiIiKg9OV95kYEQEREREREREVF7cvxsOQMhIiIiIiIiIqL25KZrevoaCOUiMSwaGcX6pDeKMxAdnQG1iPl+s5D9C0OYy+Ljfoei3ESHY4pu9QfkSht/DomIiIiIiIha2LGzFd4GQsXIiJYf5HHIQgFSI+R+ovbT3QvhKXgtPhsR8oM+IhVRC1IQrs9qHmORXmSBxWIuOUjQ57ZaEgbFFZqOrQjx2RFtNBRqo88hERERERERUQgYep1XLYQkDIpAdnyR/qNc/7GeA8R5GQqFp+TbfthnxuqV5APtOViYhYScfKTY0rRwpLyWDqQu8S6YIyIiIiIiIiLSFO/O9yIQKn4X2QUJWGBPIqxiM5GTkIWFeguV3ESjW49WEo2IwrGLWXFGtFO3H6PlkVGC0SVI36fcDETr2zW3snF/HKZ6W7c38/Hpj9GXcb0eP+nPwWTnMC38PsSPLcQXxc7nUYoR1rk/x+730Xy85uMLwrF6S7of2vYxDPbN6vvm1DWxwWvP4/Kmx3mcdp5HREREREREFPpiY2O9CISK9qNg7BBE6JPuxGaauvZkLXTxIzkXS7KlM5Azo3tQMLsEFSB1IfCa7G+RtLJ51La/7o/DtJ8F+1Gk11pJ6BIH5Gjz9SZQjZ8PH7l9DgqwvygcKfn6tmz7mQl7fuT6HHvcx7HpKHJ6vFUQjrVRuUiU7oeyD/pzWBhnDmbGav9l413bdDHe3S+1hsaWJyIiIiIiImrbGg+EIoZgbIMARBTji0IgarDecsg24LGMM9RQbmIcsGABovRpqyLsL4iCsYrgGYv01/SxjMJTsCBBQhU1w8NxGGMnSRhiDluA7EetXeocusM1cj585vI5EGMxxGNa5+Ecu9vH3HXIihrscqynoBxrY4q/QCFMLaacn0NNfHwUUpfozX5ylyB7SLz9tefF8t4zXhdSvBxXi4iIiIiIiKiFNR4IqR/L9q5hNtqP7FSjG5N0v1GNRqTFRRHSnZsBFWVgIXIajh8kwYMXrY+alzXYst71dBxGK5siDFlobk1SoJWxKDCnCY2dD1+prmFZWOecNqiuZI0Eau7OsYd9zF2XhYQG/dNEEI41UO5LQ3rhOhXQ5K4rRPx9g631AWe8LiwOXSiJiIiIiIiIQpkXg0pLlyDrFa2sLUD0FhEqBNBbypi7lamQQu4YtMfHZSM+rWHAIMHD2Pj7mvmqY64UINvoT2Qen8fjcZiZW5OMRfxr+chBnH0sIq/X461wpCxIQFacuQWKtdsT0tMcWis5c3uO3e5jLtZluRivSAnGsXohfDCitFeiLSArzsDCBvscjvviC7EwIwPrsMA0GLfGq+WJiIiIiIiI2i6vAiEVSHgaoyY2DelItV5a/tH9iHJqJTI2/TXHH+RqHJowxBWm4zXnwaqDYiyi9j9q7eajxpLRj8XjcRhdgyKQGtWwtZMtNJPBjBs5H36JzdSv7Cb7IEUlcsh3e/4aOccu91EGSZbQL0vfjhEAOnaFavZjbVQsMtW4P/q5iMhGfJFjNz4RnrIAUampaJj0NLa8uRuYKQR1eU7s8+KyXAy+TkRERERERBSCwhYvXmxJS0vTJ9sDCT0WYkiR+RLuZCXnZh0mOwxI7aquveM5ISIiIiIiotZrw4YN3rYQIiIiIiIiIiKitoKBEJnEIrNBqxdXde0dzwkRERERERG1bu0wEJIf8+wuRkRERERERETtlxpD6IknntAniYiIiIiIiIioLcvPz7cGQgkJCXoVERERERERERG1ZR9//DHHECIiIiIiIiIiam8YCBERERERERERtSNvv/02A6H25MUXX0Tnzp31KQo1fH6apq2fP74+iIiIiIgoUCwWCwMhIiIiIiIiIqL25IEHHnA/qPSR9cP1e0BVdTdU1XTB0ZM3qun7klaq20CRbYV16IpufW7FFf3vRpdr4vU5gfO3nRX6PatvHSfxly2nceRMDWbf3RcL771Cr3Vt4Rt16ra+vh51dXXabS0uard1tbWorb2o3dduL2q32v06rdRKvfYYeey5inJ8kP59tXywSQuD1NRUXNT2LRDe/PAEvvqmDA9PvBHX9G5atnh+Tx91W1/XEbV1nbRzJqULLtZ0xsA796l5gfLuu+/i5MmTuOqqq7B3715MnToVN95ofW23pEA/P+1NWz9/TTm+zftPoKSqIzp26KSma7R1dLDUILJvGIbccK2qa6r/23lUv2e3/9BJzPnRLfoUERERERGFioKCAs+B0Hcftn/Br6+vQvmJTTi06Rco/PKWgIZCsq3hDxWh8txelH61AWe+eAXd+9+BnjdOR6eet6ogpSly9lXhJ2Ovxv+8ewK/vq+fXusoLGEnPngqEne/cAAlS8L1WtckEPrB2G6ot1i082JBrVZkF2vr6rVivtXmaffr5DHatDz2z//YjH8uvVtfk/c6duyIXy/5C/YXHUZPnMCf/vQnFUhJkaZe3gjkD+aNBafQ5zuXY92HhzDrwSG4qmeYPsc/pYV9cf33qvUpK4ulDtuyB2v72wVRPyjQa3136NAhnD59Wt2X2/379+NnP/uZmt6zZw/y8vJw6tQpREVF4dNPP8Wrr76q5rnTZfoYWAbehIu/XqHXBEZTn593l01T78s3P3sTD333Ib22ddj4RaW6La+qQ5X2Zqmoqce5iovaLVBdW4+qmjqcKK3B8XM1+PCXg9VjnTEQamjPV6dwuvISjI64EtWVNfj62wva51E9rrisC67texk+PVyCoydL8ODYAfoSvvvXvm9wofIixnw3Eh06dkZNrQXlFy3qtuhkGb7YvQt9rrgUj90zVF+CiIiIiIhamteBUH1tGeounsf5Yx/g2LZ5GDL1ILKfn+p3KPTEo5/o96xSHkzAqJ9+Bov8V1eBi1XnUP5tPs59+VdUnt2HLt3D0W/8Ov3RvpPWQU/c1c8WCH2w9wwWvncGm764oOZbsm5RgdDaGYMw5eWDjQZC/7PqIn4w7jJ8/+ZL9RptHVK0/5NwRpX6MOvx1Fug/c8aBuWcxZ//sQmbX7zHupAXJAh66tcvorCkO678zkhVd+jtxzDw5jh139nfXn5Gv9dQoH4wf/VNDQq+OINre1+KwqJzmPWj8CaHdmc+6Y9Bd5brU/Kaq1avhS1vjseoH7yJTX//OcY+/J4+t3EXLlxASUmJagkkRQbMCg8Px7Bhw3D99dejZ8+eKC0txfnz59Xj1q1bhwEDBuDLL79sNBDqemdP/R5Q/a8S/V7TNeX5kTAoPu1PyF7yC5TfGYdTlSfx5G2z9blNc2Tj/ag4uUXdH/LwGXUbaBIIxd78HXW/tEJa2VlDzqNnq1U4VFZdh33Hq/D21q8DHggZrSFLLvTEhfIr8b2f/5/LOl+UFLyp39OOR3ud1dTU4mJtFS5qt2Xaa/NibZ16z1jq61VrQsO9v8zQ7zXk6/Ft+fwb9OnVB9/p3hGZ/9iLvccrUF7bQYVrYXUXcfVlYXjiB4Mx6Lor8M7Wo5j+fd9byUkY1LVHf4weeLmafrugDI8/lY1XXohH1I1dUGMJU8HQsZJKnDm0n6EQEREREVGIkEDIYz8fS30NaqtOo7bsa1hqLqC+8gSOnrxBzYt/erX6EeqvrFXRqvzpjXGoru6G+tpK7H0zEvve+g8c+egJVJUcQr//WIAbbs/EVUN+bvuB5q0PvqhSQZBzVzFx97De+NcvI1UQJMVQUlWv3/NMdf+SlEenGugYQZAKhcLUfQmBrGGQ9TF1Fule5n1w8pMZv0F8wq/RedAPMXLkXRhyy0AM7G8NIyal/R6/WPBbWxnyozRV39zCwsJw4FApBt/QE9v3ncZP773R5zBIfixLOfPRX/HNhyvw1YZXcO7oPOT/6Rn8deFkVf723EPaa++M9tq4FBcrv8WY2DnY+MpUfQ2Nmz9/PlavXq1a/Jw4cQLFxcX4+c9/jltu0Z5z7cmQrmK7du3C1q1bVSuhK6+8Epdfbv1R2xhzCGQOhzzx9nH+MMIgYdz+4p7HsfCDhep+U+x/oze+++AmjJlRq9c0nbyXjWLQXlYor6lFSXm1ahEkre/OlDkGH6UVgdsHZxJ+D7tjlrb9XnqN6zpf3HBvgipRDybh5qmzMOpHszDmRwm480eP4u4p8Zjwg/tx98QJGD/yOoy7ybvXnre+PHEKl3Xvja6Wi5j3l134quYSjLl5IBJ/MATzfzoCv/jBcHTr3Qv/9epuvP/xUdw/6hq8/q8v9aW9I2G1tAySMKhrR+01rhUJg4RxK58X8txedXlXnD5vbQVGREREREShwW0gVFZ1BWorT6Ku+jTqLl5QLYQuVh5FyYU+qnWQFJG/5jl166t9e0vw2aencOJ4OU6fuwrl31q7BEnXsetvW4yOnTvj4Ic/UeFQ2bf52o+y3l6HQhICPTD6ajVOkLQMmvH346r+/71zXLUEclVESYV3wYYEIBII/Xr5F/jl7wsxJ70QD83Zhnc+PKKCn/E/fUX9oH1k/i4kLPwECc9+hvj/3o76uno11pAvBo77hbq9pN+VqDpxTt1vSd+ercehM+X4To9L0OPyLuh5ue9dxeQcyQ/lQZNmYvCUZETF/xdu+dk8VFZVole3G/CjlKV4YNZCFQRVV16CD/7+W+RlZ0K6jn32oefWOwZpIbRgwQJ873vfUy2CxHPPPYdnnnkGmZmZ+OCDD1RIVFFRocZ4GjJkCPr3768e5w1zKNTDQ9jTOXmSCoMC2ZLITN4TP356lbq//+2bcbH8GM6UW7vH/Sz6Z1j0z9+q+/6QMGjI/e+h9NhGrEi+DJ9/3lWf03Tm7qgSLJRW1mnPfy3OVQLf++/3VLlwsSMeev5D/OcL/8J5bb5Fe6lVWQK3D8FSX12B+qpyrZRp97XbGm36YiUstVXaZ0INLHXVqkVcoMj5PHCqI4Z8pyteeudzWC6/Ejdd1wv//cMb8aMx/THxP67Go9+/AZkzR+He6EF4cf2X+PLoBdzQtzuO610rvbHjy5Po850b0EF7Xjpq/5JIkZZBQm47d7aOV2QYPGIkFr9l/awlIiIiIqKW5zYQKq+4HBcrjqG2+oz24+UCarQfml269sf47/fG2JtPYdSwA6qcPfa5voRv9nx6Coe+LEP+pm+wesuv8MTsbnjuzVX46QMf4+ePncdTv47G8vfexPLcv+O5zEeQvS0TL77/BuanFepr8E11rQVnM0bg2OLv4vOFw7D9V0PwwS8j8fbMG/GX/7wBGQ9dp/0o9a4FggwULblOXVhX3HBtL1x3TS/06HwMUyYMQNKSQlRWV2F74XHEjLkal3etxaFvvsGYEVegrt468LQ/jDDo0PHmCRbMTlSeQHRGNHrO6YlxL4zDy1teBvTcZ/ueEhR9XYqDxy9g8h0D/Ooq5tzlxVJ3Uf1orqqqwoSfz8H/vWANgy5q+zEm5lGMnTAR0XeOxNjbr0N1eam+VOOqq6tt25o2bRruuusuxMfHq9HUY2NjVVh06623YuTIkaq7mLQc8oWEPJdot/KMuGoBJEFRh91bmjUMinrI2qpDwqAbxr+iztm3lSdV3eU9Lsedw+7AyP/1fVDfYx/9XIVBYu3iH2LKb46rEihVpUX6Pe1DqIP1Y+ibC8C5SgvemDtRlYef24AXnrgdSxK+p+Zf0tntx1WTVZc0HLjcVZ23zpw6i9qz2ufn+ZOoOLITVcf3ovrUQdScPozaC6dQV3Ee9dpnQVjHLujQuRs6dApc0HX89BkMuLoH3vv4CErDLkWnLl1RpX3s/OWfR3H/4p2Y/L+fYP+xMlzSpSMem3AjzlZ3RMaavRg56Ep8cbxKX0vjLmgr/e51l2ufa9p7WvsYOFtWhZE3dcPOnOnq1tnlnXwPj4mIiIiIqPm4/YVVU9sZF8u/Qm3FN6i7WK79aq9Hh0uuwqU9hqJLz5vQsUsP/ZFAp06Ofwn2xqlvqnHsaDly/+8bJM09j8XL+thu0//YX5X/97s+Wumryn/OOIcfTL4OnbuU6WvwTWVNPX7w0pf4UdZBTFtxGDPe+Aq/fOtrPPPOcTyf+y1S3jyKsxXedRm7KFcN034F/eaJG1BZVYXCfYWYP+te/G7ll/iPyJ6orLZ2jejdvRa7D5/DgS9W4sn4gSo8qa1rvm4vgfKLVb/AvmPWH8N7T+zF/+T8D3759ny8+3Excj46ifE398Nfc4qwduNBvPBmMX79531IeuETPP1yITKyG+92IkGNePOZ/1Ql+38SUFd1HjXVNagrL0HcownIzfwrcl5/HRveehcf/GMLLlYc18oJVGnzvSXbkRZAnTt3xoMPPogRI0ao1kK9evXCJZdcol63Mii3BFFS5L6vSvVQSH5GV97ZU7XOkCIBkdQ1axj04y9RV1uGvauH4ppRi3Bk8+OoKTuqXp9Hvj2MmvoadOnSFYlxCT6HQtWl1qDXCINkjB8pb396Ab97/1skZR/Fj185iKmZX2LK8mLc9fsvVPHGmbJrtefyG30K+OqDSQhbE4kdh0px6NsLOHLyAk6cs44n1Un7hOrUIQwdtdKceYK8vpy5qvNWZVU5Lp47iuozh7WpMOT8XXs9a0WNjVVfh/ffzVXFUi+fB3JggTu446V1uK53F3z8xRl06nIJ6urD8PnxKqzeUYoa7dVarn22f/mt9T1YfbEeFu2fgaKTlfjmTAXOlXv/HiivqkXVRW0dddrxaodRbbkEt8StsBVrd1npOmu9rZPkiIiIiIiIQobHP7lfLPsKtVUnUX+xVD3Sglp0vKQ3uva4CZf2GYUuV4QjKvoOlB17R1/Ce0cOV+LA/jJMjr9RXXK+Y6duttv6evmhrpW6TqiqtKhy8aJ2v6oT7p/iekBZM+cuYqK8pg5l1fXInzMYH//3Tdg+9yZ88qshKHxmKD7/zTD1GG9bCMnl5OWqYRbt9025vsyO/aU4fPQMVm+1Dha751A9Xskrw7kz+/HE1FhYLJ20H2YysGzoB0Jbirbgpn434eLLtXjpJ8tR9XUVVn6UjV//7V+w9OiOAdf2xPzHR+Ku6Osw9e6BSJhyE36dMBLfjeiFIQMaHyunuqoSlouVmPp0Oh74r+cxJenXqCs/h4s1F/GPzP/F//3lZfW4ThevxPfu6Iux0V1UGCRdGKt9CIQk5JHnQlr+yK2MFyRjB8lVx7799ls12G9lZaWaJ2GQ3PpDQh9pvyXBUNnt3VGrFaO+uQy6fz8K/34jyk9tQ9/hT+HY9nnoE/mY9p79GqXauazXXpwV0jVJe9d27tIZ90TH+BQKSSBUW+E4+PuDo7+DR8dfi6fvG4RFP4rAgh+GIzV2EJ6IGaCKtzp0vQZ11Wf1KaDmQjF++usP0W3dIFyoqkdNnTxf+kyNdEnqIAPRSGkGMi5a9flifcrKVZ0vqqtrUPHNPlw8dUh1D5s45YeqfsO6d/D+/+Wq+/fcd696H2gPCGQehDMXatH9ko44ca5aDc5dc1H7/JQsJqyj9rllwbBrumH8kB7qfbHyn0dUfWllPY6fKkeZl+OoGSrlimI1UFeDk0PY+/5juOm7/6HmqRBIwiB5/2nvr1o/319ERERERNQ83AZCMlbQxfKv1Q83ueR8mCUMHTtepq781OWKG9G151BccvVduPGWWHTs0BWWSnsXEG+UlFxE9x6X4pJLO2jrvRx1lq6227r6LtoPwi6oqu6EsjILzl+ogaW+Ow4f/AY33+rdAK/mLmKivLoePS/tqO4brp+9WZWfv3lCTcs4Jt6oVYGQXO4dKKu0dknaf/gUis5fhWNfrEXkTXfisy++xYUzx3Dq9DY8OlkCIWsoIcv6QrqIGd3EXpo1BDd3s48jtGV/ia0E0vD+w3Hg2wP4zn9djVl/mwlc3QFd665F1YWu2PXpV0j87b/xs19vwtMvbsdv/vwplq/Zh9UffIn/CO+BiaN762txT8YKqq28oJVS1JefQ135WVVipz6Eeyf/ADH33oW7vz9aPVa6QF2s+BYXq06ituqUzy2EpMuYhD1SoqOjVfew4cOHY9CgQejTpw+6du2Kyy67TLXq8TcQEr3+VaJaBBmaMwwy7PtqLN79yx9Rfb4IPa6LQ03FN6qUV1biq/Nf4cT5b1FWX45el/VCz+498d3hUbj5eeuV6hojoa/Z0XOVahyhVSmXofDrSuz+ugJfnqrE1+dq8NUZrZz1fgycqpqrUFm6D/1G/j+sfaY/dm3Vnv+ac/jx3DUqFHJm68gnb7hmYP2sO6JPWbmq84WExnUXzqC24pwaM8hSW4N7fhALnPtKFXVfjqy2SvuMbTjwfVNclPVq56q2th6V1dKKpxY1NfUqlFn6s4F44acDcfRUBWa98hlWb/lWq5fPJvk8sw6M763LLumE8hoLyqotKK2yllppFqST9crnpNzWaPtQVV2jzyEiIiIiolDgsYVQ9YUvtR/t36hQqK76HMI6dkVYh0sA6eaglUv6jMQll12LLt2vQfW5Qp//gD9i5FXaD/IO2o/1y1F2IUzdnjtbi2+/qcbX2g/OY8dKUFJajQsX6rF3dw/8YPJAfcnGmbuIifNV9ShxCnwWPXYzZj50MyKusV7hx9tAyNZCSPvxVFlegd5XD8O/DnRXYdBfn4/HFT36qnBIWgf9fMpduPKKntqxWa9OJgMY+2u/Kfj55a5L8NK5AfjzYzepEkiz7pylApQz5Wdw7ZXXYvnDL+G38SkoCduB7j2/wlu/vRublsdg9bPj8Kenb8VvHx+OJ344CEMHeHelJOlmV1dRgrVL/x/Wvfw7vPPnP+DdVX9GTvbf8d66/0Nt2SmtWC9vvnVbR+z49ErUVUlocF7VeUsCITnf8jydOnUKRUVF6opicuWxwsJC7TX2NcrLy9VjJAySx0lXMn+cNY0hJMGQebo5rH/pF/jhE7/BA7Ofx0f/PI6Lldo5q7KWE2eP45OTn+Bo2Vc4WfUtPj72MbYf2o5Ptn6KT57epa/BMyMQ+sGT1tCmZ85wdV8UHq/CkbMXUaYdqHQ5kh/8kiN4O+Dz2Lgf4cN3tiIMx3DfjP9W5fSRv6sy4eGp6Lh6IE6UWsMDiResHyvaPe0DpoM9Hgqo+osNu6K6qvNWdaX22is/C8vFCtTXWLu/vf9aproVcl/OmVx2vmPXwF5hrPelHdUV2fr26Izyimrt/XZRe56017j2oTXs2svQoUMYfpr+CfJ2l6oWQ9Iyr3uXMPTrcxkuk0uFean7JZ1w+JsSVNXWo0Iv1dr6DHJXXhtyif3qqhpViIiIiIgodHgMhCy1cjWcC6irPoPa6tOqy47cVlWcQ9ilN6BL56vQsfPlWumh/bDQfh1WeD8Ia1fth8egiEtwyaXaYqV9cfzrMJSX9MXpk11x7lw3XCjrjoryq1B2oTfOnumByy4rQb9rOutLN87cRUycr6rDufJahyuL/ezlA5j7mrWox3gbCF2UQEj7EazdL6+8iB2Ha1UY9OEr0zDo2l44ceq8mpbWQT//0WQVNEiRv8L7O4aQtBL65ev78UnFlXqNVdXvq1QJpJ/c/BO88fgb+M39v8Fff/FXlFaWIGXdNFT2XYWht+5DP20X5BwYIYqvqislEDqLuJ88gtgHpmDipHswYcI43HX7CNw5Ohx1ZadRV35KPXZERCGiBm5TV7qzSNcaH0iXMSMQku5hcr9nz54YOHAgbrrpJjWQdN++fdGlSxc1T0IwaTHkC2lZZIQ/MnLUpf8qQfUAa5jSnKHQvU9k4u0/PI26mlJMmvYLbN1ar+5LKS0rxYWLZfjsm9349PinKDpehOJPvsTuX3+qL924a773Z/zfi9YASIIgIwwS356vVu+l0upaFbKWau+tihrvuxpZLr8VP0j6CzavWYd3X/6dKhfP7FZl4xur8XXMAVx9hf29bl1zmLagBWFhvr/evFErg5iXHdKnrFzVeauysgKWGu11XnlBDRpthEH3PJqoish7/RV0uKy39incUeVdgdL/yk44croKYwf3QkVZOcrKKlFRUaWVGmRuOIKXcg6qrmHV1RdRpb0XL1ZXI+I7l+I7vS5Fz8u8T/VvHtAbu3fv1l5vlai+WKfK6Ekr8Pln1tfZ7ZNfQ1VNLcq1bcv77+hXBzHnR74PcE5ERERERM3DYyBUX1uO2qoz1h9G5UdRU35Y3Xa/eix6XnMnuvUZoh53Wa+b0OfGB9C5a190rPHuB9Tgm3rikkvCtNJBdRvrphW5r/02Vz/86mvDcOZUNQq2nEL2a4cxePCNMkMt6w3nLmLnK+rwP/f3R/pD1+H/abfJE67GtHG9Mfnmnvj+Td1xy4DLcKHSux+1Eh5IICStfj7ed0yFPwtn3oLLul2BMEtnnPi2WIVBv0t9FD2791BjDUmRMYRayzgaPxz2Qzw27jH8bsPvMPftuaquvrYeO47n4ULdBTXtL2m5I91p6i6cRm2ZY6kr10qZNk/vGiatguolbPSDbEdCIQltrrnmGhUAXXHFFSrMOnv2LI4fP46vvvoKR44csbUWuvTSS/WlG2eZPgan9PGChHQbEz1XfIyr/m09R80ZCt2XtBL/yHxOe0+eQMyP7sOOT6z7UnOxRoVbwp8wyCCDSUsoVPltrq0IaX13vlL7oa+9x8qq61B1sV510fSFDGR895P/tF25rK76BDZtOKDCoAF9uspHgKLeO/J5oBV559RZPH5kNYl8zjlzVecti8Ue/t7zswRV6iq113NNhW06TMIg9bkWuETohr598PmxUkwccwOu7VaHCxfKcKGsXAUzV195Cfr1ulR7b9So13tVZQWu6mbBkz+8CTsPnkNkP+9f/0ICnn8XbMfJs2Wo0V4DLzxzJ34z9x78v6dj8Pz8O1FZVa22e+zYUYZBREREREQhxuOvK9XioPq09oPza9SUHUHNhYPqtuzYeny7byUqS6wta8pPfYKTe15BWFgd6rp4163rxpu649JuYbj0Mq1cGoauXcPUD7/zpRfx+b7z+NeGr/FB7td44MFrkfHHW3DjYEmKvGfuIjb77r6Y8vKX+M+/HEbqm0fVYNNLN36LlVvOYN0nJfjn5xew83A5DnxbpR7bmLo6aR1j/ZH6yRsPYvvfknBP9Dj141XqPv7LZHz+f6/hB9+/W6uzPk67US1q/L3sfLDJvh45cwQ5n+bghstvwJe/LcbMO2ai9lwtLmrH3xS1F2tV+LPh3feQ9/6/8cGmXfjXx19g8yfH8O+9Jair0F53FdZwZc+Rcdj71Xhb8YXRZUyCn3/961/44IMPsGXLFjWw9OHDh1W9dCU7efKkCoSKi4vRvbs94PHkfPIknDtsvRKXMMIgg5w/o665Q6H331qP2oqjuDNuhAqFZKwYab/WlDBIfPDi9zHh/qu1E3nYXjT/9+k5Vd7eeUbdbigswb/2l+KSMO/HETK7ou9gfPSvC/g0ep8Kg57+0xbM/fMWLHosGil//Dee+uNH6nHa2yjo6mv9H9+nrrIUF89/g+pvPtfKF6rUnv3Kdl/qq07sU4+RxwaKvPZu+o4F+05U4b9+NBTXXFKDyrIyVJRdwOTRV+OBMf1QXVGmSp9L6pB8/424aWAvfPH1OVx/dR99Ld6ToOfcsS+x6d/5OH3uCAbf2A2RA7uh79WXYk/hZzj05QGGQUREREREIchjILR9byQ+/uRq5G+/HFsKOuCjLfXqNu+drdiyMR+lX+dpP0RPovSbfFzaZwiqw7Qfj166+mrrWC1lZRfVeEHvvXsCmcsO4K03juCuCVfj6f83GC/8cQQG3NgJnbr4HqKYu4j94YOTeq2jWwZ0U7clS8JtZeG9V6g6T6SVjxo8Vfuf9bLKepcwCX6kJZAKgKz3pZ2G0cJBWm3Ij7WmOFdlHVT6gYNv466D/8TPqz7BrCutP9QDSfa1Y4eO6BrWFfffdj92f7UbmesycclVl6Bn56YHHDJO0B23DsDtUVdh3ODLMHZgGG67pgqj+5aoS9DXV1vHXZHAw7l4SwKh3r17q8vLy6XnZfDobt26qedDWg6dP38ep0+fVqFQmfaDWY7Z20CodvcW/V7DMMgsWKHQP3N242L5Nxh3h/U92NQwSJw/+QU2vvOtKpvzarBzZ39c990HsWNeJLY9HY6P5wxC/n8NsJUPf9n4FQBdmZjyb7zY45/6FPD8L8apImPdGPeFjEfTnCpObdPv2VWd26Pf853lYpV6HdtawJVrpbJEjSlk1NWVnVWPkccGUtT1V+P02dOo6dAFS2eOQuzQbugRVoGIaasx4Kd/x+UdqjBu0CVY9sTNuDf6Brz57yNIjLW2+PTHj+8crEKfeT++TXUjq6qxjxckdUREREREFHrCFi9ebElISNAnPevQoQPCZGBX47b2JKrLjqNjWAfUXur9wMYzpn2C+6Zcj5PHS7H141IMHd4Dd9zVDwPDL0OPK6WlUNNCk55pxVg740aUVNWhpKJODRZ9TrstqaxFqT4tLYguaLfSKkiCIF9MefpjPHjPLarVj4QIlnoJiCTsqdV+tFqvJCbBjxpEWrut1+rq5dZiwbK/5uJs3lP6mjz7yYzfqNtz/e7W/t8YO+gcSnJ+iYE3x+nTjv728jP6vYZefPFFpKamqi5T3vi28lsM/rX2I1//Hd6zW0+8/PDLiB0sV0jy33u/T8Ht370aFu2HcX2N9RL0cmluy8Vq1NfWwKK3QNpZNhD3/jJD3ffVY489hunTp6tQSIIfCX3OnDmjpuX4pbuMDCB95ZVXIjIyEj169FBjCY0f710rJAl4Ogy4SXUP84YRCHkKj3x9fpy9u2yaCoTuXPe+mm5KGBRsd//+C4yK7Ku9xjqiU4cw7fNFjSGtyPtGLl8u7+VNn5eq8MkVf8+fnDczCdhc1flCXuP+8PR69+f48j49gvLaSzEusieqqmpw7OQF7fPIgu6XdcF1V3dH4VcX8PnR03h8YmAHpl/81k6ER96E4gOfs3UQEREREVEIKigo8C0QcqlsJ3C5b1/4Z/3np5AuV7fcdhUmP3gDrvpOYMfVWfDeebetgpxJFzFvWgWZ3Z36TxUESdAjl1WWgaJVkSv5yK1chay2TnWtknq5uo8ERFLqLfUo+eC/9DV5xwiGDlXpl+Te/yI+/ti7IMLMnx+Ur2x9Bb959ze4rOtlmBs7F9Nucfyh7A9ffiw3JRCScYMkBBLXXnstwsPD1e0NN9yg5gVbY6FQUwMhIUHGr87tblVhkPjh8mKcq+msvW88twKSbmnuWiIF4vyFMn+P7+g3X6OguAYlVR3RtWNHhHUAqqq1dVhqMOK6zrhtaMNL/QfCM5l5uLx3LwZCREREREQhKDCBELUabf0Hc2vH56dpGAgRERERERF5RwKh5rtkDxERERERERERhSS2ECIiIiIiIiIiakfYQoiIiIiIiIiIqB1iIERERERERERE1M4wECIiIiIiIiIiamcYCBERERERERERtTMMhIiIiIiIiIiI2hkGQkRERERERERE7QwDISIiIiIiIiKidoaBEBERERERERFRO8NAiIiIiIiIiIionQlbvHixJSEhQZ8Elr28Qr9HRERERL5KmjFdv+cZv3MRUVvl7ecgEbWcgoIC14HQgqeT9SkiIiIi8tbC55f6FAjxOxcRtTW+fA4SUctpl4HQ8ePH0b9/f30q9IT6/hH5gq9nag58XVFzKS0t1e/5p0ePHiERCO08VolbXzyoT1Fbs+PJQbjlmkv1KaLACvbnIBG1HAZCIYg/dKgt4euZmgNfV9Rc2kogFDZ3L3akDNOnqK25NWMvLM/x+aXmETqBUB5Sek6FvWPtKCzalYeZg/RJImoyCYQ4qDQRERFRW7Z9LvDBVNS9fTNqNzyA7jWn9BlERKFMQqASlJSUYNciYF7icrDtI1FgdbBYLPpdIiIiImpT/nErbrnvOdzy8GqMnvEJbnv0bXy75g7UHt6KHp3rcFlnoBP/PEhEIW7QzDmYvn0t3mMiRBQwkgXxKwARERFRWyRhUMIO7U6WQ7k9ZR/KNz+CQ1kROPzyDTj2x+vwzYph+HZ1LC6rPqk9xpNcLPpOGG61lWi8cUifZfgw0TQ/DP+ZWazPELK8i2Xc1vsrVPfT0355sc9EZHVwOWJ69kRPVVKQpyqlm5lRp5UYaVEkdTFYrgdJB5fHaPPs01oNlsfYl0nJc5y2Flm/vp48+3ZjbCtx3Iadu3qi0MFAiIiIiKgNUq3Aq5YB5eVOJR13pRUh5umDuPdXRxC34Cgm/fdeVH+zE+tXr0KvisZSiLF4qsCCHd9YsPZ/gBeezMBRfY4KWR4utM3f8Y22nXcinMKWYAnV/fSwXx7nEbUdp0+f9licHVy+GCtGTcG9agyhPKSMXIspeneyktXAYlvqYu9mVpI3E45DDuVh2Vp5hEHCn5FYO2WX9fFayYgZhJl5cn81ptvWlYEY9fjtmLcYyJTHWvuweR32uDpGFpbmKr5gIEREREQUwrZu3YrNmzfrU96rr68HysqA8xeQ/+qrjuUPUapseuEmfLA4HBsWDUCXLl0wuPwF7F31PfSuPKyvxbPrEhfggZ3Z+LfKkIrxxu+z8MAb+Xh4oJqtCcfDL6YDv16CLXpNSwjV/XTcL0ee5hG1BX369HFbrLZj3khra5yR84ZhtRHwHCzCXtO8nlNXYPuBL9USnuSlTAXmzIFtSPaD72Ht9umY4/VI1aOwKFPfh0EzMWf6dtg3a9ofraRYmyzZuDpGFpbmKL7yIxDKRWJYGMJMJTFXn+VWw2XsZRyWOv0xJjdRq298pUETOvujn0c3+1K8dJzL80kUitTr1fm1nJsYUu/9kFG8FOPGLdV+wjjdJxfkc9L8OViMpeNC69+UFsPXUatVXV2Nbdu2IS/P6RdGI1QgVF6O/LdWI3p2octyx1Of4+45xZg47zAmPZ6A+545hpJzJVizZo2+Fh8cehd5OxNwx136tGHgfYi5pRBH/Ak2pCXPpAC3kmmO/VTdvZy7f7HLF1HTmFr72FrpGKZjtd6qR5UMx7kNfLkci7EajT3MewdRtFe/q5j2dfV0rFjMAbCpdfCzhVA0MoosqimypSgDe+IStX/2GmNaxlZyYL/gvU77kvrsngQk7Hk2NIKNUNsf7TxGu9yXXCxJydfvE4W+8OT5SMgyv5a1H+7P7kFGWqw+TTbhyVgZn40ICYQjUjB8fjLC9VnkWW5iBLLji2DJ5OuKr6PWa/z48RgxYgR2797tUyhktBDq2rWrNuU4jpCrUn1Ifr5koa6uDkeOHNHuN+5o5kK8fUs8bjda2twyBNfrdx0V4LAtHCnAC2PNY+VIicPb+ly3DmXgPx2WsZZFH+rzPQjqfvqgwX6ZeJpH1K4NisAwrDB1E2vMdsybuhZTkpzSoEH3Ysoo39az1hjVWm9dNClgARNRy2h6l7HwSAzHHhwIUFhSvD4biE9DWjyQvb7lE5hQ2x8xfLiLfcldh6yEhIYBG1HIikVahum1XLwe2YjHJP5CdSk8eYstTGe24R1phRaHHGxJ5ovKwNdR6xUTE+NzKCTBDqqq1POtaPc9lcrKSvUwCZJsy7hkD0qm/DoKS9en4Dp9Dnbux1f6XUdjMcAWbNjHybGXHDygz3VwVyZ2GOsfmIK/OCxjLfOcW/rYBHE/FXOA5Ck48rBfHucRkVUMMtQYPiNtXbR6OvfRcjJqUSYa9gyT8YJWY5hpPZ5XMwrDDiRaHztyHoatNrdaMndh22vvWkYU4poeCKkgYj6Sw63N8scZf+6Xrh8+N0cvhspftF+E4ZNUAtPCzdkb2x9zVziji4LeXSF3Kcbp82znJECGps3H8JQlplZZRsuKyfq0cO424TQt3QVs+2608NKPx+l5a9AVzWFZc5dB8zb0dRkz3S4j9MeqYt5ng+O+O+6P47yG03p3Edt2HaetRY5fX67B82Z9vMP+2l7b5m3JfW059UBP++Q4z9OxNDjvbZC0EjJeyxK+2lss6OfToTidJzfvMdXF01jG9sQ5rc/hNe78mrCfc4d1OW/fWIHTa9u+L06P8zjtOM/v14XH96a93lpM63D7eaA9xuvz7O69JbM87Zf7bTTJ+kREZMejyDn1aOwcefz88+YxqsL9+bQtaEy7P2/uX8vuzpnjNvx+HVHImjBhAnr37q1CoRMnTui1jpKSktTtyt8mWVsIaWpqatStGk/IQzEHQp6Zg5JMjNNrrV2usrDJucWO6qIVhRuC3tIl2Ptp3p6n4MjNfime5hG1JzHIKMlzEeLoBs1EXoMuY66WkboS5NkqnR9jnW+sx96lzPX2I5Py3DzWvo4S23Ku10EUSvwMhPKREqF/SY0DctQX7nAkb8nRf9xpXzylfouPzdHNLQTCJ2n3stGijXK82Z/oDBQ16PqmnZ9ntS9j8lfYogwgZVqAv3THYnJCFtYZvw98blmhPT8R2hJGF74c4FnbDkZr/5mPsxjr90mtQZZNwfAcfVnVZdD5R4X8wJEXgDZfvTa8WMbleXQlF0uyzfvjieyH3l1EtquVzFh5ncp92ZbRjTFTO6PC1fOmPX5+ArJsJ1vbg3VZSHDoauF8vN7ydCy+HGdrZryWpcvjcEx2OH3mbqbev8diM03LOHRJM9an1efvQ5Fea2Wap9fIj/pnsxK0p9Wp3oHTa1t73PCUCMcA0Wf+vi4ae5+5O5+ePg98Oc/u3luN7VdzfF5q60xxfp+Kxs+R588/4c1npLvz6Yr7zyT3r2Vvzhk/X9qijRs34syZM6qlUL9+/fRaR8uWLVO30361zNpCSGMLhBpcbcyxVFRUqIc1Hgi5E46Hf5mAtx9ONA3MnItFY1OB/0nzL9wwjyHUhC5jjpphP4mIiFqhAIwhNBTP2v7KGItM7ctvnDUl0n9ke8/aPWuS/gU+HNIoJ2VJk35ZNUmj+yOto4ZH6vPNtPOzUv8hEp6M+Qn52Of467PJYtO0HzLPWv9KnbtE+4HjciwI7UeDEdxpz4mMEKAUH8Ae87y4LOSbdjA+frj9OHOXIHtoPIZbp/RlE+w/3F0cX/Y0awhjy0YaW8bteWwoV5LG+fPt+6O4O871yM5PwHyvu4u4ed5iJ2s/xtZpXxVFLtbtyYB5mJsGx+sl18di5WleW6Ney3Fx2JOR5sNnhof3mLTgcn4tKMbrxPnzqQj78ocj0tuXiWJfV5b5ta2tdXICsKcJfWj9fl148d50yePngT/n2Umj+9Ucn5faOnOcwx6NF+fI4+efrvHPSHfn081nlTtuz3Hj54yfL22PdBOTlkESBkn3MW8YgZAMSq24aBVkLkYLIfl+J689v0gXrzeAZFtgo73e3rDgL4k+fci65nOXMQ+acz+JiIhaiQCMITQJ8dGB+AIvLQTykZ8Sob6ESImQQZJtP8SDrfH9US1F7L8E3SjGgT363UAyWizlyqDXjgGFnfajwQju1F+fzYyWD3oxpxmT0pCxx3qcuev2IH5SpLXeKzKwdbRDwNQY786jpkg7VuS4CF48Hae/zM+bjHWzR/2Vv3jps9hjCwmF78eruD0Wjad5bZH6DIlWXTP9Y3qupKuO9p3e+touQoZDEwjjdVKEoc+aggIJJKOHIkKftNF+aK/Unvc49f538YNc1lWUod0LoBZ7XXj4PLDx9jw3RQA/LyOSsSVnOFIijC5bXvLm86/Rx7g7nz58Vnl9jl2cM36+tDlyyXlfwyAR8eMPkZOTg4u1F/GPZ57B2r/9DW+9/jreXLkSb7z6Kl7/05+wMjMTf3n5Zfz5pZdQUFCArMREvHNsEvr27auvxVks5n1jvly7CxK2uA1s3C3vpt48hpBPgryfDep9XV54mkdELYvdv6htanogpFphRGOo+jWVa+0qpn3RhVdXHjNRP8qk25DxZdn4Emx0jdLW7XIsBPP9APJif9ZlmVsGmOU7DpSb7+5xTSFdmbQfO3EpplZMXlIDgWd56MYgraEkAFmKdZDxofRqoS9r766m/bhwOA/aD/uVW7SfG3H2cS08LuPpPJrla8eajXhfrkClggZPx+nM/fNmHUNqiepm4RhcuDjeRnk6Fj+Os5UrXjoNKcOdXmeNcvNcFe1DvhHuqHq544o9xJZAMtrle0jGEMtHdIZ0OXTz411/jdl7FMrr2d9wq4mvi0bfm254/Dxo6nnWNLpfzfh5GZuJIgn1jDF/vDpHHj7/bBr/jPT+c8cNj+fY0znj50tbJFcJGz16tE9hkDhz6QD0vuctfNphBjaem4oPSx/CprKH8VHlz1BQMx1bax/DDsvj2BWWiE87zsBnnWehsMuTGDNmjM/bIiIiotan6WMIqbEStuiDShvdPqwtKmxfwr3g+keZfOmOdhi/JVg8708iElWLgSxT6wE5J0YIFo3h+6bp50fGq/C9+5xXYtOQEe1LlyhDLDLVuBP21k/2AUutrIP9pqDhLzPrsnvi9OXU89/w+GIzixCfra1fvQbcLSNhnqfz6Cg6Y6WPoYGMzWEd08U4Ts9ju3h43qRbxnBtT90EF47HK0zvERfH5elYfD/O1sk6qG2Y64F/G+XmuZL3BFKsl9Wetg/DHVpVGM9JBFKGSwsJ62C+cXsysNLFCZfLladoa3M1z057ja00vba15xo58nmoz3b5OnCeDtTrwrv3ZkOePg/8Oc/OGtuv5v28lKtq5QzX9tXjZ5Ej959/do19Rro+nz7weI49nzN+vrQ9t912m7r0vD86DbgNP5o+E4mpc5GQlIbE2U/hiSeTMWPWbMycOVPdyrTUq/na4+TxshwRERG1bWG/+93vLImJifoksOzlFVjwdLI+1fYcP34c/fv316f8JUHGOkzWB/60MuomY13YsxiqQjJ9lg8Cs3+thafzGNgfhY2T7Xp+3uSKP+sm+3up5pY6rpbVPK/nxp+r1iOUXxfBOM/+baN9fU46a0uv/9BTWlqq3/NPjx49sPD5pUiaMV2v8ay5vnOFzd2LHSnD9Clqa27N2AvLc3x+qXkE63Pw9OnT6NOnjz5FRIHiy3srPz+fgZB/XP2IM+oYCHnP03kMsUCoeCnGTQNW+nrlPJuWOq6WxUCoMaH8ugjGefZvGwyE2srrP/R4+iH097//Xd3++Mc/VreuhEogtPNYJW598aA+RW3NjicH4ZZrLtWniAIrWJ+DDISImgcDoUY0/w+Jpn1Zb98/dFqSu+fNeun6lHwZDJY/wHzFQKg1C8Z59m8bDIT4+m8unn4IvfTSS+p21qxZ6taVYARCSUlJtkvLExEFWrA+BxkIETUPXwOhpg8qTU5ikWnhF/XWx93zJuMQyYDifE5DB99jwRGM88zn0nc8Z+0dwyAiIiIKlA5y9SwiIiIiapsObpyLvdlTse3lm7H7jQdw6tQpfQ4RERG1V5IFsYUQERERURu1M+tWDJrwHIbFr8boGZ9gxMNv4/O/3oGtW7eirq5OfxQRERG1RwyEiIiIiNogCYNuSdih3ctyKLen7EP55kfw4ZIIvPfbG5Cz8DpsWDIMmzJjcfLkSe0xnsg4VmEIs5VoZBTrszzOCwQv1p+baJofhmiHB8jyrvbJXb23WvKcEFFbJC03amtrWdpZqaioQFVVlf4qCA4GQkRERERtkBoWoGoZUF7uVNJxV1oRYp4+iHt/dQRxC45iYtpenD26E6tWrcKhQ4f0NbgzFulFMr6eBUXpQOqjGbBnHJ7mBYKH9UsYFFdom2+xFCE+O8IpFGouLXlOiKitqa+vxxVXXIFevXqxtKPSvXt39dwHk9tAaM2bWThz8ougFWObzS3Ur0zDK4xRW8LXMzUHvq4omOQvdea/1jlPB4N079q8ebM+5T31pbKsDDh/AfmvvupY/hClyqYXbsIHi8OxYdEAdOnSBYPLX8DeVd/D4cOH9bV4Fp6yAAkF2XjXRcLhaV4gOK6/GBkLs5CQk48U26Dr4Uh5TRKYJcjVa4KhJc8JEbUNEiB36tTJ1LqQpT0Uec6DjS2EiIiIiEJYdXU1tm3bhry8PL3GOyoQKi9H/lurET270GW546nPcfecYkycdxiTHk/Afc8cQ8m5EqxZs0ZfSzOQljzRAW4lU/wusgsSMDlWnzaE34f4sYX4wq+NOXcla2rXMiIiotDCQIiIiIgohI0fPx4jRozA7t27fQqFjBZCXbt21aYcxxFyVaoPHVS3Mtj0kSNHtPuNK85YiKyx8bjP1irHztM8m+IMRLv4K2miF016Gqx/7BBE6HcdFWB/kX5Xu58a4by9OHUGAqXJ54SIiChIGAgRERERhbiYmBifQyF1FbGqKtX1QJGubh5KZWWlepgESbZlXLKHKhGpUcjJT4E93/A0TxebCYtRH56CfG1bsj1zyXRu6WPjYf0F+2HLfRyMxRBbUmQfz8decpCgz23IHCB5Co6aeE6IyEd5SOnZEz1tJQbLJdM2y0sxze+JGIcHyPIulnGuN63DcXmitoGBEBEREVErMGHCBPTu3VuFQidOnNBrHSUlJdlujYEpa2pq1K0aT8hDMQdCnplDlUw4Zjee5gWCm/WrrmFZWOfcskh1JYvCYL8TGPP2PAVHLXlOiNqrUVi0qwQlJSXYtQiYl7gctshGgpype23zS0p2YcrakT6GOnlImQqsVsuvxrB5iS4CpBBhusLiuKWmfq2Bqjfjtqyasq0Q0moCoWun/I/PhYiIiKit2LhxI86cOaNaCvXr10+vdbRs2TLbrWohpLEFQg2uNuZY5HK3ovFAqInky7IxhlATuow5CkfKggRkxSWaBpDORWJEKpCexhCGqI0bNHMOpm9fi/dUYHMQyxevwPTVeZg5SM3WDMLMTEmNlsHrjrd567Fi+iTEqIkYJGmLr7VuIMRon3VxQI4eXA9PmQZrDhGoejNuq+nbCi3NEgj1ufom/V5gbfrfh2zl3y/8BFsyfoqCZY9i20uPYecfH8fuP83Anr88iX0rk/UliIiIiFo/6SYmLYMkDJLuY94wAiEZlFpx0SrIXIwWQtKSRUKZoPC5y5gH0hUtB4izBUvqWzny7ZcdI6L24OB7WLt9OiY5f1QOuhdTRu1FkZeZzsGivRgVeaM+pS0eMQzbD3ypT4WQ3HXISpisB9+xSMsAstcXB67ejNtq+rZCTLO1EGquUEh06NBBLx3RsWMnrXRUl2iTW6mTeQERks3DcpGob8NaxjVMHU370XBfZHkXyzjXN9uxyHaMv945H4u5uNpHq+Kl4xCm/nTo3/INuDjW3MTmfA6JiKi1kH8bnLmqa05yyXlfwyAR8eMPkZOTg4u1F/GPZ57B2r/9DW+9/jreXLkSb7z6Kl7/05+wMjMTf3n5Zfz5pZdQUFCArMREvHNsEvr27auvxVksMi3mS7ubeZpnYh5DyCderF/W7TZYcre8t/W+Li88zSOiQDm4fDFWjJqCe40WQaMiYY9yzLbDnulsx7yR9jGGrGUqVuhzW4viA3sQPdQ+pH545HDk7ysKWL0Zt9X0bYWa5usyZmmeUMibMEhumy43hJuHRSND74telAGkTFtqv3SrhBtxe2zzLZYixGdH+BhutMyx2IuHPvrFSzEtOx5Ftm94Pi7fgOtjjc2U89acx01ERK2Bqz8yBewPT16Sq4SNHj3apzBIDBgwAL3veQufdpiBjeem4sPSh7Cp7GF8VPkzFNRMx9bax7DD8jh2hSXi044z8FnnWSjs8iTGjBnj87aIiILPHuiMnDcMq/NmwtZDbPsBuG7LMwr2Rj/2MYjsZTWm63OJ2oMmfaORwMdVsQlwKORtGBSQL2qtpHlYePJ8JORnw7qpYix9NgsJOVuQbPtLVDiSV0pqtARed8cP4aZuxeuzgfhJgbs6h9tj1c7b/OHaafN5EAMiImpDOnfurL5n9OrVSxW5L3XBdNttt6lLz/tDlp05cybmzp2LtLQ0PPXUU0hOTsbs2bNVvdzKtNTLfHmc1MtyREShzRzoZOhj/WhU17AVWO88WJDqSjYMEbbUyDPnLmLOXciI2oKmJydyVVJXxaDdD1Qo5G0YFIhAqFU2Dytej+z8BEy2pht24ZMQH70HB7zMdLw6FmmJNM7UMikoimHNgwLX7trjsUYMRfSeA0E+RiIiCjUSAP3kJz9RJdhhUCBIkNW/f39cf/31GDhwIMLDwxEZGYkhQ4aoW5mWepkvj5PHExG1XoMwc850rJiaYhpAOg8pI+cBi5LswVFjbozEqBXr9XXkYZm2+BRbn7TQ4fxbzfh9E6h6M26r6dsKNcFp8xygUMjbMCgQgVBrUbz0WWRFx8OWkUQPheuXXD7sr818pEQ4j7kThyx9rs+Kl2Kcw7qsxe0VQtzuY2OKsC9/OCJ9yYN83Tez8EgMz9+nbZWIiIiIiFqNmAyUrAammsYGwuoS5NkvO9a4QTORZ1uHLG++alkIkT9iZ63Te4PkYkmK/gf0QNWbcVtN31aICV5yEoBQyNswqO0HQvZAJyJlOHK2JNu7ULkNMKJhDyebOu6ORgZtNLYbnowtDuuyFtdXCInA0OH63WDwad+cafvqQ8sqIiKi5paUlKTfIyJqz2KQUdJIQCOhkGl8oAyHpkHulneqN63DcfkQIr93bFdYlMFR9eFDAlVvxm01fVshJnjJSRhw+tvP9Qn/eBsGhYU1/bBCu3mYOdDJ1Me/0aiuYVlYZ40k7VRXMu9b1jTvsYQjOdMUYLUwz8fqR4skIiKiZrRs2TL9HhERkc50hUWHP3wHqt6M27JqyrZCSHACoQCEQSJYYZASsOZhuW4u894cZCDkBGTFGZd1F9r2I7SdyUizB0eN8aapm3kMIZ+6Zcn5MO+fL/xosdPYvnk61uID2ON39zYiIqLQcHDjXOzNnoptL9+M3W88gFOnTulziIiIqD1renoS5qYYtPuBCINE0MIg0Vqbh0kiadsPY18s2OLLzvh6LPJ4PQU1l8AnouGYFO/jFc8a2zdPx1q0D/nDI0OmNRMREZGvdmbdikETnsOw+NUYPeMTjHj4bXz+1zuwdetW1NXV6Y8iIiKi9qhJCYoEPa6KTQDDIBG0MMgQkOZhsci0BDIc8mJ9pv1osI9ul3eqd3eMBplvHrvIa7Ido5ubl/tiEm5NhPQrf/m+vEsuj1Uu4b8HGWmuDp6IiCj0SRh0S8IO7Z5cNsJebk/Zh/LNj+DDJRF477c3IGfhddiwZBg2af8Injx5UnuMJ9LSNxoZtr/NeJp2nmeVmyh/hPH8GPf1ocTTsQvztOvjCc1zIduT/TKKedue5hERUWvTDCmKLsBhkBg6bSlu+lk6In/6vwj/yWIMeuh5DJi6CNc/+Cyue+A3DoXaqPBkrIzPRoRXlwnzX25iBFKGz/c+VCIiIgox8ocOVC0DysudSjruSitCzNMHce+vjiBuwVFMTNuLs0d3YtWqVTh06JC+hmZQnIGFfl/WtI0J6XMxFun6eJVF6UDqoxn6H+OEp3lERNSaNFsgFOgw6Ou1v/a5UNsUnrwFFpfNlgInNlP7otPM2yAiIvKGdO/avHmzPuW9+vp6oKwMOH8B+a++6lj+EKXKphduwgeLw7Fh0QB06dIFg8tfwN5V38Phw4f1tQRSMTIeTUVUjo9XNm2TWs+5CE9ZgISCbLzrIvXxNI+IiEJfswRCgQ6DiIiIiNqr6upqbNu2DXl5eXqNd1QgVF6O/LdWI3p2octyx1Of4+45xZg47zAmPZ6A+545hpJzJVizZo2+lgDKXYLUqBzXXdE9cuqmFG20SGmsi1UxMqLDEG08QC6IYVvWxF19cwroufDyOBucL3fnj4hCgbTWNIa1YGkf5fjx4+qzPZjCnn/+ecsTTzyhTwLLXl6BBU8nY82bWbjz+3fotc2vd9/BapsPPsS/GREREVHwlZaW6vf806NHDyx8fimSZkzXazwzvnN5Q8Kg3bt3Y8SIEYiJidFrPZMWQNF33YWdW7bgloTGv19V5+eja3Q0ViYlYScS3FziXkKEhRhSlI8U1a3a07S39+PU6EYNSdckV49fh8lqPEJzvb6I4urxk7HOtpwTCVAWDkFRfgrCizMQHZGKAn2WISHH1ZiKztv3NO3t/aaci0aOs9H9NTjWF2dEIyI73np+PM6jtsDT5+BLL72kbmfNmqVuXfH2c/D06dPo06ePPkXOJNB//fXXm/zvErUu8v555JFH1BjJ/vLlvbVF+37AQIiIiIhIE8qBkPA1FPp3xlDcfvvt2LFjB25NTASqqvQ5rpVoXwx73n03/vLkk9gVlog//OEP+hyzxkIF87T9/uAlYVg4pAj56kGuH2Nd3uD8GHtQYg9nHOuFdZ7TOiXwictyE+o0hfO+e5q232+ec6Fp9Dgdl7UygiZ9UnF+XAJybAGTp3nUFjAQImrdfA2Emm9QaSIiIiIKmAkTJqB3794qFDpx4oRe6ygpKcl2q7qMaWpqatStGk/IQ6msrFQPM5YLmKIMLCxMx2uOqYOPjIGMizBkobmbk32AY0tOArIWBrnrl6+a9Vx4w3S+LJ7GLzI/zjnw8TSPiIhaEwZCRERERK3Axo0bcebMGdVCqF+/fnqtI6Obl9zW1dWp+7ZAqMHVxhxLRUWFelhgA6ECpMalImpBILsUFWB/kX63UblIjANyLDlAXKI25YJ5zB3pMmYeo0cvgbm4aXOeCy+Ok4iIyEnIdRkrvfIBvYaIiIgoOB67p0+bG0Mo7/lB6rEbNmzAxHnzgL179Tmu7dmxA8OnTUNWYiL2dJ3tYQwh525HzqQFial7U0KO05U7pd7/blKwrc+p3mG7suxrwKMRyI63ds9yO96NeQwhvco7ztt3JRjnIgIZ0V4cp8N6XE0b3NULT/OoLWCXMaLWrdWPIcRAiIiIiIItlAMhueS8XGXMlzBIyKXj9626HfWWetTV1qmWP9JqyCjGtNwaRboBvXNsEsaMGYP58+frayKi9oKBEFHrxjGEiIiIiNqQrl27YvTo0T6FQWLAgAHofc9b+LTDDGw8NxUflj6ETWUP46PKn6GgZjq21j6GHZbH1QDSn3acgc86z0JhlydVGOTrtoiIKHAknK+trWVpZ0W6blc1cgGIQGMLISIiImr3Qr3LWFOcPXtWfcGUL5vOrYM6duyoLm8rt1I6deqESy65BL169dKXJqL2hC2EQoN8Pnfv3l19JlP7UV5ejgsXLqBbt256je/YQoiIiIiIbCTc6d+/P66//noMHDgQ4eHhiIyMxJAhQ9StTEu9zJfHMQwiImpZ0kJIwiDnAe5Z2nZpiQCQgRARERERERERUTvDQIiIiIiolUhKStLvEREREflPWqIxEPJk2y/x84lXqfLc2oN6pcZdvVDzfolCfTL4PsBKfd8aljjkHQO+XRuHny/9QH+8Tvbboe4g8lJNy6Zm4luttnCpqc5UbOfBdG4c6omIiKjJXF8KnoiovclDSs+e6GkrMVju/LMjL8U0vydiHB4gy7tYxlW9Wk+KNoeo7WEg5NYHWLkASNlwCn/e8Hf0/+OTKkxxX68HKAXAeJlsUaPw41dl/8zl77b9unrKLzE+5/f6fgtt3/+2Hz/+0d3WyWOZeG7ibTj+E9Py/wV8tg2ISjavz76duVMGWcOgBdp6bNveils338ZQiIiIqAUd3DgXe7OnYtvLN2P3Gw/g1KlT+hwiotZsFBbtKkFJSQl2LQLmJS7XftXoJMSZutc2v6RkF6asHekUCjXmIJbH9ETP9YB3lwpoQbmJtnFoxi0t1is1gao347asmrKtEMJAyJ1tOdgcF4coNXE37n0C2LFN+wBxV49BiEk/hT8nx6k5wVS41Nryx3vm/dYcy8MO/BDfvUYmDiLvf+ej/8JTmDZazbW6JhEx5ukGJFR6DeMX5iBGrUdo5+S/ngX++JLeYkpCs5ZsPUVERNS+7My6FYMmPIdh8asxesYnGPHw2/j8r3dg69at6io2RERtwaCZczB9+1q8p37eHMTyxSswfXUeZg5SszWDMDNTUqNlPrT00ZbJK0FJxiR9OlTlIlH7CZpjscBiycHwlGmw5hCBqjfjtpq+rdDCQMiNb4/tR/j1A/Up4OprhqD4q0Nu61uE3j1r11hzCOMdaSXUXw9qvt32D/T/SSKulhkSDu17FCM9hj8uuFvumhjcOnQ/vlGBlYRmcdgl3cmcu6wRERFRQEkYdEvCDu1elkO5PWUfyjc/gg+XROC9396AnIXXYcOSYdiUGYuTJ09qj/FE+7Kr/+XTWqKRYfuy62leIMj6nbfnbtp5nlVuonm/XD/GfX1zke25O2+e5hGRSwffw9rt0zEpRp82DLoXU0btRZEvjYRag9x1yEqYjFg1EYu0DCB7vfZBEah6M26r6dsKMQyEWiPVpUu6p8WprlkOLXm8djdGxr2GXds+wHt/HOIY5AyNRF/9rk/cLrcdx20tmO7GNOlONjZHhVkrt+nVREREFFAyWCSqlgHl5U4lHXelFSHm6YO491dHELfgKCam7cXZozuxatUqHDrU2B+6xiK9SP76aUFROpD6aAbsX3c9zWthxRlYKJlYSGql55QoRBxcvhgrRk3BvUaLoFGRuFG/62g7Dnyp39XuzxtpH2PIWqZihT63tSg+sAfRQyP0KSA8cjjy9xUFrN6M22r6tkINA6FWqPCt+doXgVH2MX/8FPWjZ3F8wY9x/IlZehc43b4DaOzvgy65XW4U+ju3YBo9Cz8eCmxewC5kREREnkj3rs2bN+tT3quvrwfKyoDzF5D/6quO5Q9Rqmx64SZ8sDgcGxYNQJcuXTC4/AXsXfU9HD58WF+LZ+EpC5BQkI13XSQUnuYFXzEyHk1FVE4OEvSaUNV6zilRS7MHOiPnDcPqvJmw9RDbfgC23MfBKETakiL7GET2sjr0xwsiCiAGQm44dwUzuoq5qw8m68DOLwL/K1fyakKgorpzjcKto20fnXqdtBzSp73lbjnVlWwIvmMLhPTBtyc+CfyXHMfvHcMoIiIiclBdXY1t27YhL8+3a9yoQKi8HPlvrUb07EKX5Y6nPsfdc4oxcd5hTHo8Afc9cwwl50qwZs0afS3NQAbcjA5yK5fcJUiNykGmtR2/D5y6bKn9LkZGdBiijb5bbo/HuetZsLuiEbV15kAnA7YeYqpr2Aqsd/7IVF3JhiHC9NOHqL1jIOTONZEIz8nRwxbpVgVrcOKu3i25DLyvgz57Qx/EeoOMyePf+r9d+yT+PuCXTuMPaev9yaPYvMCpO9exTOR5DImM5cwBlXbsj80HbC2QJAwygiDfxz0iIiJqj8aPH48RI0Zg9+7dPoVCRguhrl27alOO4wi5KtWHZGCNLDXY9JEjR7T7jSvOWIissfG4L1yvMPE0z6Y4A9HmwEUvibn6/IDIRWJcIdLTXKVBBUiNcN5+nDojdkaXrRwkFOxHEcKRkp+DqNQl2ppl3UBOfopWGxhNPqdE7d4gzJwzHSummi8Vn4eUkfOARUn24KiNcO6WZHRbClS9GbfV9G2FGgZC7lyTiLkLgQwZq2fijwHj6lnu6luMjMnj2z58uzZOjd8zb/MPsSjZRbez0b/Hn1+V7mRyjHr5X+C7jY1VJMvZzo1xfvRL0isSYjEIIiIi8lVMTIzPoZC6ilhVlRp7RtHueyqVlZXqYRIk2ZZxyR6iRKRGOYUhnubpYjNhMerDU5CvbUu2Zy6+t+RxLzcxDoXpryHFZYhiH5/HXpy7lRnHJMlPpm2w0MwcIM6hzhVz4OQcNJk18ZwSkaOYDJSsBqaaxgbC6hLk2S871nZEDEV01jpYc/RcLEkB4idpnxKBqjfjtpq+rRDDQMgTCThkAGTngZvd1SsS0Ji7Qfke2DSNu+3Z66+ekmPd/3T9ymKuSPClH6Prx7rZjuncSPFvwGsiIiJyNmHCBPTu3VuFQidOnNBrHSUlJdluVQshTU1NjbpV4wl5KOZAyDNziOIchnia1wKKMrCwMB2vuU6DvGQcUxGGLPS1y5f5fHgav6gVnVOikBCDjBLzZeVdkFDIND5QhkPTIHfLu6qXOlOXtFATnowtKqA2gustSJaPvEDVm3FbTd9WiGEgRERERNQKbNy4EWfOnFEthfr166fXOlq2bJntVrUQ0tgCoQZXG3MsFRUV6mGNB0JNZB5zp1m7jBUgNS4VUQsC2aKmAPtVbwC9q5hFvvkn6n8NJiJqIdLyUoXGTi0sA1Vvxm1ZNWVbIYSBEBEREVGIk25i0jJIwiDpPuYNIxCSQakVF62CzMVoISRfYiWUCQqfu4w5d8FqpEtWgj8DSTszthGhD0wtg0pLN7Q0xGr/paUXIi7Yg2QTEREFQNjzzz9veeKJJ/RJYNnLK7Dg6WSseTMLd37/Dr22+fXuO1hts/TKB/QaIiIiouB47J4+KC0t1af806NHDyx8fimSZnh30WLjO1dj5JLzcpUxX8IgIZeO37fqdtRb6lFXW6da/khIZBRjWm6NImHMO8cmYcyYMZg/f76+JiJqLzx9Dr700kvqdtasWerWFW8/B0+fPo0+ffroU+SstrYWvXr1UmE3tR9VVVU4d+4cunXrptf4zpf31kcffcQWQkREREShTK4SNnr0aJ/CIDFgwAD0vuctfNphBjaem4oPSx/CprKH8VHlz1BQMx1bax/DDsvj2BWWiE87zsBnnWehsMuTKgzydVtERETU+jAQIiIiIgpht912m7r0vD9k2ZkzZ2Lu3LlIS0vDU089heTkZMyePVvVy61MS73Ml8dJvSxHREREbRsDISIiIqI2TLod9O/fH9dffz0GDhyI8PBwREZGYsiQIepWpqVe5svj5PFERETU9jEQIiIiIiIiIgohhw4dajDgPkvbLsePHw/6uFEhN6j0gw8l6DVEREREwROqg0qbJSUl2S4tT0QUaBxUOjTIIP+vv/56k/9dotZF3j+PPPIIOnTwv92Or4NKMxAiIiIi0rSGQIiIqDkxECJq3XiVMSIiIiKyObhxLvZmT8W2l2/G7jcewKlTp/Q5RERE1J4xECIiIiJqo3Zm3YpBE57DsPjVGD3jE4x4+G18/tc7sHXrVtTV1emPIiIiovaIgRARERFRGyRh0C0JO7R7WQ7l9pR9KN/8CD5cEoH3fnsDchZehw1LhmFTZixOnjypPcaTXCSGhalBL60lGhnF+iyP8wJB1u+8PXfTzvOschPN++X6Me7rm4tsz91583ceERFR4xgIEREREbVBcsUSVC0DysudSjruSitCzNMHce+vjiBuwVFMTNuLs0d3YtWqVerKNp6NRXqR9YooRelA6qMZsOcQnua1sOIMLJRMLCT5e05D+HwTEVHIYyBEREREFMKke9fmzZv1Ke/JVWpQVgacv4D8V191LH+IUmXTCzfhg8Xh2LBoALp06YLB5S9g76rv4fDhw/paPAtPWYCEgmy86yKF8DQv+IqR8WgqonJyEOqXL/H3nIbW+SaippCQt7a2lqWdlYqKClRVVemvguBgIORJbqKtGe64paZ/Xd3UW5shu3h8UDk3HzaXcZDdKl46DmGJufrjdXJMDnXFWDrOtOy4peovTuZjNBfb8ZrOjUM9ERER+aW6uhrbtm1DXl6eXuMdFQiVlyP/rdWInl3ostzx1Oe4e04xJs47jEmPJ+C+Z46h5FwJ1qxZo6+lGch3heggt2TJXYLUqBxkxurTXnP6XqX2uxgZ0WGINvpnuT0eWda5ixe7dRFR4+Tz+4orrkCvXr1Y2lHp3r279d/uIGIg5Jb2j3YckGORZrg5GJ4yTYUpbuuLl+LAZGuTXcfHtwTty4befNhe7H8RC0+ej4SsZ037V4ylz+5BRpr+LUk7lnFhEdg337T8SmB9LhCbaV6ffTtbksOtX4jitPXYtl2E+OwIhkJERERNMH78eIwYMQK7d+/2KRQyWgh17dpVm3IcR8hVqT50UN3KYNNHjhzR7jeuOGMhssbG4z7ta4AzT/NsijMQbQ5c9OL8d6umke9uhUg3vuc4KEBqhPP249QZsTO6ZWnffQr2owjhSMnPQVTqEm3N+vfC/BStNjD8PadenW8iahXkt1SnTp2cPptY2nqR5zzYGAi5k7sOWQmTYf3qEIu0DCB7fbH7+vBkJNu+Z0RgaLR+NwhyE60tf7xn2m9RvB7ZiMck9QWiGEunpWB4jsXxr2gOx+eKhEpZSMjZAsmGrMKRvFLbUIp8YRLS6ihRv09ERETeiomJ8TkUUlcRq6pSPywUaYbuoVRWVqqHSZBkW8Yle4gSkRrlFIZ4mqeLzYTFqA9PQb76I5Jj8b0lj3u5iXEoTH8NKQ12RNjH4LEX525lxjFJ8pNp+w6YmQPEOdS5Yg6cnIMmM3/PqRfnm4iIyA0GQm4UH9iD6KER+pT2fSVyOPL3Fbmtd1SEffnDEdnc/yLr3bPWTTaHMN6RVkLD9aCmeH02hs9Ptn6BkHAoPwGTff0i5m658EmIj96DAyp7CkfylslYJ1+KAvunPyIiojZvwoQJ6N27twqFTpw4odc6SkpKst0azc5ramrUrRpPyEMxB0KemUMU5zDE07wWUJSBhYXpeM11GuQl45iKMGShr12+zOfD0/hF/p7TEDvfRETUqjAQagbyl6g9GWnN94+y6tIVhrB1k9UXAP/+ihaLyQlZWJebiyUpwx2DnOihsEdePnC7XD7smVksMuVLy+R1kDCLuRAREZF3Nm7ciDNnzqiWQv369dNrHS1btsx2q1oIaWyBUIOrjTkWGcxSNPv4BeYxd5q1y1gBUuNSEbUgkK1mCrBffacxhhCQZkJs/UwUfHlI6dkTPW0lBsul16tZXoppfk/EODxAlnexjFN9Xoq75YnaBgZCAWUdiPnZoUXWMXWaSe6SFOTL+D0u+8J7LzYtA3viXIRX+fvg3ObJK26Xi4apUZVVbBoyooEsfokiIiJqlHQTk5ZBEgZJ9zFvGIGQDEqtuGgVZC5GCyH5Y5OEMkHhc5cx5y5YztNOEvwZSNqZsY0IfWBqGVRauqHJ96dYpKUXIi7Yg2QTkWYUFu0qQUlJCXYtAuYlLoctspEwaOpe2/ySkl2Ysnakb6HOweUommQsvxrD5iW6CJBChN5zRIrD+K2Bqjfjtqyasq0QwkDIDeeuYEZXMXf11jBoGrBSH2C5GVkHdl4JTJMXWhMCFdWdKxrx1sGDrFSdtBzSp73lbjnVlczcfc4amoWFWc8VmzcTERF5Jpec9zUMEhE//hA5OTm4WHsR/3jmGaz929/w1uuv482VK/HGq6/i9T/9CSszM/GXl1/Gn196CQUFBchKTMQ7xyahb9+++lqcSUvffDfj8XiaZ2IeQ8gneitjj8XYvv7YBmmQeR/d7a/zY0zrV+uTQaUtyNcXDE/Jd3M8zuv3ZnvO/J1H1L4MmjkH07evxXsqsDmI5YtXYPrqPMwcpGZrBmFmpqRGy+D10PyDZmKm7SP3RkSO0u+GHB8vhuRzvRm31fRthRYGQu5EDEV01jrtKRXSrQrW4MRdfe4SpAyf72IsH+1FoV/uPbBkPB55ocmYPP6tv3jpNBf7rK13fgKy4pyaaxcvxVKPIZGxnDmg0o49QjtBthZI9tDMYvF93CMiIqL2SK4SNnr0aJ/CIDFgwAD0vuctfNphBjaem4oPSx/CprKH8VHlz1BQMx1bax/DDsvj2BWWiE87zsBnnWehsMuTGDNmjM/bIiIKGQffw9rt0zHJ+WNs0L2YMmovivxq5fMlDmwfhghbwBRCfL0Ykq/1ZtxW07cVYhgIuROejC3q6hHSmkViPj3AcFMvLYWQFaeahgW3iZj8dci3cKV46Ti1fxHZ8Shy1Y5a/nJXJN3J7MciDXomuXioA1nOdm6kqHjU1GJKQiwGQURERL647bbb1KXn/SHLzpw5E3PnzkVaWhqeeuopJCcnY/bs2apebmVa6mW+PE7qZTkiotbi4PLFWDFqCu41AptRkbhRv+toOw58qd/V7s8baR8jyFqmYoU+1ywvZSr2LkpCKEblvl4Mydd6M26r6dsKNQyEPJGAQzX3curL7qI+PHmLrc4o1iDE98Cmadxtz15v29ct+pXFXJHgy3w8DR7rZjumcyPFVd5EREREwdOrVy/0798f119/PQYOHIjw8HBERkZiyJAh6lampV7my+Pk8UREoc8e6IycNwyr82bC1oBn+wHYch8HoxBpS4rsYxDZy2pM1+daHcTymJ5YHLkLefb+Z0RtRgf50U5ERERERETUepgDnQx76x3VNWwF1jsPFqS6kvnS7UvCoEQgs4RhELVJkgWxhRARERFRK5GUlKTfIyIi1wZh5pzpWDE1xTSAdB5SRs4DfOn2lbcM84bNMQ1MHZqcuyUZ3ZYCVW/GbTV9W6GGgRARERFRK7Fs2TL9HhERuRWTgZLVwFTT2EBY7VtLn4NFe4EVU/XlrcWny9YHi68XQ/K13ozbavq2QgwDISIiIqI27ODGudibPRXbXr4Zu994AKdOndLnEBG1VjHIKDFfVt4FCYVM4wNlODQNcre8vX7QzDyH5aWEZNcxHy+G5HO9GbfV9G2FmLDnnnvOMmPGDH0SWPbyCix4Ohlr3szCnd+/Q69tfr37DlbbfPChBL2GiIiIKHhKS0v1e/7p0aMHFj6/FEkzHIckdcf4ztWcdmbdilsSduhTVv/OGIouY/+CW2+9FR07dtRriYg8fw6+9NJL6nbWrFnq1hVvPwdPnz6NPn366FPkrLa2Vg3wL1dupvajqqoK586dQ7du3fQa3/ny3vr3v//NFkJEREREbZE9DMpyKLen7EP55kfw4ZIIvPfbG5Cz8DpsWDIMmzJjcfLkSe0xnuQiUf3l0yjRyCjWZ/k9LxBk/c7bczftPM8qN9G8X64f476+ucj23J03T/OIiIgax0CIiIiIqA1SV5KtWgaUlzuVdNyVVoSYpw/i3l8dQdyCo5iYthdnj+7EqlWrcOjQIX0N7oxFepFFrb8oHUh9NAP2HMLfeS2sOAMLJS8LSa30nBIRUcgLuS5jd93PLmNEREQUXFdeGrpdxrZu3Yrq6mqMHz9er/GOjBk0eupU4GIt8t9ardc6unjxouqaYBSL9p8Y/ugWDBgwQN13JK1SFmJIUT5S1LgI5ml/58l0UzW2fk/7UoyM6AjsXyADP7h7jMFdfXPx5TiCvW/UFrHLWGhgl7H2iV3GiIiIiMiBhEHbtm1DXp79AsreqK+vVy2CJAyKnl3ostzx1Oe4e04xJs47jEmPJ+C+Z46h5FwJ1qxZo68lyHITERYd5FYuuUuQGpWDzFh92msSwJi6bKn9lnApDNFG3y23xyPLOnf/YpcvIiIKLgZCRERERCFMWgaNGDECu3fv9ikUUoFQWRm6du2qTTmOI+SqVB+Syylnoa6uDkeOHNHuN644YyGyxsbjPhctUvydZ1OcgWhz4KKXROv1fAMkF4lxhUhPc5UGFSA1wnn7ceps2RldtnKQULAfRQhHSn4OolKXaGuWdQM5+SlabWA0+ZwSERGZMBAiIiIiCnExMTE+h0IS7KCqSo0vo2j3PZXKykr1MAmSbMu4ZA9KIlKjnAIPf+fpYjNhMerDU5Cv7Yfsi7n43pLHvdzEOBSmv+ami5V9fB57yYHj4AbGMUnykwnrrsUiU1122Fznijlwcg6azJp4TomoVZLx3Bw/f1jaejl+/Lj6PA8mjiFERERE7V4ojyFkkC+LK1aswJkzZ/DTn/4U/fr10+fYJSUlYdmyZer2wQHv44477kB+fj6iZ8+WgQX0R7l24uOP0e+++/DnmTPxaccZ+MMf/qDPMZOuTe7GqfF3XiA4r9/TtH4/Jx7ZC4HXbCGKi8c02F93j5GuYo/KyqyPl65icVlIyHEXYDmv35vt6VU2nuYR+YdjCIUGCeZff/31Jv+7RK2LvH8eeeQRdOjgf7sdX8cQYiBERERE7V5rCISkZZC0EJKWQtJiqDFyWfm77roL//rXv3DnL38JNNIN7MutW3FjfDxeeeIJfNZ5VssEQhKkLByCIglppMtYRCoK9FkG1yGL8/o9Tct9a4scx3U5P8bV/rp7jDEwtaxP6tdhsmUy1qlbV62EnNfvzfb0KhtP84j8w0CIqHXjoNJEREREbYyvYZBQXcY0Mii1UlbmsRhdxqQlUrCbrLvkc5cx5y5YjXTJSvBnIGlnxjYi9IGpJRiSbmhpiNX+S0svRFywB8kmIiLyElsIefJ+InpNtn59GLW4CBue1P/84rK+GH+8KwLzPlbVmLbOgvR7rPeDKxep3eKwUp9yFI1FhVswMXccbvl8Ps6+aPoWJMf0zmRTnePxYEwGdn6YjC+fDEP8q3qdie08mM6NcDhvREREISqUWwht3rxZXWXMlzBIHD58GPtW3Y56Sz3qautUFwQJiYxiTMutUSRweefYJIwZMwbz58/X10RE7QVbCBG1bmwhFDC5SJ0MZFdYcLYiB0PnTMMfv/RUX4Twp6VOK4UZ2Dc5ERulukVI8KPvi63kYJo+d+CT8zHt1Wf1/RbF+OPze7AoVQ+DvlyKid0i8IVxPFJeATa8D0x40bw++3bsYZC2Htu2izDl7QhMfJF/FyMiIvKXXCVs9OjRPoVBYsCAAeh9z1v4tMMMbDw3FR+WPoRNZQ/jo8qfoaBmOrbWPoYdlsexKyxRjRkk3cQKuzypwiBft0VEREStDwMhd95fh5WPTcYENRGLpMXA2txi9/Xa/QlGi6AbIzFUvxsMG58cZwp3vGHeb82X67EW8Zh4o0wU44+Pp2CocwunG5PxhMcWTxIqZWHaui14Qq1HhOOJVzKAOUv0cExaHbVkUEZERNT63HbbberS8/6QZWfOnIm5c+ciLS0NTz31FJKTkzF79mxVL7cyLfUyXx4n9bIcERERtW0dpGkwNXTowB6MuilCnwIGRg7H9s+L3NY7cAiNmpG0yOkWhvX3m0MY70groaF6UHMoNxtDn07GQJkh4dDHCZjka3c3d8vdOAlTxuxBsQqswvHEh5OxXtvnXk/mqtlERETUvHr16oX+/fvj+uuvx8CBAxEeHo7IyEgMGTJE3cq01Mt8eZw8noiIWo78Rq+trWVpZ6WiogJVVVX6q6D5yeuMLYQC6NCL41RA4zgWTzNQXbr07VT4O1ZRLCY9loX17+di2ZzhjkHOmKHwMV+ycrtcPr6wtWCKRbp0J7t/nTpXqe/r1URERERERKTGdLviiitUQM/Sfkr37t3Vcx9MDIQCaOCTW6xj56iww9duXN7bmJ6C7TJ+jzHmj58mpMpYR3HYtzjNsTXTx/vg1667XS4ag52TonvSsGgMsLJFx1oiIiJqXZKSkvR7RETUVknLjU6dOulXSWRpL0We82BjIOSGc1cwo6uYu3oH92Qi+zFzq5jAsg7svBJ4PAy9ujUhUFHduaIxJdZ0FTBVJy2H9GlvuVtOdSUbjnBbICTjCMl+TwNekePIbP6udURERG3EsmXL9HtERERETcNAyJ0bh2LUq+v0sEW6VcEanLirfz/XFMzkYv2rRqsYuQx8c7QWkvF4JFCRMXn8W/+hF6dh3tD5TuMPaet9OgErJzt15/pyKf7oMSQyljMHVNqxR6UAthZIEgYZQZDv4x4RERGR7w5unIu92VOx7eWbsfuNB3Dq1Cl9DhEREbVnDITcuTEZG9YB8TJWT7c4wLh6ltv6A1ii6pzqm52MyePbtoyxjm55Ox47XY11dE+mful843i08jgwsbGximQ527kxzoN+SXpFQiwGQURERMGyM+tWDJrwHIbFr8boGZ9gxMNv4/O/3oGtW7eirq5OfxQRUWuTh5SePdHTVmKw/KA+y5CXYprfEzEOD5DlXSzjUH8Qy2Psy6fkqQcQtSkMhDyRgEPGBHIeuNlVvQRFep3j430PbJrG3fbs9baxjj7UryzmitPxNHysm+2Yzo0U/wa8JiIioqaSMOiWhB3avSyHcnvKPpRvfgQfLonAe7+9ATkLr8OGJcOwKTMWJ0+e1B7jSS4SHcY8iEZGsT7L73mBIOt33p67aed5VrmJ5v1y/Rj39c1FtufuvPk7j6itGIVFu0pQUlKCXYuAeYnLYct3JAyautc2v6RkF6asHekUCjXmS0TM0ZfXNrB3agpCNhPKTbS938ctNb3ZA1Vvxm1ZNWVbIYSBEBEREVEbJIOSomoZUF7uVNJxV1oRYp4+iHt/dQRxC45iYtpenD26E6tWrcKhQ4f0NbgzFulFFrX+onQg9dEM2L/y+juvhRVnYKHkZSGpDZ5vogAbNHMOpm9fi/eMlj2LV2D66jzMHKRmawZhZqakRst8CHViEBOj3x0UgWH63dCTi8Q4IEd7r1ssORieMg3WHCJQ9WbcVtO3FVoYCBERERGFMOnetXnzZn3Ke+rStWVlwPkLyH/1VcfyhyhVNr1wEz5YHI4NiwagS5cuGFz+Avau+h4OHz6sr8Wz8JQFSCjIxrsuvvD6Oy/4ipHxaCqicnKQoNeEqrZxvoma2cH3sHb7dEwywhzDoHsxZdReFPnSSMiQtx4rpk+C8ypDQu46ZCVMhnUgkFikZQDZ67U3e6Dqzbitpm8rxDAQIiIiIgph1dXV2LZtG/LyfOusoAKh8nLkv7Ua0bMLXZY7nvocd88pxsR5hzHp8QTc98wxlJwrwZo1a/S1BJk0tY8OckuW3CVIjcpBpvUbvA9yHbtlqf0uRkZ0GKKN/lluj0eWde7ixW5dRP46uHwxVoyagnuNFkGjIuF6xI7tOGC7GM92zBtpHyPIWqZihT5XHFweY61fPwklGSEZB6H4wB5ED7Vf9To8cjjy9xUFrN6M22r6tkINAyEiIiKiEDZ+/HiMGDECu3fv9ikUMloIde3aVZtyHEfIVak+JH82z1KDTR85ckS737jijIXIGhuP+4zrR5j4O8+mOAPR5sBFL4m5+vyAkOb9hUhPc5UGFSA1wnn7ceps2RndsnKQULAfRQhHSn4OolKXaGvWuw7kp2i1gdGs55uo1bEHOiPnDcPqvJmw9RDbfgCuL8I8CpG2pMg+BpG9rMZ0fa4YNDPPWj9pvbYdV4NQE7VelTV1DISIiIiIQl1MTIzPoZC6ilhVFWQMGUW776lUVlaqh0mQZFvGJXtQEpEa5RR4+DtPF5sJi1EfnoJ8NQ6DY/G9JY97uYlxKEx/DSkugxL7GDz24tytzDgmSX4ybd0EMnOAOIc6V8yBk3PQZNaM55uoVTMHOhn27lyqa9gKrHf+qFRdyYYhwpYa+SAmA6unm1sXEbUNDISIiIiIWoEJEyagd+/eKhQ6ceKEXusoKSnJdqtaCGlqamrUrRpPyEMxB0KemYMS58DD33ktoCgDCwvT8ZrrNMhLxjEVYchCX7t8mc+Hp/GL2sj5JgqaQZg5ZzpWOFwVLA8pI+cBi5K8HwcoL89h+fUrzK2LQodztySj21Kg6s24raZvK9QwECIiIiJqBTZu3IgzZ86olkL9+vXTax0tW7bMdqtaCGlsgVCDq405loqKCvWwxgOhZmQec6dZu4wVIDUuFVELAtlqpgD71e8AvauYRZoJJWpTRBR0MRkoWQ1MNY0NhNUlyLNfdqxxNxZhscPy5quWhZCIoYjOWqd/1uRiSQoQP0n7ZAtUvRm31fRthZiwRYsWWWbOnKlPal8gXl6BBU8nY82bWbjz+3fotc2vd9/BapsPPhTq13cgIiKitqi0tFS/558ePXpg4fNLkTTDPAKFe8Z3Lm9INzFpGSRhkHQf80be84PUYzds2ICJ8+YBe/fqc1zbs2MHhk+bhqzEROzpOtsWLjmSwY8XYkhRvotuVv7OM5FAaOEQFPncvUnW76nblZAWM7J9/bEJObA49D8z76O7/XV+jGmban0RyIiOQHZ8EfK1BYszohGRHe/ieJzX78329Cobf+cRuefpc/Cll15St7NmzVK3rnj7OXj69Gn06dNHnyJntbW16NWrlwrBvSKfnXHWT6OEHFPX2kDVm3FbVk3ZlhtVVVU4d+4cunXrptf4zpf31oaN/2QgRERERCRCNRCSS87LVcZ8CYOEXDp+36rbUW+pR11tnWr5I62GjGJMy61RpHvRO8cmYcyYMZg/f76+JiJqLxgIhQafAyFqE1oiEGKXMSIiIqIQJlcJGz16tE9hkBgwYAB63/MWPu0wAxvPTcWHpQ9hU9nD+KjyZyiomY6ttY9hh+Vx7ApLxKcdZ+CzzrNQ2OVJFQb5ui0iIiJqfRgIEREREYWw2267TV163h+yrLQEnzt3LtLS0vDUU08hOTkZs2fPVvVyK9NSL/PlcVIvyxEREVHbxkCIiIiIqA2Tbgf9+/fH9ddfj4EDByI8PByRkZEYMmSIupVpqZf58jh5PBEREbV9DISIiIiIiIiIiNoZBkJERERErURSUpJ+j4iIiKhpGAh5IpeMCwtTZdzSYr1S465eV7x0HMLGLUXDOcEglxm17lvDMg6yu2r/EnP1x+vkmBzqirF0nGlZ/XhyE011pmI7D6Zz41BPRERETeb6UvBERNTWHDp0SF35kaX9lOPHj6vf0MHEy867JcHKOky2ZCJW3X8WQ4u2IDncXb2+mKqLQ1Z0Boq2JMNWHTSu9kk4H4P5MRL+TANW6tPFSzEuIgXDcyzIjJX51rqlRclINqZdbUfCoLg9yHBYbwSy44uwxXFniIiIQk6oXna+qQ5unIvKs8UoP1OMrj0Gon9MJq666ip9LhGRHS87Hxrq6+vx+uuvN/nfJWpd5P3zyCOPoEMH/9vt+HrZeQZC7ki4sW4yLHoiIq1qpmEltkQucV2vBx4yvQTx2JMt+UpwAqHcxHE4kGaEMN4EQk77LQGQyoNkf60hzr75pjDIJVehkovlVLi0D/NVgCaPWYLILXKfiIgotLTFQGhn1q24JWGHPmX174yh6DL2L7j11lvRsWNHvZaIiIEQUWvnayDELmNuFB/Yg+ihEfoUEB45HPn7itzWK8VLMW3ffGROsk42O7171rrJzuFP48KT52N4yhJIJ7Hi9dkYPl8Pr4rXIzs/AZN9TWzcLRc+CfHRe3BA9RwLR/KWyVgn3cmcu6wRERFRQNnDoCyHcnvKPpRvfgQfLonAe7+9ATkLr8OGJcOwKTMWJ0+e1B7jifxBKBoZth7hnqad51lZu597foz7+lDi6diFedr18YTmuZDt2bv/2/dP+DuPiIhCEQOhgCnG0mnZiE8LQtsXaXUj/9BKSyVLYy153InF5IQsrMvNxZKU4Y5BTvRQ2CMvH7hdLh9GZibbzZQ+kpPXqS8LzIWIiIiah3xHQNUyoLzcqaTjrrQixDx9EPf+6gjiFhzFxLS9OHt0J1atWqXGrWg2xRlYKLkUhfi5GIv0IuuYFkXpQOqjGdo3XYO/84iIKNQwEAqQ4qXTkB2/0ueWOv7IXZKCfEQjo4nhU2xaBvbExWFPRppjF678fbDlN75wu1w0TI2qrGLTkBENZMUlgpkQERGRe1u3bsXmzZv1Ke/JGBQoKwPOX0D+q686lj9EqbLphZvwweJwbFg0AF26dMHg8hewd9X3cPjwYX0tgVSMjEdTEZWTg1AZMbLltJ5zEZ6yAAkF2XjXRbLj7zwiIgoNDITccOgKpjG6irmuP4AlKfnIT4mwNpGNSEF+fgoimulKY7GZ8peXlcA0aY7bhEBFdeeKRvwkU4ql6qTlkD7tLXfLqa5kwxFp24SMIyT7LYMWyXFwPCEiIiJPqqursW3bNuTl5ek13lGBUHk58t9ajejZhS7LHU99jrvnFGPivMOY9HgC7nvmGErOlWDNmjX6WgIodwlSo3L8aNns1BUp2mh14q4rlVFfjIzoMEQbD5Cu9rZlTdzVN6eAngsvj7PB+XJ3/oiIqL1gIOROxFBEZ63T/qkU0q0K1uDEZX2ytRuUUYoyEK39Q2y9ypj8Y2u93HtgyXg8sj0Zk8e/9UurppTh851aNWnrnZ+ArDin7lxylTGPIZGxnDmg0o49QjtBthZIEgYZQZDv4x4RERG1R+PHj8eIESOwe/dun0Iho4VQ165dtSnHcYRclepDB9VtXV0djhw5ot0PJO07QVwh0l22bi5AaoQp5FAlTu2VndEVKQcJBfu9bMkcjpT8HESlypiJsn0gJz9Fq/WgWPsO57Af1hLYLu6BPhd+HKcPijMWImtsPO5zsUJ/5xGRZ/Kbsra2lqWdlYqKClRVVemvguBgIOROeDK25ABx+j/EyNEDDHf1LUbG5PFtH+QKY/IFIyI7HkWu/jQVm6lCrT1xpi8j04BJjf0VS5aznRvj/FhMl5yXEItBEBERka9iYmJ8DoUk2NG+WaofFop8yfRQKisr1cMkSLItEyC5iXEoTH8NKS6/A9jHnbEX565URlAi3y3MrYsdA5SGwY32PUl9N3FezkS+vxgBSngK8h32w1r8G6/RteY5F14cp2I+X85Bk5n9cRGpUU4Bk7/ziMhb8jl8xRVXoFevXiztqHTv3t36x5wgYiDkiXxBcPVFwF29QUIj2yXnfQ9smsbd9uz14clbrPvv6bL4cgz6Mbp+rJvtmM6NlEB+gSIiImrPJkyYgN69e6tQ6MSJE3qto6SkJNut8aWypqZG3arxhDwUcyAUUEUZWFiYjtdcJyBeMoKSIgxZaO7mZApQchKQtTDIXb981aznwhvmwMnT+EXmxzkHTP7OIyJvyXuoU6dOsIa3LO2lyHMeTJd26chAiIiIiKg12LhxI86cOaNaCvXr10+vdbRs2TLbrWohpLEFQg2uNuZYpKm6CGwgVIDUuFRELQhkS5EC7Pf66hd6FyrVhNnNuIvmMXeatctYc54LL46TiIjICQMhIiIiohAn3cSkZZCEQdJ9zBtGICSDUisuWgWZi9FCSP4yLSGIe/ZuQdZuR87TThL8GTzZmbGNCKfBmE3blnF5XjOHLTLYsnTPkrEMY5GWXoi4xgaP9rnLWCicCz+Ok4iISBO2aNEiy8yZM/VJYNnLK7Dg6WSseTMLd37/Dr22+fXuO1ht88GHeCFSIiIiCr7S0lL9nn969OiBhc8vRdKM6XqNZ8Z3rsbIJeflKmO+hEFCLh2/b9XtqLfUo662TrX8kZDIKMa03BpFwo93jk3CmDFjMH/+fH1NRNReePocfOmll9TtrFmz1K0r3n4Onj59Gn369NGn/JGHlJ5TsUKfAkZh0a48zBykT4q8FPScanrEol3Isz1All+MSOdl3NQfXB6DkWunYFfeTDg8vJnIAMMypoyEy9R+yIDS586dQ7du3fQa3/ny3pLvF2whRERERBTC5Cpho0eP9ikMEgMGDEDve97Cpx1mYOO5qfiw9CFsKnsYH1X+DAU107G19jHssDyOXWGJ+LTjDHzWeRYKuzypwiBft0VEFHwSApWgpKQEuxYB8xKXQ66VqKgwaK9tfknJLkxZOxIxy22P8EEels3brt8PUdL1VbVMDMM48+WnA1Vvxm1ZNWVbIYSBEBEREVEIu+2229Sl5/0hy0pL8Llz5yItLQ1PPfUUkpOTMXv2bFUvtzIt9TJfHif1shwRUWsxaOYcTN++Fu+pvOcgli9egemrza18BmFmpqRGy+DddRrtDi5fDCxahFH6dOgxxhCTLq45GJ4yDdYcIlD1ZtxW07cVOqRVMAMhIiIiojZMuh30798f119/PQYOHIjw8HBERkZiyJAh6lampV7my+Pk8URErdbB97B2+3RMcm7oOOheTBm1F0W+NBI6uByJB+Yg4159OhTlrkNWwmT9qn6xSMsAstcXB67ejNtq+rZCDAMhIiIiIiIiarWkFc+KUVNwr9EiaFQkbtTvOtqOA1/qd7X780b2RM+e5mIel+gglieuxZSk0O5CW3xgD6KHRuhTQHjkcOTvKwpYvRm31fRthZqQC4TOVbKwsLCwsLCwBLe0FklJSfo9IqL2zh7ojJw3DKvNAz5vPwBb7uNgFCJtSZF9DCJ7WQ1jOOyDyxOxdkqm06DTRG0LWwgRERERtRLLli3T7xERtXfmQCcDtnY8qmvYCqx3HixIdSUbhgivAh7rQNLb5420thwaOQ/bt8/DyJjl+nyitoGBEBEREVEbdnDjXOzNnoptL9+M3W88gFOnTulziIjaokGYOWc6VkxNMQ0gnYeUkfOARUn24MijGGSYWw7tWoRRoxapy86HGuduSUa3pUDVm3FbTd9WqGEgRERERNRG7cy6FYMmPIdh8asxesYnGPHw2/j8r3dg69atqKur0x9FRNTGxGSgZDUw1TQ2EFaXIK8t9v+KGIrorHXIVRO5WJICxE8KD1y9GbfV9G2FGAZCRERERG2QhEG3JOzQ7mU5lNtT9qF88yP4cEkE3vvtDchZeB02LBmGTZmxOHnypPYYT3KRGBaGMFuJRobtAir+zgsEL9afm2iaH4ZohwfI8q72yV29L4J9XpzXaS6BWD9RKJAWPObLyrsgoZCplU+GQ9Mgd8u7qR80E3nmMYpCSXgytuQAceo9Ltc834JkySACVW/GbTV9WyGGgRARERFRG2SxWICqZUB5uVNJx11pRYh5+iDu/dURxC04iolpe3H26E6sWrUKhw4d0tfgzlikF1nU+ovSgdRHM2DPGPydFwge1i9hUFyhbb7FUoT47AinUKg5Bfu82NdpLzlI0OcSURsTm2l7r2dar3luFah6M27LqinbCiEMhIiIiIhCmHTv2rx5sz7lvfr6eqCsDDh/AfmvvupY/hClyqYXbsIHi8OxYdEAdOnSBYPLX8DeVd/D4cOH9bV4Fp6yAAkF2XjXRYLh77xAcFx/MTIWZiEhJx8ptr/UhiPlNUlflsDatD94WvK8EBERmTEQ8uT9RPTqFqbKxBdN/zK7qT/04jhbfa9uidio1wdXLlJt++BcxuGPX+r7+aTT1x85Joe6YvzxLtOydy2F/L1w45OmOlOxnQfTuXGoJyIiIr9UV1dj27ZtyMtzvmSOZyoQKi9H/lurET270GW546nPcfecYkycdxiTHk/Afc8cQ8m5EqxZs0ZfS5BJS57oALccKn4X2QUJmOz8l9rw+xA/thBfNGljxciITgxiqBTs7RERUVvGQMitXKROBrIrLDhbkYOhc6apMMV9PfDl5/mYtk7qpWRigrW6BURjUaGxH0bJwTR97sAn52Paq8/a9luFP8/vwaJU/ZvSl0sxsVsEvnjatPwrwIb3gQkvmtdn386GJ8OtYdBkbT22bRdhytsRDIWIiIiaYPz48RgxYgR2797tUyhktBDq2rWrNuU4jpCrUn3ooLqVwaaPHDmi3W9cccZCZI2Nx30uxkjwd55NcQai1TgMjiXRizSkwfrHDoHr67wUYL/tgjAFSI1w3l6cOjuB1OTzQkREFCAMhNx5fx1WPjZZD3VikbQYWJtb7L5eicbgG/W7QbTxSWvLH+857feX67EW8Zio9r0Yf3w8BUPXWZB+j5prdWMynjBPNyChUhamrduCJ2znIBxPvJIBzFmit5aSVkct1XKKiIio9YqJifE5FFJXEauqUuMYKNp9T6WyslI9TIIk2zIu2YOTiNQo5OSnaP/iG/ydp5OxF4z68BTk6+MwmIv7MRk8rL9gP+wXAjYbiyG2pMiHcXdsYVUEUguy9AFEPYVVTTwvPm+PiIiocQyE3Dh0YA9G3WT/W9LAyOHY/nmR23oJO4r35WNeVBC7Sunds9bfbw5hvCOthIbqQc2h3GwMfToZA2WGhEMfJ2CSx/DHBXfL3TgJU8bsQbEKrMLxxIeTsV66kzl3WSMiIiKPJkyYgN69e6tQ6MSJE3qto6SkJNutaiGkqampUbdqPCEPxRwIeWYOTjLhmM/4Oy8Q3KxfdQ3Lwjrnrx6qK1kUBjdIX7xgC6uKkD42ATnqvqewqonnxeftERERNY6BUMBI2GHvTmXuShZwqktXGHq9M1ltz6Elj9diMemxLKx/PxfL5gx3DHLGDIVfDZ3cLpePL2znIhbpco7uX6fCrNT39WoiIiLyaOPGjThz5oxqKdSvXz+91tGyZctst6qFkMYWCDW42phjqaioUA9rPBBqRuYxhJrQZcxROFIWJCArzjz2Ti4SI1KB9DTXAQwRUQuTKz5ag2KW9lKOHz+u/p0LprBFixZZZs6cqU9qXyBeXoEFTydjzZtZuPP7d+i1za9338Fqm3fdHxoXxJSBl5/ASuvYOEJa47wzGTtvetZl/dkXHb9OyODLS24qsj8ugGTd8a/K+D2uWgbJoNLPYnCDeS7qJViKSgEWm/ZT1e1DWqNjIDmtz+1y0k1sGvCK8/5IfQTmfZyA7BYdb4mIiAi48lKgtLRUn/JPjx49sPD5pUiaMV2v8cz4zuUN6SYmLYMkDJLuY97Ie36QeuyGDRswcd48YO9efY5re3bswPBp05CVmIg9XWfbwiVHuUgMW4ghReYrdhn8nWcigdDCIShy1W3KIy/Wry49bx8RKCHH3MLG3fJe7rdHATgvPmnOY6G2ztPn4EsvvaRuZ82apW5d8fZz8PTp0+jTp48+Rc4kmH/99deb/O8StS7y/nnkkUfQoYP/7XZ8eW9t2rSJgZBbTkGPLSCKXOK63in4kdBm/f3+tt7xhrtAxYdAyGVYY12vDCjted+d1+dmuQZBkbHf7gItIiKi4AvlQEguOS9XGfMlDBJy6fh9q25HvaUedbV16geGtBoyijEtt0aRv1C+c2wSxowZg/nz5+trIqL2goEQUevmayDELmPu3DgUo15dpw+ALN2qgCmx4e7rzb5ciiWvGgNMS3Di66DP3jC6qMmYPP6t/9CL0zBv6HynUEZb79MJWDnZqTuXdkx/9Ni9y1jOPGi0duyqBVKaKQySAEr2m2EQERGRN+QqYaNHj/YpDBIDBgxA73vewqcdZmDjuan4sPQhbCp7GB9V/gwFNdOxtfYx7LA8jl1hifi04wx81nkWCrs8qcIgX7dFRERErQ8DIXduTMaGdUC8jNXTLQ4wrp7lrl4FP9YBpXtFyVW6ghV4yJg8vm1LWjXJft7ydjx2OnV1U+7JxNnCDOybrB+PlMeBiY21dpLlbOdGipwf/ZL0ioRYDIKIiIh8cdttt6lLz/tDlpWW4HPnzkVaWhqeeuopJCcnY/bs2apebmVa6mW+PE7qZTkiIiJq2xgIeSIBhxok2qkblMt6fbBkl/XBDEHcbc9eP/DJLdb9/FC/spgrEnyZjqfhY91sx3RupHjudkZERETNrVevXujfvz+uv/56DBw4EOHh4YiMjMSQIUPUrUxLvcyXx8njiYiIqO1jIERERERERERE1M4wECIiIiJqJZKSkvR7RETUVskA/7W1tSztrFRUVKCqqkp/FQQHrzJGRERE7V6oX3aeiCgYeJWx0CBXgOzevTs6deqk11B7UF5ejgsXLqBbt256je94lTEiIiIisjm4cS72Zk/Ftpdvxu43HsCpU6f0OUREFIqkhZCEQWFhYSztqLREAMhAiIiIiKiN2pl1KwZNeA7D4ldj9IxPMOLht/H5X+/A1q1b1V+giYiIqP1iIERERETUBkkYdEvCDu1elkO5PWUfyjc/gg+XROC9396AnIXXYcOSYdiUGYuTJ09qj/EkF4kOf9GMRkaxPsvjvEDwYv25iab5YYh2eIAs72qf3NX7wnkdnqZdby830XxM7vbJXX1zkm3az6ljCfa+EBFRIDEQIiIiImqDpMsBqpbJoAROJR13pRUh5umDuPdXRxC34Cgmpu3F2aM7sWrVKhw6dEhfgztjkV5kUesvSgdSH82APRPwNC8QPKxfwqC4Qtt8i6UI8dkRTqFQiCrOwELJ60KW/bzbSw448ie1nDyk9OyJnrYSg+UH9VmGvBTT/J6IcXiALO9iGaf6g8tjTOtI0eYStS0hFwjJoI4sLCwsLCwsLMEsoUy6d23evFmf8l59fT1QVgacv4D8V191LH+IUmXTCzfhg8Xh2LBoALp06YLB5S9g76rv4fDhw/paPAtPWYCEgmy86yJz8TQvEBzXX4yMhVlIyMlHSriarQlHymuSGi1Brl4TmrR9fzQVUTkMWIh8MwqLdpWgpKQEuxYB8xKXw5bvSBg0da9tfknJLkxZO9IpFGrclwe2Y/pqYx0ZiNHrQ46pdeS4paYP3UDVm3FbVk3ZVghhCyEiIiKiEFZdXY1t27YhL8+3v02rQKi8HPlvrUb07EKX5Y6nPsfdc4oxcd5hTHo8Afc9cwwl50qwZs0afS3NQL4sRwe45VDxu8guSMDkWH3aEH4f4scW4osmbawYGdGJzRcq5S5BalQOMp33vVFOXbnUOZV9NXWVa/RcN/OxEQXJoJlzMH37Wryn8p6DWL54BaavzsPMQWq2ZhBmZkpqtMzHVj6jEHmjfjdkaZ8FcUCO3nJveMo0WHOIQNWbcVtN31ZoYSBEREREFMLGjx+PESNGYPfu3T6FQkYLoa5du2pTjuMIuSrVh+SXVJYabPrIkSPa/cYVZyxE1th43GdrlWPnaZ5NcQaizaGGXhK9SCgarH/sEETodx0VYH+Rfle7nxrhvL04dQZahvx4KER6mqs0yJt9Nbpy5SChYD+KpFVUfg6iVKso/YdJfopWS9SOHHwPa7dPxyTn5jyD7sWUUXtR5HUjoYMo2rsd80a66nIWQnLXISthMqyfIrFIywCy1xcHrt6M22r6tkIMAyEiIiKiEBcTE+NzKKSuIlZVBRnvRdHueyqVlZXqYRIk2ZZxyR5URKRGOQUOnubpYjNhMerDU5Cv/pLqWNy3lvGwfhWIuDIWQ2xJkQ9j4djCqgikFmQhTt33LqzyVm5iHArTXzN1czPzZl+N8yHJT6btR0hmDrT9Ndc5CcKxEQXTweWLsWLUFNxrtAgaFQnXDXu248CX+l3tvhH22MtUrNDnqlZFeUZ3sdUYNi/RxZhDLa/4wB5ED7XH4eGRw5G/ryhg9WbcVtO3FWoYCBERERG1AhMmTEDv3r1VKHTixAm91lFSUpLtVrUQ0tTU1KhbNZ6Qh2IOhDwzBxXOgYOneYHgZv2qa1gW1jkHGqorWRQGuwxcGmELq4qQPjZB7wLgKazyUVEGFham4zXXaZCXjPNRhCELfbjiV3MfG1FQ2AOdkfOGYXXeTNh6iG0/AFvu48DcBcw+BpG9rMZ0fa6jGEyavh1rrX3SiNoMBkJERERErcDGjRtx5swZ1VKoX79+eq2jZcuW2W5VCyGNLRBqcLUxx1JRUaEe1ngg1ETmcW2a0GXMUThSFiQgK848Hk4uEiNSgfS0ZgimmqoAqXGpiFoQyO5cRtc4YwwLaSbE8YGoLTMHOqYBn1XXsBVY79yYUnUlG4YIW2rku2FNWZgoBDEQIiIiIgpx0k1MWgZJGCTdx7xhBEIyKLXiolWQuRgthKSliIQyQeFzlzEPpCua6iplBEsqFUF+k1rgCBmXx5vWTvbubNaxfpynnST4M5C0M2MbEfrA1DJItHRDkxAsFmnphYjzOKi0t8dG1JoMwsw507Fiqvky8XlIGTkPWJTk35XCDi7H4hWhOcC0c7cko9tSoOrNuK2mbyvUMBDyxI9LyeUmGv/wj2uhEcVzHa844VCs+1S8dBzCnP/0JsfkUFeMpeNMy45bqr5M2I/PsdjOg+ncONQTERGRX+SS876GQSLixx8iJycHF2sv4h/PPIO1f/sb3nr9dby5ciXeePVVvP6nP2FlZib+8vLL+PNLL6GgoABZiYl459gk9O3bV1+Ls1hkWsyXdjfzNM/EPIaQT7xYv6zbbbDkbnkv99sjWYdjqNWwGNvQH9sgDTLvhzf76rRNtT4JeOwhWHhKvp/n2sybfSEKMTEZKFkNTDWNDYTVJcizX3bMC3lIMZYfOQ/DHK5aFkIihiI6a53eGjAXS1KA+EnaGzNQ9WbcVtO3FWIYCLllNLeVf2S9u5SchCXPDi3S/2HeguQWe+6jkeFhEMLw5PlIyHrWFFgVY+mze5BhXOGieCnGhUVg33zT8iuB9dorOzbTvD77drbIwUoYFKetx7btIsRnRzAUIiIiagK5Stjo0aN9CoPEgAED0Puet/BphxnYeG4qPix9CJvKHsZHlT9DQc10bK19DDssj2NXWCI+7TgDn3WehcIuT2LMmDE+b4uIKLhikFHSSEAjoZBpfKAMh481d8ub6+W+u+VDSHgytthaR8oPVf13aKDqzbitpm8rxIQtWrTIMnPmTH0SWPbyCix4Ohlr3szCnd+/Q69tfr37DlbbfPAhl9d5CD4JN9ZNtv31RlrVTMNKbIlc4ro+uQiJ4w4gbUtyE/8K47vcxHE4kGa82KSF0LMYWuT84nOst++3msC4acBKte/SMsgaBjX4w5UD5+24WU7WHbEP89XAj/KYJYjcwqbJREQUekpLS/V7/unRowcWPr8USTNcD0nqzPjO1dzOnj2Lqqoq1NbWqm5kUmScILnt2LEjOnTooG6ldOrUCZdccgl69eqlL01E7Ymnz8GXXnpJ3c6aNUvduuLt5+Dp06fRp08ffYqcyee1fA5LjwtqP+Tf6nPnzqFbt256je98eW9t2rSJLYTcce7vZ/QHdFeP3HXIGr4PS1QaqBW9i1Wz0rtnrZvse/IorYSGpyyBNGcrXp+N4fP1IKt4PbLzEzDZ18TG3XLhkxAfvQcH1MkIR/KWyVgn54fXNSUiIgoK+VHRv39/XH/99Rg4cCDCw8MRGRmJIUOGqFuZlnqZL49jGERERNQ+MBAKpKw9GKp3l8oZnoJpzdVVSnXpCrO2VNK25bkljzuxmJwgl2eVvo3DHYOc6KHwa+grt8vlwz62lt7fffI6FWYxFyIiIiIiIiIKPgZCgZQw39ZSJ3ZygsMI44GUuyQF+TJ+jzHmj59i0zKwJy4OezKcLseavw9+7bnb5aLRYHD12DRkRMPp8rBERETkSVJSkn6PiIiIqGkYCLkRypeSsw7svBKYJt3TmhCoqO5c0Y4jn6s6aTmkT3vL3XKqK9lwRNo2YVy9TAYtkuPgeEJERETeWrZsmX6PiIiIqGkYCLnj66XkYiebrtwlV+3KQoLqhyWDLzfHJehlPB4JVGRMHv/WX7x0GlKG21s1WWnrnZ+ArDin7lzFS7HUY0hkLGcOqLRjj9BOkK0FkoRBRhDk+7hHRERE5LuDG+dib/ZUbHv5Zux+4wGcOnVKn0NERETtGQMhd3y+lFwsMovikR0h9RFIGZ7j59g+vpIxeXwLV+QKYzJ+T0R2PIpc7WRsJixF0p1MjkUv04BJjR2PLGc7N1Lk/OiXpFckxGIQREREFCw7s27FoAnPYVj8aoye8QlGPPw2Pv/rHdi6dau6yhgREYWmQ4cOqfFiWdpPOX78uPodHUy87DwRERGRpq1ddl7CoFsSdmj3sqwVNgn4cEmEwyXoO15yBS654noMmbISffv21R/nirR8jjOtcSzSi/KRov7Y4++8QPBi/XJ11jjTI9KLkG97gCy/EEMa7JO7el84r8PTtOvt5SaGIS7LOCZ3++SuvjnJNs3n3SzQzzEFAy87Hxrkc/n1119v8r9L1LrI++eRRx5Bhw7+t9vx9bLzDISIiIiING0tENqReQtunTYNcNUS6LJU/Y7d2vl9cfDK/8YDDzygLkPvmmPoUJwRbW1xnJ+CcL/nBUIj61dhUKEpoChGRnQEsuONUMhxeTt39b5wXoenaRfbK85AdEQqCmwBi7t9clffnEJpXygQGAgRtW6+BkLsMkZEREQUwqR71+bNm/Up78lfmFFWBpy/gPxXX3Usf4hSZdMLN+GDxeHYsGgAunTpgsHlL2Dvqu/h8OHD+lo8C09ZgISCbLzrYixDf+cFguP6i5GxMAsJOeZwIhwpr6UDqUvgcYjEFqft+6OpiMrJAf9kSkREgcZAiIiIiCiEVVdXY9u2bcjLy9NrvKMCofJy5L+1GtGzC12WO576HHfPKcbEeYcx6fEE3PfMMZScK8GaNWv0tQSZtOSJzkBAc6Lid5FdkAB1rQ+z8PsQP7YQXzRpY9LSqAlXfG1M7hKkRvkzLqW00DGNBanOqexrGKIz9ANu9Fw387EREVGLYyBEREREFMLGjx+PESNGYPfu3T6FQkYLoa5du2pTMsqL51J96KC6lXGFjhw5ot1vXHHGQmSNjcd9LroF+TvPRrpKmUMNvThcBdWNBusfOwQR+l1HBdhfpN/V7qeqi4OYi7vxcYIhF4nSzS3NVRrkzb5KFzMZqDQHCQX7USStovJzEKVaRcm6gZyAddkjIqLWiIEQERERUYiLiYnxORRSVxGrqlJXLlG0+55KZWWlepgESbZlXLKHERGpUU6hgr/zdHLFUqM+PAX5pquvGMV9axkP61eBiCtjMcSWFBkBirm46aplC6sikFqQZbvCqjdhlbdyE+NQmP6amzF4vNlX43xI8pMJ62mLRaa6Iqy5zkkQjo2IiEIDAyEiIiKiVmDChAno3bu3CoVOnDih1zpKSkqy3aoWQpqamhp1q8YT8lDMgZBn5jDCOVTwd14guFm/6hqWhXXOgYbqShaFwS4Dl0bYwqoipI9NQI667yms8lFRBhYWpuO1Jo3IbJyPIgxZGA2jp1ijmvvYiKhR8p6rra1laWeloqICVfJHmiBiIERERETUCmzcuBFnzpxRLYX69eun1zpatmyZ7Va1ENLYAqHyco9FvoiKxgOhZmQe16YJXcYchSNlQQKy4szj4eQiMSIVSE9rhmCqqQqQGpeKqAUuWlD5zegap3cVs0gzIY4PRBSq5HP4iiuuQK9evVjaUenevXvQ/w0O++1vf2sxXzqwpS87f9f9vIYCERERBdeVl4b2Zeelm5i0DJIwSLqPeSPv+UHqsRs2bMDEefOAvXv1Oa7t2bEDw6dNQ1ZiIvZ0nW0LlxzJYMXuLifu7zwTCYQWDvHjcvRerF9det4+yk5CjrnVi7vlvdxvj2QdjY1FJK15ZBv6YxNyYHFokmPeD2/21Wmban0RDpfaD8yl/73ZF72KWgVedj40SGsRCQgkBKf2Q1oHnTt3Dt26ddNrfOfLe+tf//oXAyEiIiKiUA6E5JLzcpUxX8IgIZeO37fqdtRb6lFXW6f+6iithoxiTMutUaSbwjvHJmHMmDGYP3++viYiai8YCIUGBkLtU0sEQuwyRkRERBTC5Cpho0eP9ikMEgMGDEDve97Cpx1mYOO5qfiw9CFsKnsYH1X+DAU107G19jHssDyOXWGJ+LTjDHzWeRYKuzypwiBft0VEREStDwMhIiIiohB22223qUvP+0OWnTlzJubOnYu0tDQ89dRTSE5OxuzZs1W93Mq01Mt8eZzUy3JERKErDyk9e6KnrcRg+UF9liEvxTS/J2IcHiDLu1jGRX1eiodtELVyDISIiIiI2jDpdtC/f39cf/31GDhwIMLDwxEZGYkhQ4aoW5mWepkvj5PHExGFvlFYtKsEJSUl2LUImJe4HLa8RsKgqXtt80tKdmHK2pFOoVDjJAxaHLlLX0ceZg7SZ4QaGSNNH3j//7P3P9BR1Xf++P+MWhV+ny4UWT9rP7uthAnUEI6/UkEIrbYuAZJ4PIk9pNse1+T4WxJgMZm433CAQv2DCyz5fJpJliUk7scNytbTUEnWTzMjhI+rfCXRoLQuEIUMQU+3+mmLGD4tf7Tg/O7rzvvO3LmZO/8ymcwkz4fnbe593/+X/Jl5zvv9vosbTY8UTFa9GY/lN5JjpREGQkRERERERJSxstesQ8XRDrys5z2D2LWjDRX7zAFONta0SGrUhG5VE103uk5uRUvapkAGj3p6oA8+nxt5znL4c4hk1ZvxWCM/VnphIERERESUIaqrq9UUERGFNfgyOo5WoNg6FFr2cpTOP4mBWBsJdXehbc5pNBndzgpMLZDSiacTrZUl8D+XsBB1LqC9y5u8ejMea+THSjMMhCI5WIVpk7P0smyn6R8yTP3ZnYsDdcFShUP60lTyoHbYeRhlMXafUee61qPWV+SaQuq82H2fadv7GnFWqz201lRnKoH7Y7o3IfVEREQ0YuEfBU9ENLEN7tqBtvmlWG405pk/CzPVZKijOK29H/I7io3zjPGBjLICbWqpru0kZqluZ/vmbERVGg4i5D19Avm5OWoOcMzKQ0//QNLqzXiskR8r3TAQsuVBbQnQfsmH85fcyF1XrocpdvUz1h7R5qXOX97ekY/5O+qwRN9XquVj6/HgufiLG+Vq6Yy1m1D+7NPqeoQXu7efwNZaf5aJM41YNjkHp9abtn8GOHAQWLLTvL/gcQ6sdfjDoBJtP4FjD6B0fw5DISIiojE0eGgDTravQF/z1/HOTx7E7373O7WEiCiTBQOdeRvnYF/3GgQ6dx09jcBbnRDzMSuQFAXHIAqWfQh5YH7FukC3s4LiCm234fdKlKkYCNk52Ik9j5SoQKcQ1TuADo/Xvj6EB03r8lAnIUkKHFrrb/kTO8t5n+lCB8qwTP/l6MXulU7kdvrQsFRf6jezBqvM88NIqNSK8s4jWBX4JevAqmdcwLp61VJKWh2NRaspIiKiient1ruQvWQb5pTtw4LVv8CdP9iP9/71Xrz55pu4du2aWouIKBOZAx0XAj3E9K5hbeiyDhakdyWbg5x0HxKIKIUYCNk4e/oE5n8t2Nxrxqw8HH1vwLY+xMFO9KeidZDqntX1gDmEiY20EspVQc1ZTzty19dghiyQcOiNShRHDH/CsNtuZjFKF56AVw+sHFj1Sgm6pDuZtcsaERERJZWEQd+ofEubag0p33L24+Lhh/BKfQ5e/vuvwr3lL3Cgfg5eaynEb3/7W22dSDyoUk9P8Zd8uIZ9LhZ8woqU/JAVZPsw29jWJyqdz9O6j0jz4Y/nqTJfk9052dWPJjlm8J6GllSfC01c2VizrgJtK5ymAaS74Zy3EdhaHQyOoikoRkXbDvWoeTVQ9bCBicaetVuS0W0pWfVmPNbIj5VuGAglnb/7VWnhKLYO0rt0ZWHaSyV616yQljwxK0TxI63oOuhvzRQS5CzMtelzG4Xtdj04FWjBVIgG6U72QKceZtUeVNVERESUVD6fD7jSBFy8aCkNuK9uAAXrB7H8hx+gaPOvsKzuJM7/6m08//zzOHtWRg2MZBEaBuQJKj4MNAC1D7u0Vz+KhCxFxwPLfb4BlLXnWMKWVMmU84yT14Utku2lreB9DxY3KtVSopQocGFoH7DCNDYQ9g2hO64nhhXAdawUHXq3tHnYOGcfXOmXBwE5uchv7YT/43YP6p1AWbH2XjRZ9WY81siPlWYYCCWbtJTJ3RR3i514HGpw4qiM32OM+ZOgJbUu9JcUDW/N9Ea/TZ/bKGy3y8ds6/1YWoetC4E9JexCRkREFIl07zp8+LCai93nn38O/OEPwP/9PXqefTa0/ONcvbz246/hf+9w4MDW23HjjTdi9sUf4+Tz38T777+v9hKZw7kZlb3t+Lmeo3jh2tKKSncPnIHXvw44n5M0pl69QB4bmXKe0Wnn/nAt5roZsNBEVwDXkPmx8mFIKGQaHyg0zLHb3lKfvQbdxj7SMg3SOGpwxA0U6S3x5JnnR1Ajv9uSVW/GY438WGmGgZANa1cwo6uYXb1B7371wMiCmmj8AzvvAVbKk7xGEKjo3bnyQ1sz6XXSckjNx8puO70rWR4cgUBIxhGS8y4HnpHraBmjgbeJiIgyw6effoq+vj50d1sHxIhMD4QuXkTPz/Yh/9HjYcu9j72Hv1znxbKN76N4ZSXu/9GvMfTJEF588UW1lzh4f4723kqUWF8GOe5H2aLjOJVI4xtpyZNvatmTDKNxngFeuPKrRi9U8tSjdq4bLXG/1LR05dLvqZyrqatc1Hs9ytdGRIkrbAm0yAv5/ZCsejMey28kx0ojDITszMzF/Gc7Vdgi3argD07s6nVeHNgPS2sYeQx8vIM+x0LG45FARcbkSWz/Z3eWY+Ow1kzaftdXYk+JpTvXmUbsjhgSGduZAyrt2uc6gUALJAmDjCAo/nGPiIiIJqJ77rkHd955J9555524QiGjhdBNN92kzYWOIxSufHpWBspo1Qeb/uCDD7Tp6LyuLWhdVIb7jZdCi+5A+NESevFu4PO0XtTmmMIJvRTpZxGR14X8kG38pSqGhCKl5zlqPKiSbm514d5hxHKuRlcuNyp738WAtIrqcWOu3ipK9g24e5xaLRERTRQMhOzMrMGBTqBMxuqZrP2FNJ6eZVevG8CpkNYwqSBj8sQXrpzduVgfv+cb+8vw9s4wLyqWtuD8celOJteoykpgWbSximS7wL0x7o96JL1OQiwGQURERPEqKCiIOxTSnyJ25Yr+KaVOm45ULl++rK8mQVJgm7CC4UNO7dzQEEEPGsJZhDsCCUwcY8zIJ63G/h1O9IRs4y/2n8Cm8DwDYVUOantbVXeB2MKqWHmqinC84TlTNzezWM7VuB+S/LRoryBFIVr07g3mOosUXBsREY0NBkKRSMAhAyBbB262q9fDGWsXqPgDm5GxO16wfsbaI/7zf0U9WSwcCb7UNYZf1+Y4pnsjJbEBr4mIiMhqyZIluOWWW/RQ6KOPPlK1oaqrqwNf9RZCms8++0z/qo8nFKGYA6HIzOGDKUTQu1y1otMaFOhdtOZidtggYzSl8DwDYdUAGhZVwq1CmaR1FxhwYcvxBjwXPg2KkXE/BnDHljie+DXa10YZQ37/SCGi8YOBEBEREVEGOHToED7++GO9pdBtt92makM1NTUFvuothDSBQGjY08ZCy6VLl/TVogdCdhxwbq5Ea5F5nBkPqnJqgYa6YCATD/O4NiPoMhZqFM5zVPWitqgWczcnszuX0TVOdRXzSTMhjg9Ekf3VX/2VXoho/GAgRERERJTmpJuYtAySMEi6j8XCCIRkUGpdmFZB5mK0EJLWHxK0JES6eAWesCJFTxvQM6KWLUrcXcYiGLXzlHF5bLpehTCP+SNj/VjnLSoTGUjayjhGjhqYWgaJlm5oEoIVoq7hOIoiDiod67UREVGmyPr7v/9739/+7d+qWaCpuQ2b19fgxZ+24tvfuVfVjr5bbp2tH/O+B/gQTSIiIkqtL00CLly4oOYSM2XKFGzZ3ojq1RWqJjLjNVc08sh5ecpYPGGQkEfH9z//LXzu+xzXrl7TW/5ISGQUY16+GkUClpd+XYyFCxdi06ZNak9ENFGk6vfguXPnMH36dDVHVlevXtX/LWbMsB3gg8ahs2fPYvLkyZg0SXtRkqB4frZeffVVBkJERERE6RwIvfnmm3orH3naWLxkW2ld9Jvf/EbVRPdf/+t/1YOnu+++W9UQ0UTBQCg9SEC/d+/eEf97UGaRn5+HHnoI112XeEcuBkJEREREcUrnQGikzp8/jytXruifOFtbB11//fX6C0/5KuWGG27AzTffjGnTpqmtiWgiYSBElNniDYQ4hhARERHROCbhzpe//GV85Stf0bsfOBwOzJo1C3fccYf+VealXpbLegyDiIiIJgYGQkREREREREREE0zadRn77vfYZYyIiIhSLxO6jFVXVwceLU9ElGzsMkaU2dhljIiIiGicYhhEREREycJAiIiIiGgcGzy0ASfbV6Cv+et45ycP4ne/+51aQkRE6cjn8+kPAmCZWOXSpUv6QyBSiV3GiIiIiDTj8Sljb7fehW9UvqXm/P5fVy5uXPQvuOuuu/QnixERGdhlLD3IUyC/+MUv6k9+pInj4sWL+P3vf4/JkyermvixyxgRERERmcKg1pDyLWc/Lh5+CK/U5+Dlv/8q3Fv+Agfq5+C1lkL89re/1daJxIOqrCxkBUo+XF61KOKyZIhh/54q0/Is5IesINuHOye7+ngkel9iuKa4WfdpLsnYPxGNNmkhJGFQ+J9jlvFaxiIAZCBERERENA7JGwpcaZKPHC2lAffVDaBg/SCW//ADFG3+FZbVncT5X72N559/HmfPnlV7sLMIDQM+ff8DDUDtwy4EM4ZIy5Ihwv4lDCo6Hlju8w2grD3HEgqNpkTvy2jcs+A+g8UNtsMnIiIzBkJEREREaezNN9/E4cOH1VzsPv/8c+APfwD+7+/R8+yzoeUf5+rltR9/Df97hwMHtt6OG2+8EbMv/hgnn/8m3n//fbWXyBzOzajsbcfPwyQYkZYlQ+j+vXBtaUWluwdOh75Y44DzOUlY6uFRNamS6H0Z7XtGRERkxkAoElOz48WNpr/M8danVKRmwoshp+VtXIysKstLIzn3kDovGhebtl3cqH9a5aky1ZlK4HpN9yCknoiIiBLy6aefoq+vD93d3aomNnogdPEien62D/mPHg9b7n3sPfzlOi+WbXwfxSsrcf+Pfo2hT4bw4osvqr2MAnmtkJ/klkPen6O9txIlhWre4LgfZYuO49SIDuaFK78q5aFSeOl0LkRjqRvOqVMxNVAKsGtQLTJ0O03Lp6IgZAXZPsw2pvrBXQUh2/uLU61HND4wELLlQVUR4FZNbPOc5XqYErn+BFx681xz/VjIV+dhLsFmwo6aTahsfdp0fl40Pq2de516FeVtxOKsHPRvMm2/B+jSXn0Utpj3FzzOkRqH/wVe4B5I8TfVZihERESUuHvuuQd33nkn3nnnnbhCIaOF0E033aTNhY4jFK58elbeGbXqg5l+8MEH2nR0XtcWtC4qw/2BVjlBkZYFeF3IN32QZBTr51bhDNv/ojuQoyZD9eLdATWpTdfmWI9XpN+BZEr0vsR0z4hImY+tx4YwNDSEY1uBjVW7EMh3JAxacTKwfGjoGEo75llCociy13SrbY1jzMf8rdVqaZqxa5iQrHozHstvJMdKIwyE7Hg60VpZAn9EUog6F9Depf2D2tV7T+NEfhmK9T/ghSip7EF/4MXH6PJU+Vv+xM503sLbhXYY5+5FY7kTeW4fWsyfsjlqUGP91C2EhErSVPsIJBvyc6Bmj3Ygp9FUW1od8VMtIiKieBUUFMQdCkmwgytX9A9pdPIo2wjl8uXL+moSJAW2CSsYquTUzoW7x6n9xTdEWqYUtsBn1Duc6NE/RAotIa9BQkTYf++7CP/SaxHuCCRFcYytEwirclDb24oifTpSWJXofYnhnsV9LkQTS/aadag42oGX9bxnELt2tKFiXzfWZOuLNdlY0yKpURPia2tp6EbTxjlYF9xhGkmkIUM89WY81siPlV4YCNnwnj6B/Nzg50yOWXno6R+wrYejGGVohz9j8aCzNUyz5WRT6WNniTmEiY20EspTQY23qx15m2r8Lz4kHOpJ4NzttpP7kn8Cp/X74kDNkRJ0yosYvoIhIiKKy5IlS3DLLbfoodBHH32kakNVV/s/vZavegshzWeffaZ/1ccTilDMgVBk5lClRX1IZoi0LBls9q93DWtFp/Xlhd6VbC5mx/k6SRcIqwbQsKhSvcCPFFYlel9iuGdxnwvRBDb4MjqOVqC4QM0bspejdP5JDMTeSCiouwsnt1bDusu0EG9DhnjrzXiskR8rzVwnf0woGaQ1TBna9U94JBYcjRdBit6lSztOZ8kIXgxIKyZ54eRBvTMvNMjJz7Vpch2F7Xbm1lKFaJEXMSWd2n3iJ1tERESxOnToED7++GO9pdBtt92makM1NTUFvuothDSBQGjY08ZCy6VLl/TVogdCIyQfaBljCI2gy1goB5ybK9FaZG6J7EFVTi3QUDd6r8mIKC0M7tqBtvmlWG404Jk/CzPVZKijOH1GTWrTG+dZxwhagTa1NEhaHJ1EaWDn6SXehgxxN3ww4bFGfqx0IlkCWwgli4Q05cAeCTu0UtI5emGHp96JHhm/xxjzJ0GFdS6cKCrCCZflhVJPv02T6yhst8uH6efCr7AOrnxYXrgRERFRONJNTFoGSRgk3cdiYQRCMii1LkyrIHMxWgjJ6xgJZVIi7i5jEUhXNDcC3an8H9D50BN87FiCHHD2jOIHfXFJp3MhGmvBQGfexjnY170Ggcjm6GkEcp8Q8zErkBQFxyAKln2oUEsDpMXRnHWm7mdE4wcDIRvWNM9I++zqpdsVyoq1P9N+hSWVaB3Wbjk5/AM77wHK5cXOCAIVvTtXvnbaphdKel2YJtfR2G2ndyXLw6zAIYynl+npmXYdfFFDREQUiTxyPt4wSOT81Stwu93449U/4t9+9CN0vPACfrZ3L366Zw9+8uyz2PvP/4w9LS34l+Zm/M9/+if09vaitaoKL/26GLfeeqvai5W09DU/2t0s0jIT8xhCcYlh/7Jv22DJbvsYzzuiRO9LMo5tNZrXSZROzIGOK9idS+8a1oYu62BBeleyOciJM9gZfLkDc4b1PyMaHxgI2cnJRX5rpwpbpFuV5D3aX1Cbej0oau/yN3+WJZ2tqrmYB1Xqce/JJePxyIsdGZMnsf17G8vhzNtkGX9I2+8maXJtaeHkbURjxJDI2M7aVFu7QYEWSBIGGUFQ/OMeERERTUTylLAFCxbEFQaJ22+/Hbcs/Rl+ed1qHPpkBV658D289ocf4PXLf43ezyrw5tVH8JZvJY5lVeGX16/Gf3zhb3H8xrVYuHBh3MciIkof2VizrgJtK5ymAaS74Zy3EYh7HKBBvNwBU6ui9BNvQ4Z46814rJEfK90wELLjqMGRQLNjaXKsAgy7+sIWDJS1I0c1Uy6C2/8o9lEnn/bEF654Gxfr55jTXoaBcG2y5dO1AelO5r8WvZQDxdGa8tg01Q7eBwmxGAQRERHF4+6779YfPZ8I2XbNmjXYsGED6urq8Nhjj6GmpgaPPvqoXi9fZV7qZbmsJ/WyHRFRxipwYWgfsMI0NhD2DaE77n5fZ3A6gVZFKRVnQ4a46814rJEfK81kPf300761a9eqWaCpuQ2b19fgxZ+24tvfuVfVjr5bbp2tH/O73wv74E8iIiKiUXXhwgU1lZgpU6Zgy/ZGVK8eNgJFWMZrLiKidJGq34Pnzp3D9OnT1RxZXb16FdOmTdM/ZI+JDNZf1KpPVrpN3WWTVW/GY/mN5Fg2rly5gk8++QSTJ09WNfGL52fr3//93xkIEREREQkGQkQ00TEQSg9xB0I0LoxFIMQuY0REREQZorq6Wk0RERERjQwDISIiIqIM0dTUpKaIiIiIRoaBEBEREdE4NnhoA062r0Bf89fxzk8exO9+9zu1hIiIiCYyBkJERERE49TbrXche8k2zCnbhwWrf4E7f7Af7/3rvXjzzTdx7do1tRYRERFNRAyEiIiIiMYhCYO+UfmWNiVPOwmWbzn7cfHwQ3ilPgcv//1X4d7yFzhQPwevtRTit7/9rbZOJB5UZWXpA536Sz5cXrUo4WXJEMP+5ckvpnXyQ1aQ7cOdk119PBK9LzFcU9ys+zSXZOyfiIgyCQMhIiIionHI5/MBV5qAixctpQH31Q2gYP0glv/wAxRt/hWW1Z3E+V+9jeeffx5nz55Ve7CzCA0DPn3/Aw1A7cMuBHOERJclQ4T9648BPh5Y7vMNoKw9xxIKjaZ0umfBfQaLG3zOL1F6kd/FoT+nLOO9fPjhh3pAn0pp99j5+x7gnyMiIiJKrS9NSt/Hzkv3rk8//RT33HOPqomNjBm0YMUK4I9X0fOzfao21B//+Ef98cZG0V6S6vV5Dx/B7bffrk+HkhYmW3DHQA+cDut8ostkfqQi7d8LV34O3t3sQ0uhvrKf14X8nHex2deCQtvzScZ5Rjq3RJfJfCLs9pGMfdN4wMfOp4fPP/8ce/fuHfG/B2UW+fl56KGHcN11ibfbifex8wyEiIiIaMJL50Do8OHD6Ovrw5133omCggJVG90b/3QnFt5/P3peegn5jx5XtRF89BRw24+wt/b/g9/8+VP4u7/7O7XALFJIkegymVekJc+WOzDQ40R8uUSE/cMc/JhJUPQw8Fy48zPY1RtkH/WY3WPdt1mEc0tqIJTIuRii7ZsmCgZCRJkt3kCIXcaIiIiI0pi0DJIw6J133kF3d7eqjU4+YcYf/oCbbrpJmwsdRyhc+fTsoP5VBpv+4IMPtOnovK4taF1UhvvDhAiJLguQFjzDxrnJQpVHLY9g2P4X3YEcNRmqF+8OqEltujbHerwi/e4k06jeMyIiojgwECIiIiJKc9IyKN5QSH+K2JUr+rgEOm06Url8+bK+mgRJgW3CCgYnObVz4Q5pzZPoMqWwBT6j3uFEj2lsBaOEdPsKEWH/ve8ikPuEWIQ7AklRHGPrBMKqHNT2tqJIn44UVo3iPYv7XIiIiPwYCBERERFlgCVLluCWW27RQ6GPPvpI1Yaqrq4OfNVbCGk+++wz/au0FopUzIFQZObgxNo9KdFlyWCzf8f9KFvUik5rQOL9Odp752L2sIQlBoGwagANiyrh1qcjhVWjeM/iPhciIiI/BkJEREREGeDQoUP4+OOP9ZZCt912m6oN1dTUFPiqtxDSBAKhYU8bCy2XLl3SV4seCI0iGUMoXz1JawRdxkI54NxcidaiKgQ39aAqpxZoqBuFYIqIiCgzMBAiIiIiSnPSTUxaBsUzsLQRCMkTynRhWgWZi9FCSFqXSPAy5uLuMhaBdEVzI9CdSsYGgtuHnhGPoOyAM+IgzqmUTudCRESZgE8Zi+RgFaaV+IcSnL9jAAfWqhcN8danlAe1k4uwR82FysfW40ewzLMY33hvE87vNL1kkHN/qcRU58Xu+3Kw8Q01u9CFt1+pwZm1WSh7VtWZBK7XdA/E2N0HIiKi2I3Hp4y9//776H/+W/jc9zmuXb2mt/yRkMgoxrx8NYoELi/9uhgLFy7Epk2b1J6IaKLgU8aIMhufMpY0HtSWAO2XfDh/yY3cdeXYfSZC/ZlGLAu7/liQ4EfOw1zcKFdLZ6zdhPJnnzadnxe7t5/A1loVBsm1TM7BqfWm7Z8BDhwEluw07y94nGAYpO0ncOwBlO7PwbKdesNvIiIiSoA8JWzBggVxhUHi9ttvxy1Lf4ZfXrcahz5ZgVcufA+v/eEHeP3yX6P3swq8efURvOVbiWNZVfjl9avxH1/4Wxy/ca0eBsV7LCIiIso8DITsHOzEnkdKsESfKUT1DqDD47WtP+tpB3bUDV8/BQ6tXRxn+GQ5vzNd6EAZls2UGS92r3Qit9OHhqX6Ur+ZNVhlnh9GQqVWlHcewSp9P8KBVc+4gHX1OKTPS6ujKjVNREREsbj77rv1R88nQrZds2YNNmzYgLq6Ojz22GOoqanBo48+qtfLV5mXelku60m9bEdERETjGwMhG2dPn8D8rwWeQ4oZs/Jw9L0B2/oxIS1yJmeh6wFzCBMbaSWUq4IaCbNy19dghiyQcOiNShRHDH/CsNtuZjFKF56AVw+sHFj1Sgm6tHOetpbPQiUiIkqFadOm4ctf/jK+8pWvYMaMGXA4HJg1axbuuOMO/avMS70sl/VkfSIiIhr/GAgliR4MmVrCHNjfo0+NCr1LV5Z/zJ9LlpY8MStE8SOt6DroQdO6vNAgZ2Eu4syX/Gy368GpQAumQjRId7IHOvUwq/agqiYiIiIiIiKilGEglCxLW/D2jhMok6BmcjlO5earBcl3qMGJozJ+jzHmT4KW1LrQX1KE/kBXN+WNfiQ0/JHtdvmYbU2KltZh60JgTwm7kBEREcWqurpaTRERERGNDAMhG9auYEZXMbt6MWPtETWY8hEUowe5s0bn6Vr+gZ33ACslfBpBoKJ358pHaaHpPPU6aTmk5mNlt53elSwPjkAgJOMI+UMzPCPX0RIaRhEREZGtpqYmNUVEREQ0MgyE7MzMxfxnO1XYIt2q4A9O7OrNDlahrN+Far0bljwGPt5Bn2Mh4/FIoCJj8iS2/7M7y7Exd5Nl/CFtv+srsafE0p3rTCN2RwyJjO3MAZV27XOdpsG2JQwygqD4xz0iIiKi+A0e2oCT7SvQ1/x1vPOTB/G73/1OLSEiIqKJjIGQnZk1ONAJ1QWsCDCenmVXrwc/UqcVefz8K2qQ5lEnY/LEF66c3blYP89v7C/D2zvDdDtb2oLzx6U7mboeKSuBZdHGKpLtAvdGitwf9Uh6nYRYDIKIiIhS5e3Wu5C9ZBvmlO3DgtW/wJ0/2I/3/vVevPnmm7h27Zpai4iIiCYiBkKRSMChdwGzDNwctl4NlqwXczeo+AObkbE7XrA+0LUtUmglwVfgesKta3Mc072RktiA10RERDRSEgZ9o/Itbao1pHzL2Y+Lhx/CK/U5ePnvvwr3lr/Agfo5eK2lEL/97W+1dSLxoCorC1mBkg+XVy0yeKpMy7OQH7KCbB9mG9v6REU6z0SXJcq6T3NJ5jUTERHFh4EQERER0Tjk8/mAK03AxYuW0oD76gZQsH4Qy3/4AYo2/wrL6k7i/K/exvPPP4+zZ8+qPdhZhIYBn77/gQag9mEXgnlKFbKKjgeW+3wDKGvPsYRCqRLhPBNelqjgPoPFjUq1lIiIaCwwECIiIiJKY9K96/Dhw2oudp9//jnwhz8A//f36Hn22dDyj3P18tqPv4b/vcOBA1tvx4033ojZF3+Mk89/E++//77aS2QO52ZU9rbj53pi4oVrSysq3T1wBoZXdMD5nKQq9fComrEQep6hEl1GRDRaJDS+evUqywQrly5dwpUrV9R3QWowECIiIiJKY59++in6+vrQ3d2tamKjB0IXL6LnZ/uQ/+jxsOXex97DX67zYtnG91G8shL3/+jXGPpkCC+++KLaSxy8P0d7byVKrMMTOu5H2aLjOJVIqCItjvKT0UJntHjhyq8a07CLiMYf+f39J3/yJ5g2bRrLBCpf/OIX/X+7U4iBEBEREVEau+eee3DnnXfinXfeiSsUMloI3XTTTdpc6DhC4cqnZwf1rzLY9AcffKBNR+d1bUHrojLcb7QIWnQHctRkqF68O6AmtenaHOtYOkX6WUTkdSE/ZBt/qYohjRl2niaJLiMiGi3SQuiGG24Y9vuOZXwX+TdPNQZCRERERGmuoKAg7lBIf4rYlSv6GwudNEOPUC5fvqyvJkFSYJuwgoFOTu1cuHucCOQlve8ikPuEWIQ7AklRHOPpFLbAZ+zf4URPyDb+0hLmgal+Ec4z4WVKIJzKQW1vK4r06djCKSIionQgf0MZCBERERFlgCVLluCWW27RQ6GPPvpI1Yaqrq4OfDWanX/22Wf6V308oQjFHAhFZg50WhDIY/SuYa3otIYieleyuZg9LFUZbTbnqUt0mRIIpwbQsKgSbn06UjhFRESUfhgIEREREWWAQ4cO4eOPP9ZbCt12222qNlRTU1Pgq95CSBMIhIY9bSy0yGCWIvHxCxxwbq5Ea5F5TB0PqnJqgYa68MFKNOYxhEbQZYyIxptuOKdOxdRAKcAu6fWqi7SMiMzSLhD60iQWFhYWFhYWltSWdCfdxKRlkIRB0n0sFkYgJINS68K0CjIXo4WQtHSRoCUh0sXLjUAXKhkbCG4feoKPHUtc3F3GUsEBZ49NKyIiGmXzsfXYEIaGhnBsK7CxaheCuU+kZeOQhOfq9+7iRtMw/MmqN+Ox/EZyrDTCFkJEREREaUweOR9vGCRy/uoVuN1u/PHqH/FvP/oROl54AT/buxc/3bMHP3n2Wez953/GnpYW/EtzM/7nP/0Tent70VpVhZd+XYxbb71V7cWqEC0+82Plw5BQyDawsdvept48hlBcIp1nossSFec1E1HcstesQ8XRDrwcJvWJtGx88KBKz97ld64bec5y+HOIZNWb8VgjP1Z6YSBERERElMbkKWELFiyIKwwSt99+O25Z+jP88rrVOPTJCrxy4Xt47Q8/wOuX/xq9n1XgzauP4C3fShzLqsIvr1+N//jC3+L4jWuxcOHCuI9FRERjxNOJ1soS+LP3QtS5gPYub/LqzXiskR8rzTAQIiIiIkpjd999t/7o+UTItmvWrMGGDRtQV1eHxx57DDU1NXj00Uf1evkq81Ivy2U9qZftiIgyxeCuHWibX4rl2arCJNKy8cB7+gTycwOPcYRjVh56+geSVm/GY438WOmGgRARERHRODZt2jR8+ctfxle+8hXMmDEDDocDs2bNwh133KF/lXmpl+WynqxPRJT+jmLjPP/A0fM2zsG+7jUIZj6RlhGRgYEQERERERERZZjgwNFDQy6EdnSNtIyIDAyEiIiIiDJEdXW1miIiIhreLcnotpSsejMea+THSjcMhCKJ9Mg4fVkVPGpWlxaPmPOgSp3D8LJYH+Xc27gYWVUhZ+4/95A6LxoXm7Zd3KjVyGqmOlMJXK/pHoTUExER0Yg1NTWpKSIiIk1OLvJbO9X7Ug/qnUBZsSN59WY81siPlWYYCNmye2ScCko6gUp9PUM6PWIuH64BOQ9zcQfO11GzCZWtT5vOT7ump0/AVecfDx3eRizOykH/JtP2e4Au7Tu7sMW8v+BxjtRo3+gSBhVp+wkcewBl7TkMhYiIiJIkkRZCTz75ZEjZvn07du3ahb179+Kll15SaxERZZICuIa6sSbswECRlo1DjhoccQNF+gfy8ob0COStWdLqzXiskR8rzTAQsmP7yDgHao744Gsp0ZcEjOEj5jxV/pY/sbOcn7cL7SiDP7z0orHciTy3Dy0qH9Jp39w15vlhJFRqRWXIN712r/ZoB3LWq5RUwjRLqyoiIiKKWaIthB5//PFAWb9+vf4ksYceegi/+MUv9JCIiIgyWGGL+kDe8h4uWfVmPJbfSI6VRhgI2bD297P2B7SKd/2kUN2zOkviTx6llVCeCmq8Xe3I21QDfx7UhfaeSpTE+81rt52jGGX5J3Baz54kTCtBpySm1i5rREREFNVojCEkIVHsoZC1a3o+XIEPpRJdlgypPrbs03oMu3nrMj9/N/zI69jXjyY5pvl+mUuqz4WIiEYTA6FMpHfp0v4od5aMIHksREllKzo90rcxLzTIyc9FQkNf2W7Xg2A2VogWSUxLOvUXFsyFiIiIYjfSMYSysp4MFPHEE0/of4+Nr7FZhAbVPXygAah92IVgRpDosmQYy2PHyevCllY1nZaC9ytYgsMPEBHR+MBAKAN56p3okfF7jDF/ElRY58KJoiKccNWprm5KTz8Sattku10+hg2uXlgHVz7QWsQuZERERLEaaQshn+/xQPHPB9/wC7fbrX+NlcO5GZW97fh5mHQl0WXJMJbHjs4L18O1mKvdawYsREQ0lhgI2Yj3kXGpfMScf2DnPUC5NN0dQaCid+fKDx35XK+TlkNqPlZ22+ldyfIwK3AINSh3VjmwR66jJTSMIiIiIlvJbCFkbilkuHjxopoaI9IdPn+MW+9IYJM/ih9YeepRO9edQAtvS1cu/T7JuWYh3+jHFfX+jfK1ERFRRmEgZCfeR8bZri9/vOMd9DkWanBrn4zJk9j+vY3lcOZtsow/pO13UyVaiyzdubyNaIz46sHYzvwiQ7v2HO1GBFogSRhkBEHpP+I6ERFRuklmCyFzSyFDvIGQ17UFrYvKcH+Yv+mJLgvwupBvDkBUiaW7+YiPPWq010ZFx9EQtpV3L2pzrNdbhNCeZUZXLjcqe9/FgPb6y9njxtxaGRdS9g24e5xaLRERUXQMhOzE+8i4MXvEnIzJE9+xvI2L9RcZOe1lGAj38ZSMjD4g3clML0jKgeJon2TJdoF7YNwH9Uh6nYRYDIKIiIgSlUgLoRtuuEFNRW8hdOnSJTUVSTC4yKmdawkgEl2myGsJo97hRI+pS5tR7FvWjPDYgQAqB7W9rYHXM8kc79BTVYTjDc/BOezgIpZxe4zrkNdYRitr7bWg/vrLXGeRgmsjouQ6e/as5fcBy3gvH374of67OZWynn76ad/atWvVrPZCo7kNm9fX4MWftuLb37lX1Y6+W26drR/zu99jb2oiIiJKvQsXLqipxEyZMgVbtjeienWFqonMeM0VD2khJKFQrF/F//gf/wN/93d/p09HIi9Cd+zYgbq6OlUTjrR83oI7BnrChBqJLkuGZB5bulXVY3ZPpG7t1n1GmlfT7jK0bwGeC4RRYdYZdo5268g5Piw7868vXcWKWlHpjvawkUSuzWBXT+NJqn4Pnjt3DtOnT1dzZPX5559j7969I/73oMwiPz8PPfQQrrsu8XY78fxsvfLKKwyEiIiIiEQmBEKJ2LVrF9asWaNPW1sECaPbmARC8rQxeQy9vUihQKLLTCTY2HIHBiQ0kVYtObXoVYsM4UOPJBw7YDQCIX/Xr9Bzt64T7hzt1pFzzMG7m2V/Ut+JEn0YAfka6bwZCFFkDISIMlu8gRC7jBERERFlCGn5E6+bb75ZTUUfQyitxN1lLFlkXJ5IgYkh2A3NP9aPdd6iMpGBpK2MY+Sogakl4JFuaDJeYyHqGo6jKOKg0rFeGxERTQRsIURERESkGa8thF544QV8//vf16dH3kKIiMYzthAiymxsIUREREQ0Tk2oFkJEREQ0qhgIEREREWUIY6DoeLz66quqG1PkQkRERBMLAyEiIiKiDJFIC6HGxka9K1gshYiIxp6Ml3b16lWWCVYuXbqEK1euqO+C1OAYQkRERESa8TqGEBFRrDiGUHq4du0avvjFL+KGG25QNTQRXLx4Eb///e8xefJkVRO/eMcQSrtA6L4HGAgRERFRan1pUmYEQtJCKJFuY0REsWAglB6ktci0adPYnXeCkdZBn3zySUoDIXYZIyIiIsoQDIOIiIgoWRgIEREREWWIRMYQevLJJ0PK9u3bsWvXLuzduxcvvfSSWouIiIgmGgZCRERERBki0RZCjz/+eKCsX78ea9aswUMPPYRf/OIXekhERJRZuuGcOhVTA6UAuwbVooSXEU08DISIiIiIMkQiLYSikZAo9lDIg6qsfLi8ajbivHWZn6dKHnMfeR37+nQi52h+dL/5fCMtS5T1nkSaty7zS997L8c03y9zSfW5UOaYj63HhjA0NIRjW4GNVbsQzHYSXZahPFWBn5nFjaYfmGTVm/FYfiM5VhphIERERESUIUY6hlBW1pOBIuRR8/Ki1fg66rwubGlV0+PCIjQM+PRHRA80ALUPuxB8+R9p2RhI+3sfvF/B4gYfN0OxyF6zDhVHO/BymGQn0WWZw4OqIsCtfmbynOXw5xDJqjfjsUZ+rPTCQIiIiIgoQ4y0hZDP93ig+OflRau/CLfbrX8dHV64Hq7FXO0Y4/FNvsO5GZW97fh5mBf/kZalxvi+90QTmqcTrZUlKNRnClHnAtq7tF82yao347FGfqw0w0AokoNVmDY5Sy/Ldlr+IfVlVTikZgPs6lPGg1p1zsPLYuw+A5zduRjT1nrU+oqcd0idF7vvM217XyPOarWH1prqTCVwf0z3LKSeiIiIRiyZLYTMLYUMFy9eVFOjwFOP2rlutPhfKcfBE9qdKN9oaSP1kbo8eeHKz0K+sYI04w9sa2JXn1JyrlXamY+SpN77GO9rwChfG5FmcNcOtM0vxfJsVWGS6LJM4T19Avm5OWoOcMzKQ0//QNLqzXiskR8r3TAQsuVBbQnQfsmH85fcyF1Xrocp8kdND0peAsr19Qx29WMhH1uPy3mbiztwXjPWbkL5s0+r6xHauW8/ga216lXCmUYsm5yDU+tN2z8DHDgILNlp3l/wOAfWOvxhUIm2n8CxB1C6P4ehEBERUZIks4WQuaWQYfQCIWlGfxwNdeESiV7U5phCB70UIbR3k9GdyI3K3ncR28trB5w9bsytrdeOLscH3D1OrTYCrwv5IefhL1UxpBle1xa0LirD/WEOEGnZ6Ev2vU/gvhKNiqPYOM8/OPS8jXOwr3sNgrlOosuIJhYGQnYOdmLPIyVYos8UonoH0OGRYMOBVa/4cH5nib4kyK5+9B1a62/5Ezvz9WjOdKEDZVg2U2a82L3SidxOHxqW6kv9ZtZglXl+GAmVWlHeeQSr9P0I7Z484wLW1asWUxKajWXrKSIiosyWSAuhG264QU1FbyF06dIlNZVcnqoiHG94Ds6wqUEsY8cYwYWkDy2qOb4IDTSGBzeFaHEDRcO2Mylsgc8INBxO9ISch7/Yt6wJHj+ndq4lGIm0TAkEUDmo7W3VztPuOhI3Ovc+hvuagmujiS44OPTQkAsFqtYv0WVEEwsDIRtnT5/A/K8Fm3vNmJWHo++lWXMv1T2r6wFzCBMbaSWUq4Kas5525K6vwQxZIOHQG5Uojhj+hGG33cxilC48Aa8eWEloVoIu6U5m7bJGREREURkthGL9Km6++WY1NUYthAZc2HK8Ac+FTyRiZAQXA7hji7mbmCnQcFeidUuqu36ZAxVrMBJpmRIIoAbQsKhSDUQaKYCK06je+yhG+9qISGftlmR0W0pWvRmPNfJjpRsGQplI79Il3dNK9K5ZIS15YlaI4kda0XXQg6Z1eaFBzsJcxJkv+dlu14NTgRZMhWiQ7mQPdOphVu1BVU1ERERRGS2EYv0qJk2apKbGooVQL2qLajF3czK7FPXi3eDr7ShUlyafNGexGcfGPAbOCLqMpZ/RvPcx3FciSo2cXOS3dqqfQw/qnUBZsfZTn6x6Mx5r5MdKMwyEMtChBieOyvg9xpg/CVpS60J/SRH6d9SprnHKG/2IqweawXa7fMy2JkVL67B1IbCnhF3IiIiIYmVu+ROreFoIxSbYFco/3ox13qIykcGMrYxj5FgGRzYdW8bJec4cfshgxtJdqg6F2n91DcdRFG3w6Li7jCWLjMtj04ooRDrc+3jva6zXRhSPAriGurEm7OA/iS7LUI4aHNG7cPp/D8B9BDXyizBZ9WY81siPlWaynn76ad/atWvVLNDU3IbN62vw4k9b8e3v3KtqR98tt87Wj3nfA2nyMEzpjiUtcHb6/3zJk7lWYY9/8GSdPM2rE8WXWkLDFNv6ZJPxeHKw8Y1KtIccS47/NGYft3YjC1cv+ygHnrHW+QeUjtzyyLo/m+2kNdPcftQFztE4bxmQOv6ubkRERKPhS5OACxcuqLnETJkyBVu2N6J6dYWqicx4zTXaXnjhBXz/+9/Xp60tgoQRCkmo8MQTT+DxxxMJiYhoPEjV78Fz585h+vTpao6srl69imnTpum/l2niuHLlCj755BNMnjxZ1cQvnp+tl9wH2ELI1sxczH+2U7VekW5VQGlhIvGeBCfxDvocCzWI9SUZkyex/Z/dWY6NuZssoYy23/WV2FNi6c51phG7I3bvMrYzt/jRrn2uEwi0QDICKDlvhkFERETxSo8WQkRERDQeMBCyM7MGBzqBMhmrZ3IREPL0rHQiY/LEd27S2knG7/nG/jK8rVpAhVjagvPHpTuZXLsqK4Fl0cYqku0C98y4b+qR9DoJsRgEERERJco8NlCsXn31Vf1T5miFiIiIJhZ2GSMiIqIJL1O6jEkLoURCoSefHN5VzA67jBFNXOwylh7YZWxiYpcxIiIiIrKVSBgkJOSJtRAREdHEwECIiIiIKEMkMoYQERERUTgMhIiIiIgyRKIthIiIKLOcPXsWPp+PZQKVDz/8MOXdBDmGEBEREU1443kMIev4QTfddBP+5E/+JFAeeOABtYSIJjqOIZQePv/8c+zdu3fE/x6UWeTn56GHHsJ11yXebifeMYQYCBEREdGElymBUCIkELIbG8gIizh2EBEJBkJEmS2uQOhft7DLGBEREVGmGI0xhCQMiv0pZB5UmR5Vn5WVD5dXLYq4LBkSPfZonJfs03oMu3nrMj9Plflcwq9jXz+a5Jjm+2UuqT4XIiIaLW///BADISIiIqJMMdIxhLKyngwU8cQTT+hv9I2vsVmEhgH/eAcDDUDtwy4EM4JIy5Ih0WOP9nnFyevCllY1nZaC9ytY3GA7fiKi8ePUh19Pvy5j3/0e/9QQERFR6o3nMYRi6RImgVBXVxeKiopUTTjSemQL7hjogdNhnY+0TOZHKtFjR1om84mIts9Ix/fClZ+Ddze7gSK7dQx29aMpnc6FUo1dxogyWzw/W3/1/S24ThJ/IiIiIkp/yWwhZG4pZLh48aKaGkWeKmTlj3ELnYgksKmCR80lnacetXPdaClU8zGTQMbUfUu/h3KuWcg3+nFFvbejfG1ERJQ5PjzHLmNEREREmWKkYwj5fI8PK2bxBkJe1xa0LirD/WFajERaFuB1Id8ccqhSFUNikeixYzqvUeNBVdFxNNSFS4N6UZtjvRdFCO1ZZnTlcqOy910MwAFnjxtza+u1Pcu+AXePU6slIiKKbNaXf8lAiIiIiChTJNJC6IYbblBT0VsIXbp0SU1FEgwucmrnWgKISMuUwhb4jHqHEz0h49T4i33rmUSPHcN5BcKpHNT2tqJIn44tnIqVp6oIxxues+lyFcu4PcZ1SPLTAv9tKkSL9D4LqbNIwbUREVFm+Ub+/5eBEBEREVGmMFoIxfpV3HzzzWoqWS2EzMGFNYCItCwZEj12DOcVCKcG0LCoEm59OlI4FacBF7Ycb8BzIxqAx7iOAdyxJY4nfo32tRERUebJLmQgRERERJQpjBZCsX4VkyZNUlPJaiE0QuZxbkbQZSyz9KK2qBZzN4dpmZSwXrw7IF9VVzGfNBPi+EBERBQ7BkJEREREGcLc8idW8bQQSrm4u4ylgozLE0vrpmA3NP9YP9Z5i8pEBpK2Mo6RowamlkGipRtanXa+hahrOI6iiINKx3ptREQ0ETAQikQ+wVKfVC1utPxp1ZeFfgrjqTJeBIRZP2UsT6AIKYshp+VtXIws60dvcj0hdV40LjZtu7hRf3FhvkZzCVyv6Z6F1BMREdGImVv+xCqeFkLRFaLFZ/fY8UjLTMxjCMUl0WPHeF5xkX0OD7JCi3FMte6wNMh8XnbnaF3HtH99fxLw+NCjNnQ4exK8t2axnAsREY0HDIRsGc1v5Y+uG3nOcj1MCQQlnQgd5M/biNMlxh9p8/pjIR+uQD/54DkZ5+uo2YTK1qdN56dd09Mn4DKeeKFdy+KsHPRvMm2/B+jyaC8FWsz7Cx7nSI326kDCoCJtP4FjD6CsPYehEBERUZKMuxZCRERENGYYCNnxdKK1sgT+iKQQdS6gvUuCDQdqjvjgaynRlwQ4alAT+OAnB7n5ajIFPFX+lj+xM1+PxtuFdpShWP/Ex4vGcify3Jbm2iHXF46ESq2odB+BZEN+2r3aox3IKY9CFRKmsW87ERFRohJpIfTqq6/C3HrXrhAREdHEkrVlyxbfo48+qma1FxrNbdi8vgYv/rQV3/7Ovap29N1y62z9mN/9XujDNceKdKsqxx5/yxchrV86S0zNfaVrVidKwj6pItKyJNJb5EgIYw5v5NhPI3fAHMwIa33wHHO0a62fdcS/D2kdlNOPTVHP3bI/2+0kBCoH9piPW4TWSneYptNERERj58KFC2oqMVOmTMGW7Y2oXl2haiIzXnPFQ1oIJRIKPflk7F3DHn+crYaIJqpU/R48d+6cmiKiZJs+fbqaiuzful5mIGRnJIGQjLPzdO5AcNtk08MXJ3rChirW4McwvF7Os7NEnkhhug7Zt57f1ETpfx4mEAq7nQRC/u5nIacaNswiIiIaO5kQCBERjaZU/x4korEjgRC7jCWVhB+jHAZpPPVO9Mj4PcaYPwkqrHPhRFERTrjkyRQmPf3Qn2IaL9vt8pGboyYNhXVw5QOtfDwqERFRzBIZQ4iIiIgoHAZCNhyz8tDTH4w3vKdPIH9YqmFmdI1SAyyPIv/AznuAcunzP4JAxVGMsvx8lPkHD/LT61rRGe9O7baT8Yl68jArcAh/aJaV5b9Xvqhd04iIiMiQSHcxIiIionAYCNnJyUV+a6cKWzyodyI0OLHy1MOZt8nSTUtI16p4B32OhRrc2leCzgT3720sD3PO2n43VaK1KAuhT6FvRGPEkMjYzhxQadeeo924QAukYGjm81m7tBEREVE0ibQQkvGDzGX79u3YtWsX9u7di5deekmtRURERBMNAyE7jhockeF19CdvyPPnIwcY0oIIrUWBJ3VISc3j1gvREme4IuMjyfnltJdhINwAPoUt8A1Id7LgtUiDnuJoTXlku8A9k6I/t9/UYkpCLAZBREREiUq0hZAMFG2U9evXY82aNXjooYfwi1/8Iq4Bp4mIiGj8YCAUiQQcPmnNEm7gYwligt2dHDVHAusaxR+ExB/YjIzd8YL1gXONNHC0BGLm6xm2rs1xTPdMCgeMJiIiSp7RGENIQqLYQyFp+Wz6wCgrH67A51+JLkuGdDov2af1GHbz1mV+8uCP4LmEX8e+fjTJMc33y1xSfS5ERDRSDISIiIiIMsRIxxDKynoyUMQTTzyhv5k3vsZmERoG/B/8DDQAtQ+7EMwBEl2WDOl6XnHyurClVU2npeD9ChY30uM5wUREFI/r5Jc4EREREaW/kbYQ8vkeDxT/fPBNvXC73frXWDmcm1HZ246fh0lQEl2WDOl6XtF54Xq4FnO1fwcGLERENNrYQoiIiIgoQySzhZC5pZDh4sWLamqMeKqQlT/GLXQi8sKVP4InvEbjqUftXHcCXe4tXbn0eyjnmoV8ox9X1Hs7ytdGRERph4EQERERUYZIZgshc0shQ7yBkNe1Ba2LynB/mEEJE10W4HUh3xxyqBLyFFQbo3peo8aDqqLjaKgLlwb1ojbHei+KENqzzOjK5UZl77sYgAPOHjfm1tZre5Z9A+4ep/34kURENOEwECIiIiLKEIm0ELrhhhvUVPQWQpcuXVJTkQTDiZzauZaQIdFlijycwqh3ONFj6tJmFPvWM6N4XoFwKge1va2BJ6rGEk7FylNVhOMNz8E57OAilnF7jOuQ5Md48EkhWvQnwJrrLFJwbUTx64ZzagF2DarZqPNElAgGQkREREQZwmghFOtXcfPNN6upZLUQMocT1pAh0WXJMIrnFQinBtCwqBJufTqJT1MdcGHL8QY8Fz4NipFxHQO4Y0scT/wa7WsjIqK0xUCIiIiIKEMYLYRi/SomTZqkppLVQmgUmce5GUGXsczSi9qiWszdHKZlUsJ68e6AfFVdxXzSTIjjAxERkdkn6RcIfXKZhYWFhYWFhSW1JVOYW/7EKp4WQmkl7i5jqSDj8sTSuinYDc0/1o913qIykYGkrYxj5KiBqWWQaOmGVqedbyHqGo6jKOKg0rFeG1G6Ce0+NrirAFMD85G6mtl1O2N3NJoghrzIeuqpp3zmFxdNzW3YvL4GL/60Fd/+zr2qdvTdcuts/Zj3PcCHbBIREVFqfWkScOHCBTWXmClTpmDL9kZUr65QNZEZr7lG2wsvvIDvf//7+rS1RZAwQiEJK5544gk8/ngah0RENKpS9Xvw3Llzaiq86dN/AefUHZh1rBtrsqVGQhq7ect0wQ6cPAqUDlsWaTtZZgjWl/1J5PMkSkfTp09XU5H9279uYSBERERElCmBkLxmM3cHi0VHRwdKS0vVnD0GQkSUykAo8pvWSEGOdT44ndM0FV3F+4AV5mUr0CabBMzHVptlFfuG4CqwHosoc0T/2QqSQIhjCBERERFliHjDIPHqq6/qYU+0QkSU0c7swg7sg6tAzQdIADSEoSEp+xAaVZmW7atA245dYE8xmjCmOhgIEREREWWKRMYQamxs1Fv+xFKIiDLTUWxc0YHS6mFpEBHZ+hIDISIiIqJMkUgLISHdwGItRETp4Sg2zpuKqVOlSNcu63yo+VtbEujiZdrnipPY2rIG7CVGEwkDISIiIqIMkUgLISKizFMAl97FK1Ixxvjxr9sdSINk3rzMPBaQdZnd/szbEI1fDIQiOViFaZOz9LJsp+UhnfqyKhxSs4AXu+/zryul9qCqTjkPatU5DC+LsfsMcHbnYkxb61HrK3I9IXWh1zPtvkac1WoPrTXVmUrg/pjuWUg9ERERjViiLYSIiIiIrBgI2fKgtgRov+TD+Utu5K4r18OUQFDyElCur2cYgGO9rKuV4y70l5jDolTLx9bj6lwCxR043xlrN6H82afV9QjtmrafwNbaQv/smUYsm5yDU8b1SHkGOHAQWLLTvL/gcQ6sdfjDoBJtP4FjD6B0fw5DISIioiRJpIXQk08+GVK2b9+OXbt2Ye/evXjpJe0FDREREU1IDITsHOzEnkdKsESfKUT1DqDDI8GGA6te8eH8zhJ9SVAhlixVkzNnIVdNpsKhtf6WP7EzX4/mTBc6UIZlM2XGi90rncjt9KHBuB4xswarzPPDSKjUivLOI1il70do9+oZF7CuXoVjEqaNZVBGRESU2ZIxhtD69euxZs0aPPTQQ/jFL36hh0REREQ08TAQsnH29AnM/1qOmgNmzMrD0fcG1FwUIWHSKFLds7oeMIcwsZFWQrkqqDnraUfu+hrMkAUSDr1RieKI4U8YdtvNLEbpwhPw6oGVhGkl6JLuZNYua0RERBTVaIwhJCFR7KGQB1VZ+XAFGv9Gmrcu8/NUyWPuI69jX59O5BzNj+43n2+iyxJl3ae5pPt9JCKiscJAKIn0sXkk7HipBOd3qu5Xo0Hv0qWOc8nSkidmhSh+pBVdBz1oWpcXGuQszEWc+ZKf7XY9OBVowVSIBulO9kCnfq/GbqwlIiKizDPSMYSysp4MFCGPmpfQwPg66rwubGlV0+PCIjQM+ODz+TDQANQ+7EIwe0l0WaKC+wwWNyrVUiIiIisGQkk0Y+0R/9g5etgRbzeu2B1qcOKojN9jjPmToCW1MtZREfp31IW2ZnqjHwmduu12+ZhtTYqW1mHrQmDPmI61RERElFlG2kLI53s8UPzzwfBAuN1u/evo8ML1cC3mascYjyGFw7kZlb3t+HmYZCfRZURERKNF/vYzELJh7SJm7UIW0dIWtD9ibhWTXP6BnfcAK+VJXiMIVPTuXPkoLXSoCo1eJy2H1Hys7LbTu5LlwREIhNSg3JPLgWfkOlpGv2sdERHROJHMFkLmlkKGixcvqqlR4KlH7Vw3WuL+PMvSHSrfaE0j9eG6Qxn1Xrjys5BvrOCpMm1rYlefNuQ6qrSrIiIiSp7/cvMXGAjZmpmL+c92qrBFulUhNDixOugxBTMedD1rtIqRx8CPRmshNbj1JRmTJ7H9n91Zjo25myzjD2n7XV+JPSWW7lxnGrE7YkhkbGcOqLRrn+sEAi2QJAwygqD4xz0iIiKa6JLZQsjcUsgweoGQB1VFx9FQFy4N6kVtjinw0UsRQnuWGd2h3KjsfRexjerogLPHjbm19drR5fiAu8ep1UbgdSE/5Dz8pSqGNMbr2oLWRWW4P8wBEl1GREQ0mhgI2ZlZgwOdQJmM1TNZewUR8vSsMGaeRr2+bozrJ42MyRPfsYyxjr6xvwxvhxvraGmLenS+cT1aWQksizZWkWwXuGfGfVCPpNdJiMUgiIiIKFGJtBC64YYb1FT0FkKXLl1SU8nlqSrC8Ybn4AwbesQy9o0RGkmq06K9+jGEhknDg5tCtLiBomHbmRS2wGcERQ4nekLOw1/sWzUFj59TO9cSOCW6TAmEUzmo7W3VrsHuGomIiBLDQCgSCThkTKCwAzdLEGPq7iQBklo3dP34A5uRsTtesD4w1tEr6sli4ViuZ/i6Nscx3TMpiQ14TUREROEYLYRi/SpuvvlmNTVGLYQGXNhyvAHPhU+DYmSERgO4Y4u5m5gpTHJXonVLqrt+mcMsa+CU6DIlEE4NoGFRJdz6dKRwioiIKD4MhIiIiIgyhNFCKNavYtKkSWpqLFoI9aK2qBZzN0fpqhWXXrwbW58xjeoq5pNmQjbj8JjHEBpBlzEiIqJMw0CIiIiIKEOYW/7EKp4WQrExd9OSsX6s8xaViQwkbWUcI8cyMLXp2DJG0XPm4EkGY5auanUo1P6raziOomiDR8fdZSwVZCwkm1ZERDQuye+dq1evskywIh/KXLlyRX0XpEbWU0895TO/uGhqbsPm9TV48aet+PZ37lW1o++WW2frx7zvgfH4IFIiIiJKZ1+aBFy4cEHNJWbKlCnYsr0R1asrVE1kxmuu0fbCCy/g+9//vj5tbREkjFBIQpUnnngCjz+eSEhERONBqn4Pnjt3DtOnT1dzZHXt2jV88YtfDBkDjsY/6bb9+9//HpMnT1Y18YvnZ+vQoUNsIURERESUKdKjhRAREY0maSEkYZC/5SXLRCljEQAyECIiIiLKEOaxgWL16quvhn3haS1EREQ0sTAQIiIiIsoQibQQamxs1LuCxVKIiIho4mAgRERERJQhEmkhJGRcoFgLEVH664ZzagF2DarZiPMyPRVTTcXZra9ENOGl3aDS3/0eB5UmIiKi1MuEQaXlNVuioRARUTSZM6i0hDw7MOtYN9ZkR5u3LBvchYJ5p7FuyIUCWTUNyROnpk2bFnt3Xk8Vsor8z3jMdw3gSI163mKy6s14LH16RMeyIU8Y++STTzioNBERERENxzCIiGiEsnMwBycxEGhNlOk8qCoC3D4ffD438pzlaPQms96Mxxr5sdILAyEiIiKicWzw0AacbF+Bvuav452fPIjf/e53agkR0QTU3YW2inWmlkTmrmYGo34QuwqmosBYoduJqQW7kFZZkqcTrZUlKNRnClHnAtq7vMmrN+OxRn6sNMNAiIiIiGicerv1LmQv2YY5ZfuwYPUvcOcP9uO9f70Xb775Jq5du6bWIiIa745i4zw1htAKYJ8r1s5i2VjTvQ9zNjahW0Ii2bZ7jVabPrynTyA/N0fNAY5ZeejpH0havRmPNfJjpRsGQkRERETjkIRB36h8S5uSsQyC5VvOflw8/BBeqc/By3//Vbi3/AUO1M/Bay2F+O1vf6utE4kHVSGPq8+Hy/rhp4yfYFonP2QF2T7MNrb1ibLuL9J8+GN7qszXZ3d+dvVElF7mY+uxIQwNaeXYLOwIaRVkCovCDjhdANc+YIU/SUrbcYeI4vcpAyEiIiKi8cjn8wFXmoCLFy2lAffVDaBg/SCW//ADFG3+FZbVncT5X72N559/HmfPnlV7sLMIDQMyPoIPAw1A7cMuBPIQfTDN44HlPt8AytpzLKFQBvC6sMU/JigRjTfZy1E6/yhOn1Hz5rBoXwXadqRZlzCiUXMTAyEiIiKidCbduw4fPqzmYvf5558Df/gD8H9/j55nnw0t/zhXL6/9+Gv43zscOLD1dtx4442YffHHOPn8N/H++++rvUTmcG5GZW87fq7nPV64trSi0t0DZ+ChKg44n5PUqB4eVZP+tOt4uBZz3W7w2bdE49Dgy+g4Oh+zZqr5qFRXsSFpJuTU5tKLtVuS0W0pWfVmPNbIj5VuGAhFYmryvNg6PLi+rCrsixtv42JkLW4MflqWUtJ0OdhMO7Qs1kc518+vynLmcj0hdV40LjZtq67H33x6eAncH0sz8WH3jYiIiOLy6aefoq+vD93d8b0N0QOhixfR87N9yH/0eNhy72Pv4S/XebFs4/soXlmJ+3/0awx9MoQXX3xR7SUO3p+jvbcSJf7RNIMc96Ns0XGcSuQlgbyuyDe1QEoFTz1q57rRYr2OqCyvwfTz9sKVb+o2NxbXQzRumbt6rUDbsHkz07J5HSgNPJ5emMcXOomtLeYxgmRQ6RU4ubUaBdp/1VtPYkW6DSqdk4v81k71vtSDeidQVuxIXr0ZjzXyY6UZBkK2tD/qYR8Zp4KSTth8aiT/8D1qeqzkwxVoqm2U4KdcjppNqGx92vQIPO2anj4BV5165eNtxOKsHPRvMm2/B+jSvrMLW8z7Cx7nSI32jS4vcoq0/ViaiTMUIiIiStw999yDO++8E++8805coZDRQuimm27S5kLHEQpXPj0rb3Fa9cGmP/jgA206Oq9rC1oXleF+4/XuojsQ/rPQXrwb+NC0F7U5puBEL0X6WUTkdSE/ZBt/sX7GNTLy+u84GozXRCFiOW+jO532Oqn3XQxIC6keN+bqLaTUa8sep1ZLRCNTAJd08YpYjNDHuq45DLJbJvUyLYNKD6FbbZC9phtDaTaotPbmDkfcQJH6nQT3Echbs6TVm/FYIz9WmmEgZMf2kXEO1BzR/tC3lOhLrLyNTwMu7QWLmk8FT5W/5U/sLI/A83ahHWXwh5deNJY7kef2hX4ypn1z10T8pExCJWkmbv6m1+7VHu1ATqOZuIRp4VtVERERkb2CgoK4QyH9KWJXrugf0ui06Ujl8uXL+moSJAW2CSsYjOTUzg0NOPQQJJxFuCOQFAXHIAoWm+5ZhS3wGft3ONETso2/xN+Sx56nqgjHG54zdXkzi+W8jXsjbwRaAq8jW/Q3COY6IqIkkt+V4X4nJqvejMfyG8mx0ggDIRvW/n7W/oBheRtR3r8JLcVqfrSp7lmdJfEnj9JKKE8FNd6uduRtqvG/2JJwqCdMc+9o7LZzFKMs/wRO69mThGkl6JTENLkf5xEREY17S5YswS233KKHQh999JGqDVVdXR34qrcQ0nz22Wf6V308oQjFHAhFZg5GTAGH3jWsFZ3WP/F6V7K5mB3na5WUG3Bhy/EGPBc+DYqRcW8GcMcWPn2MiIjSGwOhpJGWNe0oC9vEOMn0Ll1ZyOosGUHyWIiSSnnRJl3c8kKDnPxcm+beUdhu14NgllaIFnkBWdIJCbOYCxEREcXm0KFD+Pjjj/WWQrfddpuqDdXU1BT4qrcQ0gQCoWFPGwstly5d0leLHgjZccC5uRKtRebWwB5U5dQCDXWJtYwxj7kzql3GelFbVIu5m5PZncvoJmcMQyDNhNhSmoiI0gcDoSTxNpajvWxPSvoIeuqd6JHxe0YYPhXWuXCiqAgnXJYXaT39Ns29o7DdLh/DBlcvrIMrH5YXjURERBSOdBOTlkESBkn3sVgYgZAMSq0L0yrIXIwWQvJhkwQtCZGm8oHxE6ToSQh6RtTqRom7y5h5zB8Z68c6b1GZyEDSVsYxctTA1DKotHRDk9dahahrOI4iDipNRERpgoGQjfgeGecfSLrHmeN/kZGjvWDpcSJnlJ405h/YeQ9QLi84RhCo6N258kNHPtfrwjT3jsZuO70rWR5mBQ4h4wjJeZcDe+Q62JeeiIgoEnnkfLxhkMj5q1fgdrvxx6t/xL/96EfoeOEF/GzvXvx0zx785Nlnsfef/xl7WlrwL83N+J//9E/o7e1Fa1UVXvp1MW699Va1Fytp6Wt+rHwYpvEThgc2dtvb1Mu+EhqEWbVIjliM46l1h6VB5nOK5bwtx9T3J4NKBwMxh/Z6MbHrISIiSq4/XPkjAyFbcT0yzvICYMCF/HwXBo7IuDweVKnHvSeXGtzaJ2PyJLZ/adXkzNtkadWk7XeTNPe2NMH2NqIxYkhkbGdtJq7duEALJAmDjCAo/UdcJyIiSgfylLAFCxbEFQaJ22+/Hbcs/Rl+ed1qHPpkBV658D289ocf4PXLf43ezyrw5tVH8JZvJY5lVeGX16/Gf3zhb3H8xrVYuHBh3MciIiKizMNAyE7GPDJOwqj4zs3buFhvyZTTXoaBcG2j5dO4AelOJteuSjlQHGbVEDbNxPVH0uskxGIQREREFI+7775bf/R8ImTbNWvWYMOGDairq8Njjz2GmpoaPProo3q9fJV5qZflsp7Uy3ZERDR2zp49G2xwwDIhyocffqi/j06lrKeeespnPJFCNDW3YfP6Grz401Z8+zv3qtrRd8uts/Vjfvd7YR86SkRERDSqLly4oKYSM2XKFGzZ3ojq1RWqJjLjNRcRUbpI1e/Bc+fOYfr06WqOrGRw/717947434Myi/z8PPTQQ7juusTb7cTzs9X5cw8DISIiIiLBQIiIJjoGQkSZLZ6frb0/+1/sMkZERESUKcwf4hERERGNBAMhIiIiogzR1NSkpoiIiIhGhoEQERER0Tg2eGgDTravQF/z1/HOTx7E7373O7WEiIiIJjIGQkRERETj1NutdyF7yTbMKduHBat/gTt/sB/v/eu9ePPNN3Ht2jW1FhEREU1EDISIiIiIxiEJg75R+ZY21RpSvuXsx8XDD+GV+hy8/PdfhXvLX+BA/Ry81lKI3/72t9o6kXhQlZUPl1fNRpy3LvPzVGUhK8o69vXpRM5RrsUoYc7XU2VanoX8kBUy+dqJaDTJI8ivXr3KMsHKpUuXcOXKFfVdkBoMhIiIiIjGIXlDgStNwMWLltKA++oGULB+EMt/+AGKNv8Ky+pO4vyv3sbzzz+Ps2fPqj2MAq8LWySXGjcWoWHAp9/rgQag9mEXAjmOhEFFxwPLfb4BlLXnWEIhIqLh5LHzf/Inf4Jp06axTKDyxS9+Uf+3T6W0e+z8fQ/wsfNERESUWl+alL6PnZfuXZ9++inuueceVRMbGTNowYoVwB+voudn+1RtqD/+8Y8hn076tP9E3sNHcPvtt+vToaT1yhbcMdADpyPavHWZF678HLy72Q0U2a1jsKtPJ5Gu3bhWH1oK9ZX9vC7k57yLzb4WFNpeYyZcO41XfOx8epDfxxIQSMtCmjikddAnn3yCyZMnq5r48bHzREREROOIhEF9fX3o7u5WNbHRP2W8eFEPg/IfPR623PvYe/jLdV4s2/g+ildW4v4f/RpDnwzhxRdfVHtJIk89aue6QwOSmEhAYuqalW+0wpH6SF2uJJQxddOSFjuBbU3s6kfC+3O091aixHqtjvtRtug4TiX1YERERIlhIERERESUxqRl0J133ol33nknrlBID4T+8AfcdNNN2lzoOELhyqdnB/WvMtj0Bx98oE0nkwdV0n2qLlwa1IvaHFPgo5ci/ayCjK5ZblT2vosBVRuZA84eN+bW1mtHl+MD7h6nVhuBtOAJOQ9/qfKo5RF4XVvQuqgM9xsHWHQHctRkqF68G7iAWK6diIhodDAQIiIiIkpzBQUFcYdC+lPErlzxjyUkZKDKCOXy5cv6ahIkBbZJEk9VEY43PGfTBSo4Dk+wuBE6iIARnEiqI92tDKGByvDgphAt0kNt2HYmhS3wGUGRw4mekPPwF/tWTcHj59TODQ2cbIOrRbgjkBTFcu1ENFw3nFMLsEtybF20eb9u51RMdcbX2pJoPGMgRERERJQBlixZgltuuUUPhT766CNVG8oYF1K+GgNTfvbZZ/pXaS0UqZgDoaQacGHL8QY8N6IBcYzgZAB3bDF3EzMFKu5KtG5JctevqMyBjilw0ruGtaLTGlDpXcnmYvZIbgURJWZwF3acrEDFyR3DgqKMZ3qi4eJG02/BZNWb8Vh+IzlWGmEgRERERJQBDh06hI8//lhvKXTbbbep2lBNTU2Br3oLIU0gEBr2tLHQIo+7FckNhHpRW1SLuZujdNWKi7nLVTSqq5hPmglVaXNhyIt3YwyhEXQZC+WAc3MlWkOOqZ1LTi3QUBe+pRIRjarBlzuA0mpUlwIdL4+nRMj4PSfBtBt5znL4c4hk1ZvxWCM/VnphIERERESU5qSbmLQMkjBIuo/FwgiEZFBqXZhWQeZitBCS1i4Sgtgzd9OS8W6s8xaViQwkbWUcI8cyMLXp2DJG0XPm4EkGlZauahLAFKKu4TiKog0eHXeXsQikK5reXS14b7R3Cejho8OIxsAg9DxoeTayl+uJkFZjJl3MpmKqXoyuZqrbWfcuFKhlBenYtMjTidbKEhU0a7/rXEB7l/abLln1ZjzWyI+VZhgIRXKwCtMmZ+ll2U7LP6S+rAqH1Kw4u3NxYH3rstTxoDZwDtayGLvPqPNca/moS64npM6L3feZtr2vEWe12kNrTXWmErg/pnsWUk9EREQJOXz4cNxhkMj5q1fgdrvxx6t/xL/96EfoeOEF/GzvXvx0zx785Nlnsfef/xl7WlrwL83N+J//9E/o7e1Fa1UVXvp1MW699Va1F6tCtIQJTEKL8bh0te6wNEXqzeuEe7y6dR3T/gP7s9QP26cMKh0MYBzOnuBYQWbmMYTiYnfuJrJv0zmG3gq77WPYLxHFZ/BldKAUy7O16Vwos+QAAGgYSURBVOzl2lQHhjUSmr8Vx4b2IfSB+UexcQfQMjSEoWNbgY1VadfdzHv6BPJzg0PYO2bload/IGn1ZjzWyI+VbhgI2fKgtgRov+TD+Utu5K4r18OUQFDyElCurxd05r0elHfK+lJasETVp14+th43zsMo7sD5zli7CeXPPq2uR2jXtP0EttaqVylnGrFscg5OrTdt/wxw4CCwZKd5f8HjHFirvWqRMKhE20/g2AMo3Z/DUIiIiGgE5ClhCxYsiCsMErfffjtuWfoz/PK61Tj0yQq8cuF7eO0PP8Drl/8avZ9V4M2rj+At30ocy6rCL69fjf/4wt/i+I1rsXDhwriPRUSUzvzdxZZD8iBo/5dGQhubTINLd3ehbU6OWm42H1tb1vjrs9dgXcVRnA68hyLKfAyE7BzsxJ5HSlSoU4jqHUCHR4INB1a94sP5nSX6klD5mD1TTabQobX+lj+xM1+P5kwXOlCGZfq5e7F7pRO5nT40LNWX+s2swSrz/DASKrWivPMIVgXugXavnnEB6+pVaykJ08aq5RQREVFmuvvuu/VHzydCtl2zZg02bNiAuro6PPbYY6ipqcGjjz6q18tXmZd6WS7rSb1sR0Q0PnSjaeNRHN04T3UJm4p52jzaurQlao2uNlQURwvCBzFwUk0SjRMMhGycPX0C878WbO41Y1Yejr4XqbmXF97+Hmycm8KuUqp7VtcD5hAmNtJKKFcFNWc97chdX4MZskDCoTcqURwx/AnDbruZxShdeAJePbCSMK0EXdKdzNpljYiIiEbFtGnT8OUvfxlf+cpXMGPGDDgcDsyaNQt33HGH/lXmpV6Wy3qyPhHRuCGtf/TuYEMYCpRj2Dq/DV16ItSNrrYKhM+DjgYHoJZuZ0ft1hs71m5JRrelZNWb8VgjP1Y6eeYf/zsDoeRRLYdUd6pgF7NRoHfpkm5rJfrxQlryxKwQxY+0ouugB03r8kKDnIW5SKihk+12PTgVuBeFaJB79ECnHmbVHlTVREREREREMTuKjfOMgaBXoG3YvJ+0/pkf6C5mkG5j89HW5YRTX7cNK0L241Sth+Zjzukq/z7nbcScfS6kXYfanFzkt3bC/3G7B/VOoKzYkbx6Mx5r5MdKIysf/f8xEBodErb0BLtkJdmhBqf2ayo/OOZPgpbUutBfUoT+HXWh4x290Y+Esizb7cJ0pVtah60LgT0l7EJGREQUq+rqajVFRDSRFcAV0uInXOnGmmxtTdcQumXCIntNN4ZcxdpUBfaFbBc6sPSsam09tcyVjsOrOWpwJPBEQ3ma4RHUSAaRrHozHmvkx0orX2IgZMfaRczahSwWubNG51/fP7DzHmCldE8bQaCid+fKR2mh6Tz1Omk5pOZjZbed3pUsD45AIKQG5Z5cDjwj1zGWg28TERFllqamJjVFRESkmJ5oGPI0w2TVm/FYfiM5VhphIGRnZi7mP9upwhbpVoXQ4CSSM42of9ZoFSOPgY930OdYGF3UZEyexPZ/dmc5NuZusow/pO13fSX2lFi6c2nXtDtiSGRsZw6otGuf6wQCLZAkDDKCoPjHPSIiIqL4DR7agJPtK9DX/HW885MH8bvf/U4tISKa6KSlkbUbWLg6ovGJgZCdmTU40AmUyVg9k4uAkKdnhSPBj6yrlbnylK5UBR4yJk98xzq7c7F+nt/YX4a3d4aJLZe24Pxx6U6mrkfKSmBZtLGKZLvAPZMi9009kl4nIRaDICIiolR5u/UuZC/Zhjll+7Bg9S9w5w/2471/vRdvvvkmrl27ptYiIqLhJBjydzsjGp8GGQhFJAGHPkh0uIGbJYgxd3dSgyUPWz/+wGZk7I4XrJ+x9oj/PF9RTxYLRwIx0/UMX9fmOKZ7JiWxAa+JiIhopCQM+kblW9pUa0j5lrMfFw8/hFfqc/Dy338V7i1/gQP1c/BaSyF++9vfautE4kGVPjaCUfLhCgyZmOiyZIhh/54q0/Is5IesINuHOye7eiIiosz2zD/uZyBERERENB7J+AW40gRcvGgpDbivbgAF6wex/IcfoGjzr7Cs7iTO/+ptPP/88zh79qzag51FaBjwj48w0ADUPuxCMC9JdFkyRNi/hEFFxwPLfb4BlLXnWEIhIiKiieNv1v4dAyEiIiKidCbduw4fPqzmYvf5558Df/gD8H9/j55nnw0t/zhXL6/9+Gv43zscOLD1dtx4442YffHHOPn8N/H++++rvUTmcG5GZW87fh4mV0l0WTKE7t8L15ZWVLp74AwMB+mA8zlJjerhfzwwERHRxMNAiIiIiCiNffrpp+jr60N3d7eqiY0eCF28iJ6f7UP+o8fDlnsfew9/uc6LZRvfR/HKStz/o19j6JMhvPjii2ovKSYtefKT3HLI+3O091aixDpsouN+lC06jlOjFEoREY2EtNb0t2hkmSjlww8/1Ls0p1LWU0895auurlazQFNzGzavr8GLP23Ft79zr6odfbfcOls/5n0PVKoaIiIiotT40iTgwoULai4xU6ZMwZbtjaheXaFqIjNec8VCwqB33nkHd955JwoKYnv2jbQAyr/vPrx95Ai+URn99dWnPT24KT8fe7TXhW+j0uYR9zKmzhbcMeBvbeN15SOnvQwDPU44El5mIoHQljv89V4X8nNq0asWGSrd4R7lG2H/sp+Hgeesx5KWQ/k5eHez7E+2L9JHWRpOuqKZWxcRjV+p+j147tw5TJ8+Xc2RlQT6e/fuHfG/B2UW+fl56KGHcN11ibfbiedn6/l9LzEQIiIiIkr3QEjEGwr9v65cfOtb38Jbb72Fu6qqgCtX1JLwho4cwdS//Ev8y9q1OJZVhX/8x39US8yswUkl3L4W+POZRJclQ4T968HSu9g87HgSCOlJEZwO2T4YKAXZ1RONTwyEiDJbvIEQu4wRERERZYAlS5bglltu0UOhjz76SNWGMj7kk696lzHNZ599pn/VxxOKUC5fvqyvZmxnLzh4s29YyJLosmSw2b/eNawVndbBgvSuZHMxm0EPERFNUAyEiIiIiDLAoUOH8PHHH+sthG677TZVG8ro5iVfr127pk8HAqFhTxsLLZcuXdJXix4IjSLzGELSssf0mHijVMU9CrQDzs2VaC2qQnBTD6pyaoGGulEIpoiIiDJD2nUZ++732GWMiIiIUm+8jSHUvT1bX/fAgQNYtnEjcPKkWhLeibfeQl55OVqrqnDipkdjGkMoVKLLTMxjCKmq2MSwf/3R86ZOZSFjEdltH+N5E40T7DJGlNkyfgwhBkJEREQ0FtI1EJJHzstTxuIJg4Q8Or7/+W/hc9/nuHb1mt7yR1oNGcWYl69Gke5WL/26GAsXLsSmTZvUnohoomAgRJTZOIYQERER0Thy0003YcGCBXGFQeL222/HLUt/hl9etxqHPlmBVy58D6/94Qd4/fJfo/ezCrx59RG85VupDyD9y+tX4z++8Lc4fuNaPQyK91hERESUeRgIEREREaWxu+++G/fcc4+ai49su2bNGmzYsAF1dXV47LHHUFNTg0cffVSvl68yL/WyXNaTetmOiIiIxjcGQkRERETj2LRp0/DlL38ZX/nKVzBjxgw4HA7MmjULd9xxh/5V5qVelst6sj4RERGNfwyEiIiIiIiIiIgmkP9y8w0MhIiIiIgyhflBIEREREQjwUAoEnk8aVaWXhY3elWloi+rgkfNGjxV/vWzshbDuklqyONRjXOwFv85eRsXI6vKcuZyPSF1XjQuNm27uFGrMV9faAncH9M9C6knIiKiEQv/KHgiIiKi+DEQsuVBVRHg9vng87mR5yxXAY8KSjoB6wPyJSx5OndAf2Srz3cENQ61IOXy4RqQczAXd+B8HTWbUNn6tCmw0q7p6RNw1RWq2UYszspB/ybT9nuALg9Q2GLeX/A4R+RiJQwq0vYTOPYAytpzGAoRERElSSIthJ588smQsn37duzatQt79+7FSy+9pNYiIiKiiYaBkB1PJ1orS+CPSApR5wLauyTYcKDmiA++lhJ9SZAHnSdc2DMGKZCnKt7WSObr0Xi70I4yFOun7kVjuRN5bh9aVD6kc9Sgxjw/jIRKrah0m4Mw7V7t0Q7krFctqSRMG96qioiIiGKTaAuhxx9/PFDWr1+vP0nsoYcewi9+8Qs9JCIiIqKJJ+upp57ymT9tampuw+b1NXjxp6349nfuVbWj75ZbZ+vH/O73rO1uxoZ0qyrHHn/LFyGtXzpL4AukJNI1qxMlvhZ/aKQvBypbW9Eq8/kuDBypwajGQ3qLHAlhzOGNnNfTyB2wtlCy1gfPP0e71vpZR/z7kNZBOf3YZFyXLcv+bLeTEKgc2GM+bhFaK92me0lERDT2Lly4oKYSM2XKFGzZ3ojq1RWqJjLjNRcR0XgSy+/Bc+fOqSkiSrbp06erqcg6/pebgZCdhAIhvbuUP/gwuo8Ftk8mPXxxoidsqGINfgzD6+UcO0vcQJHpOmTfen4TLcwKEwiF3U4CIX/3s5BTDRtmERERjZ2xCISIiMajWH8PEtHY+X/+nzoGQnYSayFkWj5s/eSRIKeoVcbvsYY+IvZAyAiWtB0Fr9O2pY9VmEAophZCBn9Q5OyphDvqsYiIiEZfqgMhIiIiorFy8OBBjiFkxzErDz39A2oO8J4+gfzcHDU3tvwDO+8ByuVJXiMYk8dRjLL8fJT5Bw/y0+ta0RnvTu22k/GJevIwK3AICYLkvCUkkutgGERERERERESUagyE7OTkIr+1U4UtHtQ7ERqcWBWWmJ7c5fUPsFwiUYe0pBmNR9Crwa19JehMcP/exnI48zZZWu5o+91UidaiLIQ+hb4RjRFDImM7c0ClXbveAqlOhT5GayE573Ctm4iIiIiIiIgoFRgI2XHU4IgMr5MlrVnk+fPRAoxCtAyUoT1H1s+BM8+dorFxtOPGGa5Id7gs7bpy2sswEO4kC1vgG3DhRJFciyrlQHG065HtAvdMiv7cftM4ShJiMQgiIiIiIiIiGmscQ4iIiIhIwzGEiIiIaKLgGEJERERERERERBMQAyEiIiIiIiIiogmGgRARERERERER0QTDQIiIiIiIiIiIaIJhIERERESU9rrhnFqAXYNqlshscBcKCnZB//YwTxNlLPmdNxVTTcXZrRZRDHj/KDYMhIiIiIjS1iB2FciL+RVow1FsnCfTTu2lPpFJ9hq0lHZgnrzxm7cRc9atQbZaRJS55mPrsSEMDWnl2FacXMHfffHh/aPoGAgRERERpSUJg+aho/SY9oJ+HyqMF/f7gBUMhcgie023/42fVlwFqpJovMjOwRycxACbviWG949spF0g9MllFhYWFhYWFpbUlrQ0+DI6jlZg3RpLW48CF/ZVtGGH3n8stCvZ4K4CTA3pWma0MDKKsSxcFzTrulIkeFLrdu9CgaovCN1QUV0ULN2VQs8p0vmal6l96X0cohxfukipeinBbhGxHktY50PvhbM73nvjXz+ki0a3U90b87FkWtvOfJ1hzyl0Wez3lGic6O5CW8U6rMn2/2wFfgcEfq4U298HQv286SX8z0+QXX2GCtw/fSbKNfMeTyRsIUREREQ0Bs6dOxex4MxpHJ0/CzPV+tF1o6lDOglYGd0GpJVRJNlY022sZ2zjgr+xyVFs3AG0qK4H2Fhl8yJ+vvZfB14OvnPAy6fDnZOwO195M7IC2KcdK9DUxe742hsK6SIl6wa6RYR/4xH+WOHI8Y2WWf79ugrivTfa+usq0NYVfKfU3dWGipCuXOGuMxaRriV0WbjvKxaWVJRowm1jLn5GN1mtyI+K/nMiP4v7MGdjk/bdrv38S3238XMVw++D+VtxLOrvwlDhzm+0SzThtjEXv3D3LxYT4x6P5xKrgwe7GQgRERERjZXp06fbFsychflHT+OMWjdoEAMngTk5oS2HuuVV+7p1mKPm/c7g9NE5sKyqmN4sRO2CNh9bW9Qbguw1WFdxFKeHn5iutHQONjapvXU3oWNWqeWc/MKfL9BR5Q9jQt+72Bx/cAAntbcdxca6NucW/ljm65cxmhS7llm2bM6toBgVbV3qvnaj6+RWVJuuKfx1Rmd334R1WbjvKxaW0S6xCretUfyM8FWCh1nYEWhNUgCX3nVW+37fZwSzmmi/D6SVzJwcFWyYmX8XWFu8pP7nKFbhtjWKn939E5Gvebzf4/Fc4rH43u8wECIiIiJKS/oLbaNrmEl3EzYeNb0gF2d2YQf2DQ8X5MW5bSuj4JuFYBe0WPgDKVvLq7H1pD8I6e46idLlOf56M7vz1d40yHkdtSY6IaIc38r2WKY3S3F+mm3PfG4FqN56Ur+vg7t24GTpctObpFiuMwzba9FEWkaU6bKXo3T+8LA3HnorvZBfnAbT74J9FWjbMQ6f0jfs/o3ONU/oe5yhGAgRERERpakC1zGUdsxDyFPG5APbQHclodWv6ECpufmJIi/O54cEEYk6ig6jH5hqQRP2Nb8uG8tLJQjZhS4YY1aY2Z+vvGkobenGPqywjFNkc3x9oNQ2BHpmDe7CjjbzuUU6lg39jVM8AZn9vcleXgp0NOnduEqXm2+E3XVGEulaErhOokyi/2zNxyw93VbdmIakCYupdWPE3wfd6Ar53TDBhNy/WPAeTxQMhIiIiIjSVqSxa4Lmb22xBC/+QUFXnNyKFtuuT0cDTfhXaC/iI3eRmo85p6v8zf318SOGn4NZ9pp1mLNxI+zeGQw/31CBICwwkKnd8Qvg0sew8F/H1HkdKD0Wem7RjjWcMX6GBHH+/Q7vTmEW4d5IK685bWibEy4YC3edwX+TYAgYfDMW6Vriv06idGf6edB/tru173H/2Fsnt1ZrP2f+VngrAj8/dr8PuuHUf57asCLsz5bpOCtOBruAZrxw908tinjNvMcTSdZTTz3lq66uVrNAU3MbNq+vwYs/bcW3v3Ovqh19t9w6Wz/mfQ9UqhoiIiKi1PjSJODChQtqLjFTpkzBlu2NqF4dW+cjGfgx3v7+Y0Ne6O/ArJA3E6k01sePJPq5dTunoqs40UfBy/67UBwmBCRKV7H8bkvt779wP0fp+7OVfvcvFpl1j8ezeL43Ov6Xmy2EIjpYhWmTs/SybKdXVSr6siocUrNndy4OrBssweWp40HtsPMwymLsPqPOda1Hra/I9YTUebH7PtO29zXirFZ7aK2pzlQC98d0z0LqiYiIiCYa6U5hGUyaiIgoXTAQsuVBbQnQfsmH85fcyF1XrocpgaDkJaBcX89vxtoj2nqyrr+8vSMf83fUYYlanlr52Ho8eC7+4g6c74y1m1D+7NPqeoR2TdtPYGttoX/2TCOWTc7BqfWm7Z8BDhwEluw07y94nANrHf4wqETbT+DYAyjdn8NQiIiIiCYYf5c9vTvFiLpGFMDFT9eJRijczxF/tpKL9zhTMRCyc7ATex4pUYFOIap3AB0eCTYcWPWKD+d3luhLwvOgaV0e6iQkSYFDa/0tf2Jnvh7NmS50oAzL9EHGvNi90oncTh8alupL/WbWYJV5fhgJlVpR3nkEqwKDlWn36hkXsK5etZSSMG0sWk0RERFR4uRF/Vh21xrr40did27G2E/pet5ERDTR/Zebv8BAyM7Z0ycw/2vBx6TOmJWHo+8NqLkoDnaiPxWtg1T3rK4HzCFMbKSVUK4Kas562pG7vgYzZIGEQ29Uojhi+BOG3XYzi1G68AS8emAlYVoJuqQ7mbXLGhERERERERGlDAOhpPN3vyotHMXWQXqXLum2VqJ3zQppyROzQhQ/0oqug/7WTCFBzsJcxJkv+dlu14NTgRZMhWiQ7mQPdOphVu1BVU1EREREREREKcNAKNmkpUzuprhb7MTjUIMTR2X8HmPMnwQtqXWhv6RoeGumN/oRVw80g+12+ZhtvR9L67B1IbCnhF3IiIiIiIiIiFKNgZANaxcxaxcyO3r3qwdGFtRE4x/YeQ+wUp7kNYJARe/OlR/amkmvk5ZDaj5WdtvpXcny4AgEQjKOkJx3OfCMXEfLGA28TURERERERDRxMRCyMzMX85/tVGGLdKtCDN3AvDiwH5bWMPIY+HgHfY6FGtz6kozJk9j+z+4sx8ZhrZm0/a6vxJ4SS3euM43YHTEkMrYzB1Tatc91AoEWSBIGGUFQ/OMeEREREREREVFyMBCyM7MGBzqBMhmrZ3IREPL0LDsDOBXSGiYVZEye+MKVszsX6+P3fGN/Gd7eGaY109IWnD8u3cnk2lVZCSyLNlaRbBe4Z8Z9U4+k10mIxSCIiIiIiIiIaCy53W5kPfXUU77q6mpVBTQ1t2Hz+hq8+NNWfPs796ra0XfLrbP1Y973QKWqISIiIkqNL00CLly4oOYSM2XKFGzZ3ojq1RWqJrJz585h+vTpao6IaHyI5Xcbf//Z4/2jkYjne6O7u5sthIiIiIiIiIiIJhoGQkREREREREREEwy7jBEREdGEl+5dxq5evaqv/9lnn+Hzzz9XtZlj8uTJmDZtGm644QZVExmvN7PweiObaNcr18ouT4nj/aORiOd7Q7qMMRAiIiKiCS+dAyF5M/nhhx/iT//0T/X1r7susxp4yxvg8+fP4ze/+Q2+/OUvR31Tyevl9aYzXm/0UChZgcb2l/8Tza/+H1y4fFXVDDdl0g34wd1/im2lX1U1mS9Z9+/AgQM4fPgwLl++rGqGmzRpEubPn4+SkhJVM37w+yc6jiFERERElObkzdif/dmf4dZbb824N5NCzllenEqRF6rR8HozC683sol2vcmyfv/72O75z4hv5oUsb371I/3NPwV1dHRgaGgIjz/+OBobG23LunXrcOXKFT08Gk/4/RO7zPutRERERDSBXLp0CVOnTlVzmUveUEqXmWh4vZmJ1xveRLveZHmhL77wSd7Uh+qGU7vvcu/9ZSmaB9Ui0e0MLFsasmB8eOutt7B8+XK9BVAk0hXwwQcf1FsShbLeP3Ox3EtNt1Ord3arOYvBZiwNs/1g89Lh28i/i143iOalwW3sdm0nOd8/Tu3/ZqHnNHVps1ZjYnOdAdGW69+T1mOOPgZCRERERGnu+uuvV1OZS65Bup/EgtebeXi99iba9SZDtJYdVhcuX1NTZguw7diQ3lLm2DZgwyrjDbz2Zn8FsE+rHxrah9wNq4YFHJlOuolJ2BMLCY3CdysL3r9g2YdhnaIHm1HfX4GK/vrw9/HMKfRV7Bu2ffbqOlS0mbcZRHN9P7ZVF2jTZ+CoU8fU/vH6V8QXlCTn+8dED3Pm4ZRxTlJ2AwesJxXmOgNs7oN+3RI0dWmbq5pUSrtASPrws7CwsLCwsLCkshARUWYp/+Z/U1PR6eFDXwcOSPjQ3YW2imJI7ADt/9XbgA59ASVi8EAHUFqN6tLw93HQ248Fs2eqOTPLvR88gA6UYlm2zBSgwP8PpP3jOZCrJpMp9u+fQTSv2oDcfUNwGecksldjtXn+zCkg7HX62d+HbKw+OIQhV7GaTy22ECIiIiIiIqKM0fY3c7X/+/wzcbK+Mc925KLv1Bk1R/EZhJ4HLctG9jI9EVKtsILOnOpDrkNPeYaRoC53Q5Pe+keCpdy61Ri2ZkiAlxxxff9IUNVXgeIoJ9Dd1WZ7nSLSfRgrbrebgRARERHR+PMyVl1/vd7Nw1++iSbr+52XV5mWX49vhqwg24fZxrY+XUW6DzHco7SX6PVl4rXLOVuvwW7een3XY9XL+krjxPDrC5ZM+LeMT8m8W9WUn7yZ//f3Psae1z9UNdENNtejbYHR+oSSxtyqJ3uZNqVaYQUMwtu/IELDmQIUV7Shq7sbTRtyQ0IXfYwhGWunqxhDIU1z4pPw98+C2Qictnk6rGjXGW352CgqKmIgRERERDQ+LULD6Wu4du0aTjcAteVNCL53XoXri08Ell+7dhpl7bMsodB4EeE+RFyWKRK9vvFw7ZEEr++adoEnildhXGVC5usLlC6sVEvHk6mTv4B/+Zs8fTq+MKgPG+b5B/CdtyEX+w6GaX1CI+LvLrZM3ddsSCOhDU3mgXXO4FRfLiI1jCmoljGCVqB/W3VIK6Ds1Qf94+0Udw0fgDkOiX3/zMRscz+1vlORfz+GdHcLJ/p9GCsMhIiIiIjGuZnVm7Cytx1d+ivaM2h6+hms7Hod1YFPK2eieo+kAvXj7E1zqND7ECrSskyR6PWNh2uPaOYs5OEETo/X6xvn2l7/NV577xOc/e/3xNkyyDwosisQNli7iNmP7UKRSauePvRtmOdvyaMHb33aP1hXcADoQS/6o7WukZZFCxbo3c7CKnBhX0UfEu3Vl9j3TzZWu1SAqJ+ftGLSF4QVGoyFEct9GCMMhIiIiIgmkjNdaO9diZLlat4wsxhli/immcahlzvxzMpNqJ55Bk3fNHWPlJZy3xxvLaPGJ3lT//Uf9cQRBkUwczYWBEILCTX8Y+BQnGRsnwXbcEwP3IxyDNtM4YkEJX25DvugRDPYvAobcuuw2rxSd3cwVNKmutpG1t0q/u8f82Pns7G6rgJtKyyPvx9sRrM+7+/uVhdyAaFiuQ9jhYEQERER0Th3pulpPLOoDMXGC+pFuchRk6F60T+gJrXp2lnW8UmK8YxamomG3QeTSMsyRaLXNx6ufTjT928x0LVbEtCZqH69C3l6S7iXsUrqX69Oy0/tJ7opk25QU0FDl+wfJT5lUhyP9s9ejYP7gBV6qxZ5/vzB0DBiHLB/lPxw58+f19ePlwyivGBYqxjpNrYAbV3N+qPU522Aeoz8cMYYQfM6SnHMOkbQTC/qVaujRP6Nkv79U+BSj783zkkrq4BlBRIcrUCb9p//+8koUmfusmh/H8YaA6FIPFXIysrSy+JGr6pU9GVV8KhZXaT1U8aDKnUOw8tiyGl5GxcjqyrkzP3nHlLnReNi07aLG7UaWc1UZyqB6zXdg5B6IiIiSrHgG+JZtXmhb3x7+xHIfUIsQm4gKRovY5REuA8Rl2WKRK9vPFx7JOYxhHLxdGCw5eXY3QUU+1MibY7S0epv/5mais0PFvypmjIUwDUUIUSQN/iqVcsIxitOW/fccw/279+vhz2RSGjk8Xhw1113qRqD3f0L1he4hnAwzA3Wx/5xrfY/Sn3YPoLbB8YICje2k4R2gVZH8f8bJef7J9jNUGc5p+B5m7smmss+VASW2d+HoDDHTAEGQrY8qCoC3D4ffD438pzlepgSCEo6gUp9PYOsfwKuAev6YyFfnYe5uAPn66jZhMrWp03np13T09q51xWq2UYszspB/ybT9nu0v5keoLDFvL/gcY7UOPxhUOAeSBlAWXsOQyEiIqIxYQ50TG989a5hz6DTOliQ3pUsD7PGVyqgsbkPukjLMkWi1zcerj1G+ve8ufUbpbv1y/8cq++9LWxLDzNZLutue/B2VUNi2bJluPnmm/EP//APqKmpsS1PPPGE3oKltLRUbTk+8PsndgyE7Hg60VpZAn9EUog6F9DeJcGGAzVHfPC1lOhLAryncSK/DMUOmSlESWVPyv7oeKr8LX9iZ74ejVd7AQjj3L1oLHciz+1Di8qHdA7tl4Z5fhgJlVpR6T4CyYb8tHu1RzuQs161pJIwzdKqioiIiFJsJqo3rcQzIU9dehmrZtUCDXXjOxigiUkPO43Wb6qr2DVpJjTenjw2vmx78Kv4YPtdGGpcaFtk+frCP1dbkFlJSQm2bt2KH//4x7ZFli9fPj5/66fm+ydcSx9DpGXpg4GQDe/pE8gPtpmGY1YeeiIlPI5ilKEd/ozFg87WSpREDFCSQHXP6iwxhzCxkVZCeSqo8Xa1I29TDfx5kPYHsyeBc7fbTu5L/gmc1u+LhGkl6JTuZNYua0RERJQ6y3dDfz98vb/LkIwNpL1DxuvBx44RpaFgNzf/eFbWeTPTslntKDstT9WTQaWLcUIPPpejruEEijmoNBFNYAyEkkZaw5ShPUfGzpG+Zi2qddEo0Lt0Sbe1Er1rVkhLnphJK6ZWdHo8qHfmhQY5+XYDTUZhu525tVQhWqQ7WUmnHmYxFyIiIhoNy7H7mvmx8mFIKKR3F/IXfczdALvtY9hvWol0vpl2LeEken2ZeO1yzsHv1/DFuCbruka9DCodDD5nVr+Oaxk5dpLdv18m/rsS0Vhxu90MhJJGQppyYI8+do4PJZ2jF3Z46p3okfF7jDF/ElRY58KJoiKccNWFhlc9dgNNRmG7Xb5pgEqlsA6ufKC1iF3IiIiIiIiIkunAgQP44Q9/iMcee8y2yPLOzk61xfiy/eX/xFfXv4WpNW/YFlm+oeMDtcXEU1RUxEDIjrWLmLULmZV0u0JZsb/blaawpBKtnaMTdfgHdt4DlEtrpBEEKnp3rnzttE39zfQ6aTmk5mNlt53elSwPswKHUINyZ+npmXYdo9iSioiIiIiIaILp6OjQn3T1+OOPo7Gx0basW7cOV65c0cOj8WT9/vex3fOfuHDZ/lHzQpY3v/qRHh5NVAyE7OTkIr+1U4Ut0q1K8h77gXr0AKm9C8bYzp7OVhUgyWPg4x30ORZqcGufjMmT2P69jeVw5m2yjD+k7XdTJVqLLC2cvNovjYghkbGdOaDSrj1Hu3GBFkgSBhlBUPzjHhEREU1E1113nd7tJdPFeg283szE6w1vol0vpYe33npLHyx60qRJqia8adOm4cEHH8Thw4dVjaEbzqlT9SeQDS9L0TyoVlO6nVq9s1vNWQw2Y2mY7Qeblw7fptsZqNP3qbZZaj1gFC/0nVNTsZFQKJRcv1P7v9kgmpearmNps1ZjYnOdcd1Luf5hxx1dDITsOGpwxA0UyVg9+phAUQKMwhYMlLUjR18/C0Vw+x/FPupkTJ74whVv42L9HHPayzAQbgAi7Vp8A9KdzH8teikHiqM15ZHtAvdMiv7cftN9kBCLQRAREVE8brzxRpw7F9+L23T0ySefYPLkyWrOHq83M/F6w5to10vp4fLly3rYEwsJjWT94RZg27EhvaVRsOxDhVoaMNiM+v4KVPTXDwuKdGdOoa9i37Dts1fXoaLNvM0gmuv7sa26QN+ntzh4zNwNq8Lv20a0lkFWFy5HCTz1sGceTtUZ56SV3cABa3IT5jr9ot1LFTZ1abtQNanCQCgSCTjUmEDDcxMJYkK7OzlqjgTW9wU2iD+wGRm74wXrA+d5RD1ZLBwJxIxrCbuuzXFM90xKYgNeExERkWH69On6G0opmfgpvZzzb37zG73E8gaF15tZeL2RTbTrpYln8EAHUFqN6lKg48Dw1GbQ248Fs8ONdF6A6m2mbQYPoAOlWCaPac9ejdUF/moZDH72AjWZROXf/G9qKppBNK/agNx9Q3AFzkkTco6aM6eAsNcZi2ysPjiEIVexmk+drKeeespXXV2tZoGm5jZsXl+DF3/aim9/515VO/puuXW2fszvfq9S1RARERGlzoULF9RUYqZMmYIt2xtRvTq2z/fkDaK8WYzF1atX8cEHH+D8+fP6By6ZRB77Lffm9ttvxw033KBqI+P1Zg5eb3QT7Xpj+d0Wz++/iSYZ908GjJYxgmJVU1ODH//4x2pOSDenesw+dhCrJaAJsNZLy5ZVwG5tHs3wT66GeRPp+tVVbIQp1u1lvgvFQy7MbF6KJsfB0NBFF1xn2CIbMmB0JG1/Mxf//t7H2PP6h6oGGGpcqKaE6ZjSOmjeKdRFOb79dVqv2RCuPv5rtYrnZ6u7u5uBEBEREZFI50CIiChTJCPQmMiScf9SFghJWBIIgUzhUGAba93w/fqDlH3AivBBiCyvn30MB0NPJCJzIFQy71Z0HvutmgsfBolhgdBSL6rlukKu0U6k64zxXuqkLrWBELuMEREREREREVFc/N3FlqmgJBvLSoENTeaBdc7gVF8uHPZJCgqqt6F/xQr0b6u2hCASssQfBllNnfwF/Mvf5OnTdmHQcDMxO1dNir5T2pVEYO7ulmEYCBERERERERFRHLrRtKEPfRvmBZ6aNU+bR1uXtkQZ9KJ/wWxEHFknexlKFyxAaUiaYrS4GRpRGCTaXv81XnvvE5z97/fEGAaJbKx2qRZB+vm1oSvCo79Cg7HMwkCIiIiIiIiIiGLX3YW2BdtwLOTJWcewzRSeSFDSl+uIGJQMNq/Chty60O5U3U3D60ZAQqGv/6gnxjBISNct4/Hv2VhdV4G2FVPhNIdCg81o1uclGMtFXbJONoXcbjcDISIiIiIiIqLxwv5R8sPJYOeyfry6u9qwYFirGOk2tgBtXc16d695G+B/jHwYg81L/a2KOkpxzDKStDyZDG0rAi2PpCyN47nzUyYNHwB96JL9o+inTLpeTdkocGHomHRtC57P1FXAsgIJjlagTftvhelcp+p1fdgwb2lcj8tPtaKiIg4qTURERCQ4qDQR0cglY1Bksf3l/0Tzq/8HFy5HeiN/A35w959iW+lXVU3mS8b9O3DgAD755BMUFhZi2rRpqnY4CY3279+Pm266CaWlpao288n3znbPf6q56Fbf+2fY9uDtai4edgNGi0jLRk88ry3S8ilj9z3AQIiIiIhS60uTGAgRESVDMgKN9fvfx+7X/o+ai2594Z9j/fI/V3OZLRn3T3R2dqKvrw9XrlxRNcPdfPPNuOeee7B8+XJVM35s2P8BftL3u6iBooRB8v2TGAZCScNAiIiIiMZKugdCV69e1df/7LPP8Pnnn6vazDF58mT9U+obbhjejD8cXm9m4fVGNtGuV651pIHGV9e/FfGNvJV0+flg+3w1J+TNuPH4bpmWLjzhLMC2kDfsMpjxPMjYyDoZIyfi48aTLxn3jyaueL43GAgRERERadI5EJI3kx9++CH+9E//VF//uusyawhIeQMsY1T85je/wZe//OWobyp5vbzedMbrjR4KJSPQmFrzhpqK3VDjQjUlrIFQuJYalvrBZiydtwG5+4YQGNJGBg4+sxqrww+DMyqScf9o4orne0MCocz6jUREREQ0wcibsT/7sz/DrbfemnFvJoWcs7w4lSIvVKPh9WYWXm9kE+16U6n8m/9NTSXDIJpXWcIgkZ3aMIgo1TLvtxIRERHRBHLp0iX9qSWZTt5QSpeZaHi9mYnXG95Eu95Uafubudr/ff6ZZBg8gI6+ChTbhj/Smsj8xCjrfPqRgaV/+MMf4rHHHrMtslzGGhqPZGBp6Xoorc3siizf0PGB2mJiYiBERERElOauvz7KI3EzgFyDdD+JBa838/B67U206022knm3qik/CYP+/b2Psef1D1WNjQWzMVNNxiTe9dNYR0cHhoaG8Pjjj6OxsdG2rFu3Th90WsKj8UQGJZenjEUbh0qWN7/6kR4eTVQMhIiIiIiIiCgtTZ38BfzL3+Tp0zGHQZiJ2blqMlZ9p3BGTYbXh1ORV0gbb731lv7ksEmTJqma8GSw8AcffBCHDx9WNQZpATVVb902vAxvGdXt1Oqd3WrOQsZmCrP9YPPS4dt0O0PrZH6qUzub+LzQF1/3RgmFQsn1W48rA46brmNps1ZjYnOdARGW6/dP1S9NcbMzBkKRHKzCtMlZelm206sqFX1ZFQ6pWV2k9VPGg1p1DsPLYuzWfomd3bkY09Z61PqKnHtInRe77zNte18jzmq1h9aa6kwlcL2mexBST0REREREFKe213+N1977BGf/+z0xhkEiG6tdcTwdLHsZShe0ocs2eShA9bYFaFthvHG3e2pZerh8+bIe9sRCQiNZfzh5AtuQ3tIoWPZh2GMTBptR31+Biv768F3ozpxCX8W+Ydtnr65DRZt5m0E01/djW7X021PhSxeGHy8G8TyhTly4fE1N2dDDnHk4VWe6F7uBA9bvlzDXGWBzH2Tf3mJjv/uQu2FV+Ps4CtxuNwMhex7UlgDtl3w4f8mN3HXlepgSCEpeAsr19ZQzjVgWdv2xkI+tx+U8zMUdON8Zazeh/NmnTeenXdP2E9haW+iflWuZnINT603bP6N9wx8Eluw07y94nANrHf4wqETbT+DYAyjdn8NQiIiIKOVexqrrr9e7efjLN9FkfV3y8irT8uvxzZAVZPsw29jWp6tI9yGGe5T2Er2+dL92OT/r+drNW6/leqx6WV8pA0T6d4i0zCzRfcS6//QgodDXf9QTYxgkwrXwiCQbq+sq9MAnpNGK9ma9Wc1nrz6o3rTbvOGfoAYPdACl1aguBToODE8yBr39WDA7XGc8CdlM28g4TijFMj3F0/49Dmr32VWsLxoNsQ9KHuOA42dOAWGv08/2PoTsZyZmL1CTKVBUVMRAyNbBTux5pARL9JlCVO/Qvlk9Emw4sOoVH87vLNGXGM562oEddWHWH32H1vpb/sTOcn5nurQfvjIs078/vdi90oncTh8alupL/WbWYJV5fhgJlVpR3nkEqwLf59q9esYFrKtXLakkTLO0qiIiIqJRsggNp6/h2rVrON0A1JY3BbtDSBhUfCKw/Nq10yhrn2UJhcaLCPch4rJMkej1jYdrNwSv5Zp2MSeKVyFjMqGk/Bsluo9Y9596UyYNf7z90CX7Vh9TJiVhnKYCF4aObUN/oBWQVlYBy2wHmiYJS/Q8aFk2spfpiVBoNyrNmVN9yHWEb6slrYRyNzTpwZ0ES7l1cbTqGoG4BiWPOuC4X3dXm+11ikj3IegMTvXlIupqScRAyMbZ0ycw/2s5ag6YMSsPR98bUHNpQnXP6nrAHMLERloJ5aqgRsKs3PU1mCELJBx6oxLFEcOfMOy2m1mM0oUn4NX/ukiYVoIu6U5m7bJGREREo2Zm9Sas7G1Hl/73+Ayann4GK7teR3Xg9cNMVO+Rd4T1GfRGOn6h9yFUpGWZItHrGw/XHjBzFvJwAqcz8FqS8W80Xr4HVn/7z9RUbH6w4E/VlKEAriGX9n9j+iBWD3uTHaY+ezUOBloBaeWgXUBht88JxtyqR7rdaXOhjYQG4e1fEKHhTAGKK6SrXjeaNuRGDV0SkZRByaMOOB7tOqMt9+t2rkD/tmr1fZsaDISSRA+MTC1hDuzv0adGhd6lS7qtlehds0Ja8sSsEMWPtKLroAdN6/JCg5yFuVG+4W3YbtdjGoCtEA3SneyBTj3Mqj2oqomIiCg1znShvXclSparecPMYpQtysw30kQBL3fimZWbVNgp3aLCdYUy6s+g6Zum7pLScu6b6dNKZiJbv/zPsfre28K2FDKT5bLutgdvVzWUSv7uYstUaJYNaSS0ocnc5y56i5eCammVNXpBSFIGJY824HhId7dwot0H/5hJ9bOP4WCKU0YGQsmytAVv7ziBMglqJpfjVG6+WpB8hxqcOCrj9xhj/iRoSa0L/SVF6A90dVPe6E/sD6HtdvnD09Clddi6ENhTwi5kREREo+1M09N4ZlEZio2/x4tyEWwHbdaL/kCD6F7UzjKPMSKlGM+opZlo2H0wibQsUyR6fZl/7abv1WKga7c17bQzE9WvdyFPbxn3MlbJtq9XJ/bBaBIk499oPH0PbHvwq/hg+10YalxoW2T5+sI/V1tQakmrnj70bZgX6GI3T5tHW1dw7KZBL/qjta7RB/ReoHc7Gw0jHpQ86oDj1mAsjIj3QcKgVcDuoZSHQYKBkA1rFzFrF7JwZqw9ogZTPoJi9CB3lkMtSS7/wM57gJUSPo0gUNG7c+WjtNB0nnqdtBxS87Gy207vSpYHR+C7Xw3KPbkceEauoyU0jCIiIqIkCb5JnlWbF/pGt7cf4TvCL0Ju4OVOcHyRYOnCSrU0c0S4DxGXZYpEr288XLvB9L16OhdPh7QKCl6nlOEDTi/H7i6g2J8kaXOplox/o0T3Eev+icLo7kLbgm04Zu5iN3QM20zhiQQlfbkO+6BEM9i8Chty60a1+93IBiWPNuC4v7tbXYQLiHgfuptG/fojYSBkZ2Yu5j/bqcIW6VaF0OAkkoNVKOt3oVrvhiWPgY930OdYqMGtL8mYPInt/+zOcmzM3WQZf0jb7/pK7CmxdOc604jdEUMiYztzQKVd+1ynabBtCYOMICj+cY+IiIgoHuZAx/RGV+8a9gw6rW+M9a5keZg17v4+29wHXaRlmSLR6xsP1x6G/v1tbulmus6ulXjm6XTrEpaMf6NE9xHr/inT2D9Kfrjz58/r68dLBlFeMKxVjHQbW4C2rma9C9S8DVCPkR9usHmpv1VRRymOhTy+a+SSPii57YDjEhytQJv23wqjXi9S14cN8/zzEe+Dtx9oW2HadiqWpuq58xoGQnZm1uBAJ1QXsCIg5OlZ4UjwI+tqRR4//4oapHnUyZg88YUrZ3cu1s/zG/vL8PbOMN3Olrbg/HHpTqauR8pK7Rs+2lhFsl3gnkmR+6YeSa+TEItBEBER0diaiepN2hvjkCcxvYxVs2qBhjq+KaTMpgeb5pZu0aiuYtekmVAmPZ2MyN4999yD/fv362FPJBIaeTwe3HXXXarGEH0g7gJX+C5O+uP5Xav9j40fto/g9oHH+NsO3C1kfWNw8Ngld1ByxXbA8QXYdsxUHyj7UBFYFsN9MJVUdh1jIBSJBBx6F7BwAzdLEGPu7qQGS9aLtT6VIYjd8YL1ga5tkUIrCcQC1xNuXZvjmO6ZlMQGvCYiIqJRtXw39Pe/1/u7i8jYQNo7YrwefOwY0RgLdmfyj11lnTczLZvVjrLT5ifomZYVn0DDHnO3KBlUuhgn9CB0OeoaTqA4EwaV5uDXFMWyZctw88034x/+4R9QU1NjW5544gm9RUppaanacnzgoOSxy3rqqad81dXVahZoam7D5vU1ePGnrfj2d+5VtaPvlltn68e874FKVUNERESUGl+aBFy4cEHNJWbKlCnYsr0R1asrVE1k586dw/Tp09Wcvffffx9z585Vc5nt+PHjuP32yC+8eb2Zi9c73Ghc78urrkdnyTXEPHZ2ksRyvSKW322x/v6biHj/aCTi+d6ora1lCyEiIiIiIqLM8DI6n1mJEvbtJKIRKioqYiBERERERESUGZZjNweAJqIkYSBERERElMauu+46/SlAmS7Wa+D1ZiZeb3gT7XopfRw4cAA//OEP8dhjj9kWWd7Z2am2GF+2v/yf+Or6tzC15g3bIss3dHygtpiYGAgRERERpbEbb7xRHxMg033yySeYPHmymrPH681MvN7wJtr1Unro6OjQn1b1+OOPo7Gx0basW7cOV65c0cOj8WT9/vex3fOfuHDZ/lHzQpY3v/qRHh5NVAyEiIiIiNKYDA4pbyilZOKn9HLOv/nNb/Qybdo0VWuP15tZeL2RTbTrpfTw1ltvYfny5Zg0aZKqCU/+TR988EEcPnxY1Ri64Zw6VX8C2fCyFM2DajWl26nVO7vVnMVgM5aG2X6weenwbbqdwTqZVtsstR4wihf64gthJRQKJdfv1P5vNojmpabrWNqs1ZjYXGes91K/h6o+3usdiawnn3zSJ4+cM/ApY0RERDTRpPNTxsTVq1fxwQcf4Pz58/D5fKo2M8jjvuXeyNOJbrgh8iOADbzezMHrjW6iXW8sv9vi+f030STj/kl3MGkBFCvJA3784x+rOSEhRj1mHzuI1dmqShemXoKQVaeQi37M3m1dXyPBTlcxhlwFMmPa3rovCVxWAfo+ZFkXiodcKLA9F3vSHSxeQ40L1ZQwH18j1zhvA3L3DUG/DFXXfGY1VpvmlzY5cDDqdRpM9TDvK/7rNYvnZ+vgwYPpFwh993sMhIiIiCj10jkQIiLKFMkINCayZNy/VAZC0tJnFXZr/63Svx60pBjGcn996PYhy/RgSfKg1cgOCZGs+4gulkCo/Jv/DXte/7WaixQISVA1D6fqTGFQONo5L/VWh7nO2O+lnzkYU1VxiOdnSwIhdhkjIiIiIiKitDLRB0XODIM40AGULstG9rJSoONAaDcqzZlTfch1hE82slfXIXdDE6Rr1qC2o9y61ZA1B739WDB7pr6OyHbkou/UGTU3cm1/M1f7f4yt9QYPoKOvAsWRwiBNd1eb7XXG5wxO9eUiKbuKAQMhIiIiIiIiShsTfVDkjCFhCUqxTMKL7GXaVAcOhA6sA2//ApiyHYsCFFe0oau7G00bcqOGLokomXermvKTMOjf3/sYe17/UNXYWDAbgdM2T4cV7Tpj1+1cgf5t1f6uainAQIiIiIiIiIjSRnIGRbYZ/DhksN/h64TWW9dRAws7pU2LLAsOBBxusOXxTlr1oHSZ3qoH2v+lkdCGJvNQzNFbuxRUb0P/itELQaZO/gL+5W/y9OmYwyDMxOxcNSn6TmlXEoE5GEuY/3urfvaxmLvGjZTb7WYgREREREREROnj8uXLMT/VTEIjWT+qwWbUt6npBHU756Gj9FhgbBtgAbYdG9JbMx3bBmxYZXny1LgmrXr60LdhXiAUm6fNo61LW6IMetEfrXWNtCxasEDvdmawdhGzdiGLR9vrv8Zr732Cs//9nhjDIJGN1S5/9zX/+UkrJn1BWKHBWCKMcYOGUhYGiaKiIgZCRERERERENJ5pb7hXyVOi9iG2Yf+Hk4GNV2Cf7Rt2GQ+nos/aZWoc6+5C24JtODbkD8T85Ri2mcITCUr6ch0Rg5LB5lXYkFsXOoDyzNlYEAiWJHjyj1OUKAmFvv6jnhjDICGtv4zHzmdjdV0F2lZMhd4wzCBPGdPn/d3d6kYS5HQ3Db8HKcJAiIiIiIiIiMYv/Q33vshPiYrkgBPzOkpxLOEdpFbMraY058+fj9o1LxwZRHnBsFYx0m1sAdq6mvXuT/M2ANuqw98zCdj0VkXh7mv2ahzcB6zQWx6tAPbF98StKZNuUFNBQ5euqqnhpky6Xk3ZKHBh6Jh0bTN1EVwFLCuQ4GgF2rT//OdqFKnrw4Z5sXUjlBZQaFth2n4qlqao/yEDoUg8VcjKytLL4kavqpRqf5213m791PKgSp3D8LIYclrexsXIqvKo9RU595A6LxoXm7Zd3KjVhF67uQSu13QPQuqJiIiIiIhSTnvTvqLfJpiQN+3mN/JS5M28mbbOhjZUqCdg2RlsrkfbgpGOI5Mc99xzD/bv36+HPZFIaOTxeHDXXXepGkMBXEPhQphgfYErfPem7NUHMeRajdUHpcWQdR/B7fX1pFWRPGZeLQ0hIYxqeRRvDrf623+mpmLzgwV/qqYMcp7yyHkTCakCLaHM5x3sNhhajNZo0e9l4F6YSqq6jjEQsuVBVRHg9vng87mR5yzXwxR4G3G6ROos9Xbrj4l8uAaMcwyea6Va6qjZhMrWp03n50Xj0yfgqitUs41YnJWD/k2m7fcAXR6gsMW8v+BxjtQ4/GFQkbafwLEHUNaew1CIiIiIiIjGhP+pTbvDvCEX4d7MW7uVaevsk9Yh4Vp7BAOleRtysc8u3EixZcuW4eabb8Y//MM/oKamxrY88cQT+rmXlpaqLceH9cv/HKvvvS1sSyEzWS7rbnvwdlUz8TAQsuPpRGtlCfwRSSHqXEB7l1fSFNSo3ATIQW6+mrRbPwU8Vf6WP7GznJ+3C+0oQ7FDn0FjuRN5bh9aAtepCbnucCRUakWl+wgkG/JzoGaPdiBnPfxtj6TVUZWaJiIiIiIiGkVnmlHfvw27R9raYqZ0YcrFhnnGuDIGc6BkaVEyxkpKSrB161b8+Mc/ti2yXJ7mNh5te/Cr+GD7XRhqXGhbZPn6wj9XWyTCrvWPiLQsfTAQsuE9fQL5uTlqDnDMykNP/4CaMwygvycPsxyxrp9kqntWZ4k5hImNtBLKU0GNt6sdeZtq4M+DutDeU4mSiOFPGHbbOYpRln8Cp/XsyYGaIyXolO5k1i5rRERERERESdOHDSs2IDdKV6+YFbhwbFs/ViydSE8So/GOgdAIeKqKcMJVp1oFpZDepSsLWZ0leteskJY8MStESWUrOj0e1DvzQoOc/FwEo6042G7Xg2A2VogW6U5W0qmHWcyFiIiIiIjILGmDIleMYCDpMGSsl325GzCPoRCNEwyEEuIfcPnp3AH/2Dkp5ql3okfG7zHG/ElQYZ0LJ4rChFo9/UiobZPtdvkwNZ7yK6yDKx9oLWIXMiIiIiIiCkrOoMhDGBqWBpm78dh16Ym8jgym7B9Q2G779HDgwAH88Ic/xGOPPWZbZHlnZ6faYnyZ6NcfKwZCNqxdvoJdwiQMKgf2qIGUFfv1k88/sPMeoFye5DWCQEXvzpWPMv/gQX56nbQcUvOxsttO70rm71bn5w/TsrL899Dna0l9CysiIiIiIkpbE31Q5JHq6OjQxzV6/PHH0djYaFvWrVuHK1eu6OHJeDLRrz9WbrebgZCtnFzkt3aqsEW6VcEfnHjq4czbNHzMHrv1tekq9bj35JLxeCRQkTF5Etu/t7E8zLVo+91UidYiS3cur/ZDEzEkMrYzB1TatedoNyLQAikYpvl88Y97REREREREE8NEHxR5JN566y39vth2pVOmTZuGBx98EIcPH1Y1hm44A4/hl2J+wlqiyzTdzsCypcMf2ZY0I7/+oG6ndr7O0KHEA/TrCR1ofLB5aeAarcvSTVFREQMhW44aHHFrN0nG6smS58n7Awxp+YPWIn38G6Poj1W3WX/0yZg88R3L27hYP++c9jIMhBuAqLAFvgHpTha8RmnQUxytKY9sF7gHxn0wt6SSEItBEBERERER0WiRrnQSdsTCfrym4BPUjm0DNqwyj5uUyLJuOFcA+7R6ebR/7oZVYR7jnxzJuX7NoDylrgIV/fWWcx1E89KpmNoFVKgaw5lTfajY57/+dHvyXDhZTz31lK+6ulrNAk3Nbdi8vgYv/rQV3/7Ovap29N1y62z9mN/9XqWqISIiIkqdCxcuqKnETJkyBVu2N6J6tfXlYXjnzp1TU0RE48v06dPVVHjy+y/aOhNVLPcm2joyPo50iYqVdL+TFldB0tKnHrOPGWMkmecTXHbGialdxYFxnaQlzSrsxsFRGIRp5NfvZ5zjbu3/4c9Vrq8Lxabgp9u5FN5q4/pTL56fre7ubgZCRERERCLVgRAR0UTFQMjeeA2Elh2wBEDS3coUECVTcgIhaQW0CtitXQua4Z+UwcTN5PrMgZBsMw8b+vQZLNh2bFQCr0jiDYTYZYyIiIiIiIiIwhpsrkfbglIsC5NtJLos7Q0eQAfUuWcv06Y6cCBqF7dsrD5odBcb3W5xycJAiIiIiIiIiIhM+rBhnn9w5HkbcrEvpHVMossyx+CBDqB0mTr3bCwrBTY0xTNEdAGKK/rQET1FGlMMhIiIiIiIiIjIJDg49PDBkeNflu3IRd+pM2oOGPT2Y8HsmWou3XSjaUMf+jbMU08Lk3CrD2jr0pbEJ9eR3nEYAyEiIiIiIiIiGj0zZ2NBIFCRwEUa4KRpWNLdhbYF23BMD7WMcgzbFrShK9ZESJ5Q1rYAaZt5KQyEiIiIiIiIiMaJiI9Stzh//ry+/qjLXo2D+4AVeosbef68MfB08o30+ru72rAg0F3MIN3GFqAtYiIkg0z7WxRNnbcBuaN4jcnCQIiIiIiIiIhonLjnnnuwf/9+PeyIREITj8eDu+66S9UYCuAasgszEl2mKXAFWtyMwsPFAkZ6/QWuobBPB8tefdDyVDS5XnOXOZkPtioazWtMBrfbnX6Pnb/vAT52noiIiFLrS5P42HkiolThY+ftJeOx86KzsxN9fX24cuWKqhnu5ptv1sOT5cuXq5rxY6Jef7yPnWcgRERERBMeAyEiotRhIGQvWYEQTUzxBkLsMkZERERERERENMEwECIiIiJKZ93OwGNvpRTsGlQLiIiIiBLHLmNEREQ04aVtlzEJg1acxNZj3Vijj285iF0F89BRegzd/goioowTS7eWAwcO4PDhwxGfFiVPh5o/fz5KSkpUTeZLVpexiXr/DPz+iY5jCBERERFp0jMQ8oc/p9dZnlQyuAsF805jXciTTYiIMke0N60dHR347LPPUFpaOuyR4GbyFCl5StSXvvQlLFu2TNVmtmQEQhP5/gl+/8QeCLHLGBEREVE6GnwZHUcrUGxNfbKXo3T+SQzoPce64TR1J/OXAvh7lckyY1pypALTMiGBU3A7Z7e/tttp2pdRadlX6HyU40iAZexvqlNb20pdQ8Eu7YyCQvcT6RjWczHOW9V3B48f0t0u5LyC12+/P03EbbS6iNegrRX3vRVq33oxn5d5HYNdPVFmeeutt/QnP0V6My+mTZuGBx98UG8JEsr8c2MtS9Ec+DkKV5/5kn//zPcm0WWDaF4aXBb8/Zl8o/H9M+x89e7coX/TBpuXmrYJ9/cu/TAQiuRgFaZNztLLsp1eVQkcWuuvs9br9G2qcEjNpp4HterchpfF2H0GOLtzMaat9aj1FTnvkDovdt9n2va+RpzVas3Xbi6B+2C6ZyH1REREFEI+xYtUdPNnYaZ/yuIoTmt/0/3mY+uxIQwNSdmH8O2TutHUIWsagl3P/NsFWyEVuEz7atsRZ7hgPY72onpeB0qN89sH7Ai7w/nafx142fTG4eXT5v2YWY9hkGtaAezTjhNoUnUUG3cALXLsY1uBjVXBQGXeRsyRddWykyusQYp1f9G2iX4NCd/b+VtxzPbfNrxw31MsLKkqIyXdfOTNeizkTX/4bkELsC3wu9H0s6eW+gXXObYN2LCqWfvJzXzJvn/D700iy87AUeevH9IW9K8YvcAk6d8/Ieergq0uDPudfOZUHyqMvxEZ0oqXgZAtD2pLgPZLPpy/5EbuunI9TMGZRngfkDpLvRGgvASUy+yYysfW48Y5Bs/VOK8Zazeh/Nmn1XkL7dy3n8DW2kL/rHaNyybn4NR60/bPAAcOAkt2mvcXPM6BtQ5/GFSi7Sdw7AGU7s9hKERERGRDmnXbFd3R09pL6HDmY1b4pCisbucKYN06zFHzRuujdeHGIQoMYr0CbarK7yg2zjM++bQu8xt+nAGcNG+3ok27pPBXVFo6Bxub1NuD7iZ0zCoN7sdk2DGUjip/wBXSvU67T1tb1kC/yuw1WFehgjT9vEytr8zLlGH7i2GbqNeQyL3t7kLbnBz/NYQwbzP80+tw31MsLKkomSp7dR0q+jpwYDwkQkkW6d7EvqwABYHfnw7kqsmMoJ9vP7z6dWRj9cEhDLmK9UWhFmB2HH+b0wEDITsHO7HnkRIs0WcKUb1De2Hg8QIza7BqqV6pycHshWoSDqx6xYfzO1M/INWhtf6WP7EzXY8404UOlGGZ/s3rxe6VTuR2+tAQuE5NyHWHI6FSK8o7j2BV4IdAuyfPuLQXbfWqxZSEZmPZeoqIiCiD6F3D2tBl/QhVD3PmICfWMaXP7MIO7LMEJTakS5TeKEY+3TyGrSHNcKK0RLI9ToXanyp2J7K8GltPdumfwHZ3nUTp8hx/vZntMY5qZb5t2OQ3iIGTajKqWPYXRqRrSPDedne1oWJYv0Fh2mZfBdp2hHZXIyJKWxJ0VxRnzjh4+vnWYXXEv7uD8Pb3YYMK6pdmQP9Dt9uN63w+n5ols7OnT2D+14J/xGfMysPR9wbUnGEAp97Ig2OsUkDVPavrAXMIExtpJZSrgpqznnbkrq/BDFkg4dAblSiOGP6EYbfdzGKULjwBr/56SkKzEnRJdzJrlzUiIiKyyMaaddob/ZBm9f5uS9haHeML6aPYuKIDpdWWtVXYNKz71pnTOGp0U9ODJ702BnbHycEchDlOWNlYXnpSW3cXurBOPVXNzOYYuvkobenGPqywPJb/KDqMPlyqVZSerajzCoRtg7uwo808XlOY/UXdRkS4hoTubTe6hh2DiEbDYHM92haUYlmsYfsEEunexLMsMMZOV7H9hwNpIxjuTJUwP+r5qpZDKtjP3bAq7cekKiwsZAuhkTi0tgj9O+pUK6IU0rt0Sfe0Er1rVkhLnpgVoviRVnQd9KBpXV5okLMw12a8gihst+vBqcAHbIVokO5kD3TqYVbtQVVNREREwxW49HF3VqhuQdKdSMa0ieeR8/O3toQJV7Kxpnsf5mycp/aruhwVVGMrNmKe1FWdxpzwg/iEFf44BXDpY/cEjxMcTHm47DXrtHPaCLsEJPwxggpcx1DaoR0rMLjzfMw5XeU/rj7+jzGmg/+8Tq5Q56SPczR8vIfQ/cW2je01xH1vZVBT6T7Wpv79ZVq6iRkBoanL2IqTwa5xRBSH4Jv+eRtyse/gav4cBUS6N4kty1590B+YFHdpy9N9EG/zGEKzUR/X+RaguKIPHRnQ/5CBUEL84wXVf23AP3ZOih1qcGovAfKDY/4kaEmtC/0lYUKtN/ptxiuIwna7/OF9KZfWYetCYE8Ju5ARERFFJKGQ/omjv4R+SFkA11C3KSQxz8u0OTwKt651vxIUqbpuF1zd5n0leJzsNeg2HWf4p8LD9+VfJdZjmKfV+XcHw5FZ1d2Wa1RCzst0vpH2F9M2/nMdfg2J3FtLd7tAdzL/MYL1dvsioshMb/ozZBDg1Il0bxJdpmh/1/ZV9JkaDaS57GUoXRD/+eY60v+XMQMhG9YuYsEuZBIGlQPPqIGUx4B/YOc9wEp5ktcIAhW9O1c+SgtN16HXScshNR8ru+30rmTmbnX+MG3aZP89PH+pJfUtrIiIiIiIiCh1urtDuj93tWXQAMyDB9DRF8f5DjajPkOuj4GQnZm5mP9spwpbpFsV/MHJwXpszN0Ux5g98hj4eAd9joUaxPqSjMmT2P7P7iwPcy3aftdXYk+JpTvXmUbsjhgSGduZAyrt2uc6gUALpGCYdv5S/OMeEREREU0c0trH+ul6uDqi8cf+UeDDnT9/Xl+fgtLy/s30ol66uOpFuj8fjDJIc+KSc/2mMYT0LsLRzle6+Rrrb0DuKF5fMjEQsjOzBgc6gTIZq2dyEaCeniUthfBskT7+jVHG9rHqMiZPfOHK2Z2L9fP+xv4yvL0zTLezpS04f1y6kwWvcdpKYFm0sYpku8A9kyL3zdySSkIsBkFERESUCuw+RZSp7rnnHuzfv19/sx6JvOn3eDy46667VI1Bfv7DvSE319utk/lG7/6JBJdlr8ZBvRuZvwzrPZxEybn+4LkOhb0mWccc0IduM5rXl0xZTz75pK+mpkbNAk3Nbdi8vgYv/rQV3/7Ovap29N1y62z9mPc9UKlqiIiIiFLj/9/e/Ya2dR56HP8pzVhitjlxTC9jL0YbOxmO74vdS6HIL/qHpq1lKC6j3l4MHAaz21Ii5UVCCO4LUxNC8mJSKG2tQYlhL1aP3moXLG1Oue9sSsvd2OaaLlIb9qpw8ep5pa1X3OrqOXokHcnnyPIfWbbP9wOH6DzS+a/4HP3O8zzn+FFpZWXFjm1Ne3u7XrqW0Pnn1j2Q3dPS0pI6OzvtGAAcDI38bWvkM6lUSu+++65WV1dtyXpHjhxxfvw/+eSTtmT/Y//tDL4/G5udnSUQAgAAIBACgJ2xU4FGULH/sB2b+W6YQIgmYwAAAAAAAAFDIAQAAAAAABAg6XSaQAgAAAAAACBIIpEIgRAAAAAAAEDQEAgBAAAAAAAEDIEQAAAAAABAwOy5x87/6Mc8dh4AAOy+vfjY+Xw+r6+++sqOAUDrfPnllzp06JCOHDliS7zx2PTtYf9hOzbz3TCPnScQAgAAKNiLgZAJg7797W/r8OHDtgQAWuOzzz7Tp59+qra2NlvijUBje9h/2I7NfDdMIESTMQAAgD3K1BAyYVAoFGJgYGBo6UAwDRw8BEIAAAAAAAABQyAEAAAAAAAQMARCAAAAAAAAAZJOpwmEAAAA9pXMaFW/Hn2JnH0D9WU06tpvoVCf1u26uvvWTO8xjW95o+qtVwPrDA979VgDwN4RiUQIhOpynSjcJ4nMqPfJw698d9WeAN1D8QSWS/QpNJqxn7fMtlaV5ZToc03blyiUVG+jeyhvLxepAAA0jznPRhYUz+adDqfz+ayGprs53zYsXN532bgUGy5e3zhaum/rrFfd9+Bvrx5rANg7eOy8LxOspDSYn1S/83pCPdk5RZVQIhtVtL/0mQ3Ku8z4bvJbtru89jMm/BmWpux4LqG+7ph603lNOttTLKtsn+GxnPLJ1T3fbk0PZTVXvTIAAOw5e/Gx82tra+ro6HBuspTOq4tjrvOz4Zy3FzXmXLPAX+21i3u8kX3rce3j8CtvVL31qveeGYe3evutlcd6f1tdXdXy8vKOPXYe/th/2A4eO78TMiklRwbthVW/Lsal6Zmc1OUORbrVE7Yv/cp3QWZ0s1VXXdtj5GY0rSENOCe2wklyuCYMMqq2z0thuomkRtLuE2SXolPmlsyNwunTMCfgUfsaAABsijlfz49osPZ83DWgofCC7jindfODtboWb1VzGfOjt1xeOiebaQqfyVTec9eUqKodXK5NbKcpf8w9Xv2eUzPZNV5d29g9j5J6866Zvqp2s/lcvfnW0dC+3az6+6F57HJ9jqfXd6C4bu4yc80WUvXuHS3XGC9M4bxfmaa0XbXHzqj9rBmKy11/LP0/W+E+zoWhvE4NasqxxmaZH6wM/sNGvKZhYCgNm0Eg5CN3Z0Hhnm47VjhHnOrV/GLWjpVktTjfq1Pr7hD4le8wc2IunAhTg5u/S9EVHVOvDWpyM9PqHYuqmAf5nCQ30tDJtUvRuUGlzMm76goDAAA0JNyjytWJ27wqlymVpjL5fFqVuteFH9Ld0xoqvZeWJsq/3OcVm5CmTHmxfU35R33/pGteyYlNBhoZ3Zg2a2TlEppIjii9bt0aV3d9wnFlG5xvLjGhZLh0Q6ygoX1b2E/drjDCGSJK2nf91eyHOtatl0u996r5HU/v70BXdM7u06ziznVb4ZptbETJVOV6LZNKaqR0vegofc822t/m+q/0udI0xdps64+l/2eruZY9v1i48q5vd481AOwfBELbkBmNaCF+cd1Jyq98x5Tu7KQGnZNoVU2ehvVrcCSpVKZwgRLrrQ5yfE+SG2jo5NqvSXPiH0w5J1ZyIQAANsH3x29YrvtY3nJ3tOD+kRtJum52FX5gT9kf+11RjY24zt32BtRWfgybayKNjanXjjfO/WO8Zrl+62Nqd/eecgUWXirz7S5c/6TnXAFHQ/u2FES4h40CkUb2Q531qvueH5/jWec7UKytY5pS2RuN/YMaSaacm4eFd5VaiOti+Xqx3s1P97Grrd1TY8vfrdIyCvs17ddUss5+a+KxBoD9hEBoS4rVWSd6avvG8SvfWZkbscIprnCSqpyVt6T/YlwLEY/wqoE7LZ42c5Haf1HxsJSMbHChAAAAipxat+Zmjh0vcWrpNlozuVQ7xw6ed5VyurNQeplQn/nN7Xze1B6x5Y3IJjSh9Lom6FPxBUU2DAHcP8ZdP8LrrI9Tg2XDKs7u+bqChB3Ztz689sM6PuvlqPdeI1zH0+H9HSjV1hlMlZqYmS4GFpwaRKaGzcLQQCVQMeGb743AyvqmR5KuWmg1tvPdKi8jq54Jv2Z4LTjWALDPEAj5qG0iVmlCZkIf0wFz3iMM8irfecUT9pQ03MCdl3qcE2JYQ+56x34nyY00fHIttQ0v7qutXdgAABBEthlP1c0U0wQoJjVSM7nrlHrl9wN9vrpvwVIz8Oyi5ks//J1y86IR84pFpjW07uZVTjOFmYTj2cI1wBZqW/iuT0ap5BaavJdtc9/68tsPzeZzPOt+B9brGhiSpm84zd3c14smfAu7A6Kt2PJ3q5a7JnojmnWsAWD/IRDy092jsKua7I3COcI5EWZuKNY7tr7PHr9yc4JpSgeCpTbWpk+erc0/lxj2WOfSSbKmOVcuoYR7fJ1GTq6V0CyfD+bTGQAA2Jb+Saffl2INm2ItG6UbvRnVr0mnP5luO21hKJ/sw+pdHC6WOU8atTdsTI1exdRtyocX1VtVi8PdNMjU9jHjleuAcHxq3bk+M9pdmFtcU1u9CPBcH3OtZZafdNU8ql6Xhmxr3/rz2g87oqqT51o+x9PnO+Du3Dmy4Do+prlZb2HPlq8Xizf2qj6zTuV7EUmOaMzvc3W/WxspLaPwferdqPaVhyYdawDYb3jsfD3mRBspVmYesU/dMk9h6I5V38Iwd7mmNOxZPhfNFi5SdvPxlOaiqP5jMgdm7DaYjhf92qGbaryFC4jyFq37rM9yXPvMKO03AAD2ur3/2Plm8bt22Cwzn5QGd732r9dyW7Uuu8eEOKlBr+usnTqeRf7LQdDs5GPnAbReLBajhlBd5u6B0+64chKsPIWhMpi7CX7lzp2YXa0N47e8Snl5Xet1StgV1Zx7e9Z91mc5rn1mBi4eAAAAdtp2m8g1KJfQRFVn0gCAgyISiRAIAQAAYCeYm0WtqJHjtdxWrctuafb22T4fzSPqS08rAwAcOARCAAAAgeZT6xf71E4cz1JflXwvAOAgIxACAAAAAAAIGAIhAAAAAACAgCEQAgAAAAAACBgCIQAAAAAAgIAhEAIAAAAAAAiY0Pj4eD4ajdpR6eart/Ti5ajefCOphx95yJY234l7TzvLfPSpEVsCAACwO44flVZWVuzY1rS3t+ulawmdf+6cLalvaWlJnZ2ddszb2tqaOjo6FAqFbAkAtMbq6qqWl5fV1tZmS7w18rcNQOvNzs5SQwgAAAAAACBI0uk0gRAAAAAAAECQRCIRAiEAAAAAAICgIRACAAAAAAAIGAIhAAAAAACAgCEQAgAAAAAACBgCoXpmR9XRFnKGJ17O2ULp7ReKZdXlOb32aKX8wqwt3nUZXbDrsH7o02sfSndf7lPHCxn7ectsa1VZ9fZ0PJrQ3UKpe9vdQ3k/uPZZVTkAAAAAANgzCIR8ZXRhUJr+PK9PPk+r59KwE6bow4RyT5mymnJl1XXZlv8lrsXBUb1tilsirKt/Ka1jaUhr2L573wtjGn59wq63kdNr1xZ09UJ/cbSwjU+0deuvpe0xwy+l389Kj73snl9lOb9/oasYBg0W5lNedlZP/1c3oRAAAAAAAHsMgZCf2ZSmfjaox5yRfp2/Lr2VyUkno3r2caewoFunH7QvC595rFR+8pR67Mvd8PYLxZo/jXNtj/HhjN7SkJ44aUZyeu3nMfWk8vpFeTsLqrbbiwmVkhpOzelZZz5Gl579ZVy6dMOGY6bWUSuDMgAAAAAAYBAI+bh7Z0EP/KDbjkn3nerVex9k7VhJVn99p1dd5QDEqgqTmsg2z5p5yh3CNMbUEuqxQc3dzLR6Lkd1n3nDhEPvjGigbvjjwW+6kwN6+sEF5ZzAqkvP/s+gZkxzstomawAAAAAAYNcQCG3D2y9EtHj9Yjn4cfrmMWHHfw/qk5dt86tmcJp02eV8XlOTp2H9GvhZUjOzGd281Fsd5DzYo03mS0W+083rr+UaTP36hWlO9lTK2Vet62sJAAAAAIBgSqfTBEJbU+xw+cYPssW+c6z7Xpgr9p3jhB2bbcbVuLd/EdN7pv+eUp8/W/TYBdPXUXWo5XhnUVtadd/pwjpdmxQ9flFXH5SmWtrXEgAAAAAAwROJRAiE/NQ2Eas0ITNh0LD0S9uRspfHJzX9M3etmJ1V7Nh5Svq5eZLXNgIVpzlXWE/3u7bDKTM1h+x4o/ymc5qSuZvVFcO0jrbiPvzk88nmN60DAAAAAABVCIT8nOzRA6+nbNhimlWpGJzM3tCVnrH1ffbMZlzBTEYzr5dqxZjHwDejtpDpj8cEKqZPnq3N/+7Lwx7bUpjv5RFNDdY05/owodfqhkSl6dwBVWHb/z0mlWsgVcK0Tz7ffL9HAAAAAABgZxAI+TkZ1e9T0pDpq6ctItmnZ5maQno94vR/Uxqcx6qfvKMb5bLK55vP9MmzuWWV+jr6z/8a0v969XX0+KR9dH5lGzt+Lj2xUV9FZrryPivtB3dNKhNiEQQBAAAAANBqofHx8Xw0GrWj0s1Xb+nFy1G9+UZSDz/ykC1tvhP3nnaW+ehTI7YEAABgdxw/Kq2srNixrWlvb9dL1xI6/9w5W1Lf0tKSOjs77Zi3tbU1dXR0KBQK2RIAaI3V1VUtLy+rra3Nlnhr5G8bgNabnZ2lhhAAAAAAAEDQEAgBAAAAAAAEDIEQAAAAAABAwBAIAQAAAAAABAyBEAAAAAAAQICk02kCIQAAAAAAgCCJRCIEQgAAAAAAAEETGh8fz0ejUTsq3Xz1ll68HNWbbyT18CMP2dLmO3HvaWeZP/rxiC0BAADYPSsrK/bV1rS3t+ulawmdf+6cLalvaWlJnZ2ddszb2tqaOjo6FAqFbAkAtMbq6qqWl5fV1tZmS7w18rcNQOvNzs5SQwgAAAAAACBoCIQAAAAAAAAChkAIAAAAAAAgYAiEAAAAAAAAAoZACAAAAAAAIGAIhAAAAAAAAAKGQKiezKjzmFcz9CVyttAUF8tqy0tyiT6F+hJa/85uyGjUrtv6oU9mdZ31G83Yz1tmW6vKckr0uaa12+PedvdQ3g+ufVZVDgAAAAAA9oR0Ok0g5C+j0UhhJ+XzyufT6o0NO2GKcgndGTRlNeVlGd2IzdvXrRJWPFtax8q6jth3u6JjGklOuNY7p8TEguIX++1oQn2hbi2OuaafkmYyUv+ke36V5cxFu4phUKQwn/Kysxqa7iYUAgAAAABgD4lEIgRCvjIpJUcGVYxI+nUxLk3P5EyaoqjNTaRu9YTtSyuXmJDicdUUN1VmtFjzp3Gu7TFyM5rWkAa6nBElhmPqTec1Wd7Ogqrt9mJCpaRG0nMy2VBRl6JThQXFbqhY98jUOhq1rwEAAAAAQKsQCPnI3VlQuKfbjkldp3o1v5i1YyVZLc736lQpAMklNLw4pskBO95stnlWatAdwjTG1BLqtUFNbmZavWNRFfOgGU3Pj2iwbvjjwW+6rgENhRd0x8meuhSdG1TKNCerbbIGAAAAAAB2DYHQNmRGI1qIX7S1iEzNmmkNlZpdNZPTpCukUGrQaZpVVZOnYf0aHEkqlTFN3Hqrg5xwjypR2Cb4TjevSpbWr0nTnGww5YRZ5EIAAAAAAOw+AqEtMU2fQproyRb7zjEliWFND01tuqbOVmRuxDRv+u/ZZvjUfzGuhYg71LLmF1VbF6ohvtOF5apsVdR/UfGwlIzQhAwAAAAAgN1GIOSjtolYpQmZCYOGpSnbkbKj2JH0fKy7+HSt7pjm52PqbtKTxoodO09Jw+ZJXtsIVJzmXGENFTsPKnLKTM0hO94ov+mcpmSuZnU2TAuFivswn5+sDqMAAAAAAEDTEQj56e5ROJmyYYsJfFQMTjI3FOsdq6kJZJtBlYZsXOFwXNk50y+PeQz8Zjt9boTpj8csz/TJs7X5m1pN67elMN+xESUjNc25cgkl6oZEpencAVVh27sLO87drM6Gafn85vs9AgAAAAAAO4NAyE9XVHNpKWJq/ITM8+eLAYapKaRkpFgTyA6tfay6CaM2F67kEn3OendPDynr1QFR/6QTai1EKttoKvQMbFSVx0xX3mdmcJ7b76pJZUIsgiAAAAAAAFotND4+no9Go3ZUuvnqLb14Oao330jq4UcesqXNd+Le084yf/TjEVsCAACwe1ZWVuyrrWlvb9dL1xI6/9w5W1Lf0tKSOjs77Zi3tbU1dXR0ODdaAKCVVldXtby8rLa2NlvirZG/bQBab3Z2lhpCAAAAAAAAQZJOpwmEAAAAvHz55ZfOHXGvwbwHAACwX0UiEQIhAAAAL+ZBEX7qvQcAALAfEAgBAAB4+MY3vmFfrVfvPQAAgP2AQAgAAMDDoUOHdPjwYTtWYcrMewAAAPsZVzMAAAA+asMfv5AIAABgvyEQAgAAqMM0DzOPfTcDTcUAAMBBERofH89Ho1E7Kt189ZZevBzVm28k9fAjD9nS5jtx72lnmY8+NWJLAAAAdsfxo9LKyood25r29na9dC2h88+dsyX1LS0tqbOz0455W1tbU0dHhxNGAUArmScsLi8vq62tzZZ4a+RvG4DWm52dpYYQAAAAAABA0BAIAQAAAAAABAyBEAAAAAAAQICk02kCIQAAAAAAgCCJRCL+nUoDAAAExXY7lDboVBrAQUan0sDBYjqV9g2EduLCCAAAICiaFQiZa7L77rvPlgBAa9y9e9cJg44ePWpLvBEIAfsDgRAAAMAOaUYg9PXXX+tXv/oV12UAWs78jfvpT3+qQ4fq9zpCIATsDwRCAAAAO6QZgRAA7Df8bQP2BxMI0ak0AAAAAABAwBAIAQAAAAAABAyBEAAAAAAAQMAQCAEAAAAAAARMUzuV/vWvf62///3vdgwAAGDnnDhxQj/5yU/sWOvRqTQA8LcN2C9isRg1hAAAAAAAAIIkEonw2HkAAICdQA0hAOBvG7Bf8Nh5AAAAAACAACIQAgAAAAAACJBQKEQgBAAAAAAAEDQEQgAAAAAAAAFDIAQAAAAAABAwBEIAAAAAAAAB4/vYeQAAAGzOZh87DwAHEY+dB/a+27dvewdCAAAA2JpGAyEAAIBWuXDhwvpACAAAAAAAAAeXqSFEH0IAAAAAAAABQyAEAAAAAAAQMARCAAAAAAAAAUMgBAAAAAAAEDAEQgAAAAAAAAFDIAQAAAAAABAwBEIAAAAAAAABQyAEAAAAAAAQMKHx8fH80NCQHQUAAAAAAMBBdv369WIgFI1GbREAAAAAAAAOstnZWZqMAQAAAAAOlo8//ti+2ptYv+1h/XYGgRAAAAAAAEDAEAgBAAAAAAAEDIEQAAAAAABAwBAIAQAAAACwp9xW7NgxHYvdtuMlpvysXvmo9nVJ7fte8yj66JWzOrZuegQJgRAAAAAAAHvOA3rg/Wfkk+c0yMzjukfoc1s3r7xnXyOoCIQAAAAAANiDnr50Ve9ff0XbqcRz5oz01u9q5nB7RrfOndM5O4pgIhACAAAAAGAvOvm8Lp25otFttOs6df6Szly5qUpFo4/0yvX3dfX8gB1HEPzxj390BrdDoVDIvgQAAAAAAHvJ2fhvdObK6Db6+jmrgXO3NFNKhD76nd7S03ryfjuOQMpkMtQQAgAAAABg7zqr+G/O6MrNrXcmdPZ8penZ7ZtXdObS8yIPCpYf/vCHzlASiUSKgdDq6qpTAAAAAAAA9piz53V1XQfTJ3XqAfuy5KOs3tcZddemPfc/qaf1ln53+xVdf/+qzp+15TjQ3M3E3K9NBnTPPffoUIE+/fRTpxAAAAAAAOw19+v5yat6/5lndMuWmLLuM+/pymil02lT++e9cwNan/cUpr90RleeuSI9/SS1gwLOZEDf/OY3i4HQP//5T1sMAAAAAAD2nPuf1+TV6ipBZ+N/0FVd0X8cO6ZjheGZ96/qD3Gf6j+mltED53TpeeKgoHA3E3O/NhnQkSNHFLp27Vr+1KlTevDBB9XW1ua8CQAAAADAfvXxxx/ru9/9rh3be1i/7WH9/JWahZnwx+v16dOn9c477+h73/ueDpl2Y8ePH9cHH3zgvAkAAAAAAICDx2Q/pjaZ02TMFLz77ruam5vTb3/7W/3jH/9wPgQAAAAAAID9w900zP3a1AzK5/P67LPPnEAoFAop9Oc//zn/1VdfyQwmDDLD97//fX3nO99Re3u7064MAAAAAAAA+4d5mtjKyorTZ9Df/vY3Jwgyw+HDh02H0gr96U9/yn/99ddOUmT+/de//uX0OG0m/OKLL5yy0vubtZVptmo3l7UbDtr2GOZ7dNAcxON0EB3E795Bw/8lAGgOcwcYW7Ob++6gHSe+d9tjfqjvhoN4nIKyTf+38oV95e3fjrU53yMT/JimYUePHtW3vvWt0pPFnHnec889+n+PsWWSjOw9zAAAAABJRU5ErkJggg==;" vertex="1" parent="1">
          <mxGeometry x="120" y="80" width="1156" height="762" as="geometry" />
        </mxCell>
        <mxCell id="DhdpTAGQwJF97SSmaI3E-2" value="&lt;font style=&quot;font-size: 20px;&quot; face=&quot;Times New Roman&quot;&gt;1&lt;/font&gt;" style="rounded=0;whiteSpace=wrap;html=1;strokeColor=#000000;" vertex="1" parent="1">
          <mxGeometry x="170" y="10" width="30" height="30" as="geometry" />
        </mxCell>
        <mxCell id="DhdpTAGQwJF97SSmaI3E-3" value="&lt;font style=&quot;font-size: 20px;&quot; face=&quot;Times New Roman&quot;&gt;2&lt;/font&gt;" style="rounded=0;whiteSpace=wrap;html=1;strokeColor=#000000;" vertex="1" parent="1">
          <mxGeometry x="240" y="10" width="30" height="30" as="geometry" />
        </mxCell>
        <mxCell id="DhdpTAGQwJF97SSmaI3E-4" value="&lt;font style=&quot;font-size: 20px;&quot; face=&quot;Times New Roman&quot;&gt;3&lt;/font&gt;" style="rounded=0;whiteSpace=wrap;html=1;strokeColor=#000000;" vertex="1" parent="1">
          <mxGeometry x="310" y="10" width="30" height="30" as="geometry" />
        </mxCell>
        <mxCell id="DhdpTAGQwJF97SSmaI3E-5" value="&lt;font style=&quot;font-size: 20px;&quot; face=&quot;Times New Roman&quot;&gt;4&lt;/font&gt;" style="rounded=0;whiteSpace=wrap;html=1;strokeColor=#000000;" vertex="1" parent="1">
          <mxGeometry x="400" y="10" width="30" height="30" as="geometry" />
        </mxCell>
        <mxCell id="DhdpTAGQwJF97SSmaI3E-10" value="" style="rounded=0;whiteSpace=wrap;html=1;fillColor=none;strokeColor=none;" vertex="1" parent="1">
          <mxGeometry x="125" y="110" width="35" height="20" as="geometry" />
        </mxCell>
        <mxCell id="DhdpTAGQwJF97SSmaI3E-11" value="" style="rounded=0;whiteSpace=wrap;html=1;fillColor=none;strokeColor=none;" vertex="1" parent="1">
          <mxGeometry x="170" y="110" width="50" height="20" as="geometry" />
        </mxCell>
        <mxCell id="DhdpTAGQwJF97SSmaI3E-12" value="" style="rounded=0;whiteSpace=wrap;html=1;fillColor=none;strokeColor=none;" vertex="1" parent="1">
          <mxGeometry x="220" y="110" width="60" height="20" as="geometry" />
        </mxCell>
        <mxCell id="DhdpTAGQwJF97SSmaI3E-13" value="" style="rounded=0;whiteSpace=wrap;html=1;fillColor=none;strokeColor=none;" vertex="1" parent="1">
          <mxGeometry x="280" y="110" width="60" height="20" as="geometry" />
        </mxCell>
        <mxCell id="DhdpTAGQwJF97SSmaI3E-14" value="" style="endArrow=none;html=1;rounded=0;" edge="1" parent="1" source="DhdpTAGQwJF97SSmaI3E-10" target="DhdpTAGQwJF97SSmaI3E-2">
          <mxGeometry width="50" height="50" relative="1" as="geometry">
            <mxPoint x="340" y="170" as="sourcePoint" />
            <mxPoint x="150" y="25" as="targetPoint" />
            <Array as="points">
              <mxPoint x="150" y="25" />
            </Array>
          </mxGeometry>
        </mxCell>
        <mxCell id="DhdpTAGQwJF97SSmaI3E-16" value="" style="endArrow=none;html=1;rounded=0;" edge="1" parent="1" source="DhdpTAGQwJF97SSmaI3E-11" target="DhdpTAGQwJF97SSmaI3E-3">
          <mxGeometry width="50" height="50" relative="1" as="geometry">
            <mxPoint x="340" y="170" as="sourcePoint" />
            <mxPoint x="390" y="120" as="targetPoint" />
            <Array as="points">
              <mxPoint x="220" y="25" />
            </Array>
          </mxGeometry>
        </mxCell>
        <mxCell id="DhdpTAGQwJF97SSmaI3E-17" value="" style="endArrow=none;html=1;rounded=0;" edge="1" parent="1" source="DhdpTAGQwJF97SSmaI3E-12" target="DhdpTAGQwJF97SSmaI3E-4">
          <mxGeometry width="50" height="50" relative="1" as="geometry">
            <mxPoint x="320" y="120" as="sourcePoint" />
            <mxPoint x="370" y="70" as="targetPoint" />
            <Array as="points">
              <mxPoint x="290" y="25" />
            </Array>
          </mxGeometry>
        </mxCell>
        <mxCell id="DhdpTAGQwJF97SSmaI3E-18" value="" style="endArrow=none;html=1;rounded=0;" edge="1" parent="1" source="DhdpTAGQwJF97SSmaI3E-13" target="DhdpTAGQwJF97SSmaI3E-5">
          <mxGeometry width="50" height="50" relative="1" as="geometry">
            <mxPoint x="330" y="110" as="sourcePoint" />
            <mxPoint x="380" y="60" as="targetPoint" />
            <Array as="points">
              <mxPoint x="370" y="25" />
            </Array>
          </mxGeometry>
        </mxCell>
        <mxCell id="DhdpTAGQwJF97SSmaI3E-19" value="" style="rounded=0;whiteSpace=wrap;html=1;strokeColor=none;fillColor=none;" vertex="1" parent="1">
          <mxGeometry x="125" y="130" width="415" height="30" as="geometry" />
        </mxCell>
        <mxCell id="DhdpTAGQwJF97SSmaI3E-20" value="" style="endArrow=none;html=1;rounded=0;exitX=0;exitY=1;exitDx=0;exitDy=0;entryX=1;entryY=1;entryDx=0;entryDy=0;" edge="1" parent="1" source="DhdpTAGQwJF97SSmaI3E-19" target="DhdpTAGQwJF97SSmaI3E-19">
          <mxGeometry width="50" height="50" relative="1" as="geometry">
            <mxPoint x="360" y="250" as="sourcePoint" />
            <mxPoint x="410" y="200" as="targetPoint" />
          </mxGeometry>
        </mxCell>
        <mxCell id="DhdpTAGQwJF97SSmaI3E-21" value="&lt;font style=&quot;font-size: 20px;&quot; face=&quot;Times New Roman&quot;&gt;5&lt;/font&gt;" style="rounded=0;whiteSpace=wrap;html=1;strokeColor=#000000;" vertex="1" parent="1">
          <mxGeometry x="600" y="10" width="30" height="30" as="geometry" />
        </mxCell>
        <mxCell id="DhdpTAGQwJF97SSmaI3E-22" value="" style="endArrow=none;html=1;rounded=0;exitX=1;exitY=1;exitDx=0;exitDy=0;" edge="1" parent="1" source="DhdpTAGQwJF97SSmaI3E-19" target="DhdpTAGQwJF97SSmaI3E-21">
          <mxGeometry width="50" height="50" relative="1" as="geometry">
            <mxPoint x="350" y="280" as="sourcePoint" />
            <mxPoint x="400" y="230" as="targetPoint" />
            <Array as="points">
              <mxPoint x="570" y="25" />
            </Array>
          </mxGeometry>
        </mxCell>
        <mxCell id="DhdpTAGQwJF97SSmaI3E-23" value="" style="rounded=0;whiteSpace=wrap;html=1;strokeColor=none;fillColor=none;" vertex="1" parent="1">
          <mxGeometry x="790" y="170" width="30" height="30" as="geometry" />
        </mxCell>
        <mxCell id="DhdpTAGQwJF97SSmaI3E-24" value="&lt;font style=&quot;font-size: 20px;&quot; face=&quot;Times New Roman&quot;&gt;6&lt;/font&gt;" style="rounded=0;whiteSpace=wrap;html=1;strokeColor=#000000;" vertex="1" parent="1">
          <mxGeometry x="890" y="10" width="30" height="30" as="geometry" />
        </mxCell>
        <mxCell id="DhdpTAGQwJF97SSmaI3E-25" value="" style="endArrow=none;html=1;rounded=0;" edge="1" parent="1" source="DhdpTAGQwJF97SSmaI3E-23" target="DhdpTAGQwJF97SSmaI3E-24">
          <mxGeometry width="50" height="50" relative="1" as="geometry">
            <mxPoint x="870" y="150" as="sourcePoint" />
            <mxPoint x="920" y="100" as="targetPoint" />
            <Array as="points">
              <mxPoint x="850" y="25" />
            </Array>
          </mxGeometry>
        </mxCell>
        <mxCell id="DhdpTAGQwJF97SSmaI3E-26" value="" style="rounded=0;whiteSpace=wrap;html=1;strokeColor=none;fillColor=none;" vertex="1" parent="1">
          <mxGeometry x="1100" y="180" width="30" height="30" as="geometry" />
        </mxCell>
        <mxCell id="DhdpTAGQwJF97SSmaI3E-27" value="&lt;font style=&quot;font-size: 20px;&quot; face=&quot;Times New Roman&quot;&gt;7&lt;/font&gt;" style="rounded=0;whiteSpace=wrap;html=1;strokeColor=#000000;" vertex="1" parent="1">
          <mxGeometry x="1200" y="20" width="30" height="30" as="geometry" />
        </mxCell>
        <mxCell id="DhdpTAGQwJF97SSmaI3E-28" value="" style="endArrow=none;html=1;rounded=0;" edge="1" parent="1" source="DhdpTAGQwJF97SSmaI3E-26" target="DhdpTAGQwJF97SSmaI3E-27">
          <mxGeometry width="50" height="50" relative="1" as="geometry">
            <mxPoint x="1180" y="160" as="sourcePoint" />
            <mxPoint x="1230" y="110" as="targetPoint" />
            <Array as="points">
              <mxPoint x="1160" y="35" />
            </Array>
          </mxGeometry>
        </mxCell>
        <mxCell id="DhdpTAGQwJF97SSmaI3E-29" value="" style="rounded=0;whiteSpace=wrap;html=1;fillColor=none;" vertex="1" parent="1">
          <mxGeometry x="160" y="200" width="17" as="geometry" />
        </mxCell>
        <mxCell id="DhdpTAGQwJF97SSmaI3E-31" value="&lt;font style=&quot;font-size: 20px;&quot; face=&quot;Times New Roman&quot;&gt;8&lt;/font&gt;" style="rounded=0;whiteSpace=wrap;html=1;strokeColor=#000000;" vertex="1" parent="1">
          <mxGeometry x="10" y="270" width="30" height="30" as="geometry" />
        </mxCell>
        <mxCell id="DhdpTAGQwJF97SSmaI3E-32" value="" style="rounded=0;whiteSpace=wrap;html=1;fillColor=none;strokeColor=none;" vertex="1" parent="1">
          <mxGeometry x="360" y="410" width="35" height="20" as="geometry" />
        </mxCell>
        <mxCell id="DhdpTAGQwJF97SSmaI3E-33" value="" style="endArrow=none;html=1;rounded=0;" edge="1" parent="1" source="DhdpTAGQwJF97SSmaI3E-32" target="DhdpTAGQwJF97SSmaI3E-31">
          <mxGeometry width="50" height="50" relative="1" as="geometry">
            <mxPoint x="415" y="430" as="sourcePoint" />
            <mxPoint x="225" y="285" as="targetPoint" />
            <Array as="points">
              <mxPoint x="160" y="285" />
            </Array>
          </mxGeometry>
        </mxCell>
        <mxCell id="DhdpTAGQwJF97SSmaI3E-34" value="&lt;font style=&quot;font-size: 20px;&quot; face=&quot;Times New Roman&quot;&gt;9&lt;/font&gt;" style="rounded=0;whiteSpace=wrap;html=1;strokeColor=#000000;" vertex="1" parent="1">
          <mxGeometry x="10" y="230" width="30" height="30" as="geometry" />
        </mxCell>
        <mxCell id="DhdpTAGQwJF97SSmaI3E-35" value="" style="endArrow=none;html=1;rounded=0;" edge="1" parent="1" source="DhdpTAGQwJF97SSmaI3E-34" target="DhdpTAGQwJF97SSmaI3E-29">
          <mxGeometry width="50" height="50" relative="1" as="geometry">
            <mxPoint x="80" y="250" as="sourcePoint" />
            <mxPoint x="130" y="200" as="targetPoint" />
            <Array as="points">
              <mxPoint x="140" y="245" />
            </Array>
          </mxGeometry>
        </mxCell>
        <mxCell id="DhdpTAGQwJF97SSmaI3E-36" value="&lt;font style=&quot;font-size: 20px;&quot; face=&quot;Times New Roman&quot;&gt;10&lt;/font&gt;" style="rounded=0;whiteSpace=wrap;html=1;strokeColor=#000000;" vertex="1" parent="1">
          <mxGeometry x="10" y="310" width="30" height="30" as="geometry" />
        </mxCell>
        <mxCell id="DhdpTAGQwJF97SSmaI3E-38" value="" style="rounded=0;whiteSpace=wrap;html=1;fillColor=none;strokeColor=none;" vertex="1" parent="1">
          <mxGeometry x="140" y="384" width="5" height="10" as="geometry" />
        </mxCell>
        <mxCell id="DhdpTAGQwJF97SSmaI3E-39" value="" style="endArrow=none;html=1;rounded=0;entryX=0.6;entryY=0.567;entryDx=0;entryDy=0;entryPerimeter=0;exitX=1;exitY=0.5;exitDx=0;exitDy=0;" edge="1" parent="1" source="DhdpTAGQwJF97SSmaI3E-36" target="DhdpTAGQwJF97SSmaI3E-38">
          <mxGeometry width="50" height="50" relative="1" as="geometry">
            <mxPoint x="50" y="380" as="sourcePoint" />
            <mxPoint x="100" y="330" as="targetPoint" />
          </mxGeometry>
        </mxCell>
        <mxCell id="DhdpTAGQwJF97SSmaI3E-40" value="" style="rounded=0;whiteSpace=wrap;html=1;strokeColor=none;fillColor=none;" vertex="1" parent="1">
          <mxGeometry x="153.5" y="820" width="30" height="10" as="geometry" />
        </mxCell>
        <mxCell id="DhdpTAGQwJF97SSmaI3E-41" value="&lt;font style=&quot;font-size: 20px;&quot; face=&quot;Times New Roman&quot;&gt;11&lt;/font&gt;" style="rounded=0;whiteSpace=wrap;html=1;strokeColor=#000000;" vertex="1" parent="1">
          <mxGeometry x="70" y="860" width="30" height="30" as="geometry" />
        </mxCell>
        <mxCell id="DhdpTAGQwJF97SSmaI3E-42" value="" style="endArrow=none;html=1;rounded=0;" edge="1" parent="1" source="DhdpTAGQwJF97SSmaI3E-40" target="DhdpTAGQwJF97SSmaI3E-41">
          <mxGeometry width="50" height="50" relative="1" as="geometry">
            <mxPoint x="320" y="1000" as="sourcePoint" />
            <mxPoint x="370" y="950" as="targetPoint" />
            <Array as="points">
              <mxPoint x="140" y="875" />
            </Array>
          </mxGeometry>
        </mxCell>
        <mxCell id="DhdpTAGQwJF97SSmaI3E-43" value="" style="rounded=0;whiteSpace=wrap;html=1;strokeColor=none;fillColor=none;" vertex="1" parent="1">
          <mxGeometry x="730" y="600" width="30" height="10" as="geometry" />
        </mxCell>
        <mxCell id="DhdpTAGQwJF97SSmaI3E-44" value="&lt;font style=&quot;font-size: 20px;&quot; face=&quot;Times New Roman&quot;&gt;12&lt;/font&gt;" style="rounded=0;whiteSpace=wrap;html=1;strokeColor=#000000;" vertex="1" parent="1">
          <mxGeometry x="230" y="860" width="30" height="30" as="geometry" />
        </mxCell>
        <mxCell id="DhdpTAGQwJF97SSmaI3E-45" value="" style="endArrow=none;html=1;rounded=0;" edge="1" parent="1" source="DhdpTAGQwJF97SSmaI3E-43" target="DhdpTAGQwJF97SSmaI3E-44">
          <mxGeometry width="50" height="50" relative="1" as="geometry">
            <mxPoint x="480" y="1000" as="sourcePoint" />
            <mxPoint x="530" y="950" as="targetPoint" />
            <Array as="points">
              <mxPoint x="530" y="875" />
            </Array>
          </mxGeometry>
        </mxCell>
        <mxCell id="DhdpTAGQwJF97SSmaI3E-46" value="" style="rounded=0;whiteSpace=wrap;html=1;strokeColor=none;fillColor=none;" vertex="1" parent="1">
          <mxGeometry x="730" y="700" width="30" height="10" as="geometry" />
        </mxCell>
        <mxCell id="DhdpTAGQwJF97SSmaI3E-47" value="&lt;font style=&quot;font-size: 20px;&quot; face=&quot;Times New Roman&quot;&gt;13&lt;/font&gt;" style="rounded=0;whiteSpace=wrap;html=1;strokeColor=#000000;" vertex="1" parent="1">
          <mxGeometry x="630" y="860" width="30" height="30" as="geometry" />
        </mxCell>
        <mxCell id="DhdpTAGQwJF97SSmaI3E-48" value="" style="endArrow=none;html=1;rounded=0;" edge="1" parent="1" source="DhdpTAGQwJF97SSmaI3E-46" target="DhdpTAGQwJF97SSmaI3E-47">
          <mxGeometry width="50" height="50" relative="1" as="geometry">
            <mxPoint x="880" y="1000" as="sourcePoint" />
            <mxPoint x="930" y="950" as="targetPoint" />
            <Array as="points">
              <mxPoint x="700" y="875" />
            </Array>
          </mxGeometry>
        </mxCell>
        <mxCell id="DhdpTAGQwJF97SSmaI3E-51" value="" style="rounded=0;whiteSpace=wrap;html=1;strokeColor=none;fillColor=none;" vertex="1" parent="1">
          <mxGeometry x="1062" y="517" width="10" as="geometry" />
        </mxCell>
        <mxCell id="DhdpTAGQwJF97SSmaI3E-52" value="&lt;font style=&quot;font-size: 20px;&quot; face=&quot;Times New Roman&quot;&gt;14&lt;/font&gt;" style="rounded=0;whiteSpace=wrap;html=1;strokeColor=#000000;" vertex="1" parent="1">
          <mxGeometry x="720" y="860" width="30" height="30" as="geometry" />
        </mxCell>
        <mxCell id="DhdpTAGQwJF97SSmaI3E-53" value="" style="endArrow=none;html=1;rounded=0;exitX=0.5;exitY=0;exitDx=0;exitDy=0;" edge="1" parent="1" source="DhdpTAGQwJF97SSmaI3E-51" target="DhdpTAGQwJF97SSmaI3E-52">
          <mxGeometry width="50" height="50" relative="1" as="geometry">
            <mxPoint x="1040" y="1000" as="sourcePoint" />
            <mxPoint x="1090" y="950" as="targetPoint" />
            <Array as="points">
              <mxPoint x="810" y="875" />
            </Array>
          </mxGeometry>
        </mxCell>
        <mxCell id="DhdpTAGQwJF97SSmaI3E-55" value="&lt;font style=&quot;font-size: 20px;&quot; face=&quot;Times New Roman&quot;&gt;15&lt;/font&gt;" style="rounded=0;whiteSpace=wrap;html=1;strokeColor=#000000;" vertex="1" parent="1">
          <mxGeometry x="870" y="860" width="30" height="30" as="geometry" />
        </mxCell>
        <mxCell id="DhdpTAGQwJF97SSmaI3E-56" value="" style="endArrow=none;html=1;rounded=0;exitX=1;exitY=0.5;exitDx=0;exitDy=0;" edge="1" parent="1" source="DhdpTAGQwJF97SSmaI3E-55" target="DhdpTAGQwJF97SSmaI3E-57">
          <mxGeometry width="50" height="50" relative="1" as="geometry">
            <mxPoint x="920" y="970" as="sourcePoint" />
            <mxPoint x="1057" y="610" as="targetPoint" />
          </mxGeometry>
        </mxCell>
        <mxCell id="DhdpTAGQwJF97SSmaI3E-57" value="" style="rounded=0;whiteSpace=wrap;html=1;fillColor=none;strokeColor=none;" vertex="1" parent="1">
          <mxGeometry x="1059" y="590" width="10" height="20" as="geometry" />
        </mxCell>
        <mxCell id="DhdpTAGQwJF97SSmaI3E-58" value="" style="rounded=0;whiteSpace=wrap;html=1;strokeColor=none;fillColor=none;" vertex="1" parent="1">
          <mxGeometry x="1130" y="600" width="30" height="10" as="geometry" />
        </mxCell>
        <mxCell id="DhdpTAGQwJF97SSmaI3E-59" value="&lt;font style=&quot;font-size: 20px;&quot; face=&quot;Times New Roman&quot;&gt;16&lt;/font&gt;" style="rounded=0;whiteSpace=wrap;html=1;strokeColor=#000000;" vertex="1" parent="1">
          <mxGeometry x="948.5" y="860" width="30" height="30" as="geometry" />
        </mxCell>
        <mxCell id="DhdpTAGQwJF97SSmaI3E-60" value="" style="endArrow=none;html=1;rounded=0;" edge="1" parent="1" source="DhdpTAGQwJF97SSmaI3E-58" target="DhdpTAGQwJF97SSmaI3E-59">
          <mxGeometry width="50" height="50" relative="1" as="geometry">
            <mxPoint x="1198.5" y="1000" as="sourcePoint" />
            <mxPoint x="1248.5" y="950" as="targetPoint" />
            <Array as="points">
              <mxPoint x="1018.5" y="875" />
            </Array>
          </mxGeometry>
        </mxCell>
        <mxCell id="DhdpTAGQwJF97SSmaI3E-61" value="" style="rounded=0;whiteSpace=wrap;html=1;fillColor=none;strokeColor=none;" vertex="1" parent="1">
          <mxGeometry x="1062" y="822" width="170" height="28" as="geometry" />
        </mxCell>
        <mxCell id="DhdpTAGQwJF97SSmaI3E-63" value="" style="endArrow=none;html=1;rounded=0;exitX=0;exitY=1;exitDx=0;exitDy=0;entryX=1;entryY=1;entryDx=0;entryDy=0;" edge="1" parent="1" source="DhdpTAGQwJF97SSmaI3E-61" target="DhdpTAGQwJF97SSmaI3E-61">
          <mxGeometry width="50" height="50" relative="1" as="geometry">
            <mxPoint x="1080" y="930" as="sourcePoint" />
            <mxPoint x="1130" y="880" as="targetPoint" />
          </mxGeometry>
        </mxCell>
        <mxCell id="DhdpTAGQwJF97SSmaI3E-65" value="&lt;font style=&quot;font-size: 20px;&quot; face=&quot;Times New Roman&quot;&gt;17&lt;/font&gt;" style="rounded=0;whiteSpace=wrap;html=1;strokeColor=#000000;" vertex="1" parent="1">
          <mxGeometry x="1096" y="880" width="30" height="30" as="geometry" />
        </mxCell>
        <mxCell id="DhdpTAGQwJF97SSmaI3E-66" value="" style="endArrow=none;html=1;rounded=0;" edge="1" parent="1" target="DhdpTAGQwJF97SSmaI3E-65">
          <mxGeometry width="50" height="50" relative="1" as="geometry">
            <mxPoint x="1190" y="850" as="sourcePoint" />
            <mxPoint x="1400" y="990" as="targetPoint" />
            <Array as="points">
              <mxPoint x="1160" y="895" />
            </Array>
          </mxGeometry>
        </mxCell>
      </root>
    </mxGraphModel>
  </diagram>
</mxfile>
